<svg width="29" height="27" viewBox="0 0 29 27" fill="none" xmlns="http://www.w3.org/2000/svg">
<path d="M26.1963 19.08L22.4142 10.8563C21.1334 8.06625 18.7771 7.95375 17.1942 10.6088L14.9105 14.445C13.7505 16.3913 11.5875 16.56 10.0892 14.8163L9.82338 14.5013C8.26463 12.6788 6.06546 12.9038 4.94171 14.985L2.86338 18.8663C1.40129 21.5663 3.51588 24.75 6.75421 24.75H22.1725C25.3142 24.75 27.4288 21.7688 26.1963 19.08ZM8.42171 9C9.38312 9 10.3052 8.64442 10.985 8.01149C11.6648 7.37855 12.0467 6.52011 12.0467 5.625C12.0467 4.72989 11.6648 3.87145 10.985 3.23851C10.3052 2.60558 9.38312 2.25 8.42171 2.25C7.4603 2.25 6.53827 2.60558 5.85845 3.23851C5.17863 3.87145 4.79671 4.72989 4.79671 5.625C4.79671 6.52011 5.17863 7.37855 5.85845 8.01149C6.53827 8.64442 7.4603 9 8.42171 9Z" stroke="black" stroke-width="1.5" stroke-linecap="round" stroke-linejoin="round"/>
</svg>
