<svg width="33" height="33" viewBox="0 0 33 33" fill="none" xmlns="http://www.w3.org/2000/svg">
<path d="M16.5 18.4662C17.0633 18.4662 17.6212 18.3553 18.1417 18.1397C18.6622 17.9241 19.1351 17.6081 19.5334 17.2097C19.9318 16.8114 20.2478 16.3384 20.4634 15.8179C20.679 15.2975 20.79 14.7396 20.79 14.1762C20.79 13.6129 20.679 13.055 20.4634 12.5345C20.2478 12.014 19.9318 11.5411 19.5334 11.1427C19.1351 10.7444 18.6622 10.4284 18.1417 10.2128C17.6212 9.99719 17.0633 9.88623 16.5 9.88623C15.3622 9.88623 14.271 10.3382 13.4665 11.1427C12.6619 11.9473 12.21 13.0385 12.21 14.1762C12.21 15.314 12.6619 16.4052 13.4665 17.2097C14.271 18.0143 15.3622 18.4662 16.5 18.4662Z" stroke="black" stroke-width="1.5"/>
<path d="M4.97734 11.6738C7.68609 -0.233747 25.3273 -0.219997 28.0223 11.6875C29.6036 18.6725 25.2586 24.585 21.4498 28.2425C20.1189 29.5261 18.342 30.2434 16.493 30.2434C14.6439 30.2434 12.867 29.5261 11.5361 28.2425C7.74109 24.585 3.39609 18.6588 4.97734 11.6738Z" stroke="black" stroke-width="1.5"/>
</svg>
