<svg width="26" height="26" viewBox="0 0 36 36" fill="none" xmlns="http://www.w3.org/2000/svg">
<path d="M31.3969 33.106L30.3851 7.81151C30.3616 7.22374 29.8824 6.76321 29.294 6.76321H24.7279V6.72798C24.7279 3.01815 21.7097 0 17.9999 0C14.2901 0 11.2719 3.01815 11.2719 6.72798V6.76321H6.70582C6.11749 6.76321 5.63829 7.22367 5.61469 7.81151L4.60289 33.106C4.57231 33.8698 4.84721 34.594 5.37678 35.1452C5.90643 35.6964 6.6191 36 7.38348 36H28.6164C29.3808 36 30.0934 35.6964 30.6231 35.1452C31.1526 34.594 31.4275 33.8698 31.3969 33.106ZM12.3287 6.72798C12.3287 3.60085 14.8728 1.05675 17.9999 1.05675C21.127 1.05675 23.6711 3.60085 23.6711 6.72798V6.76321H12.3287V6.72798ZM29.861 34.413C29.5325 34.7549 29.0904 34.9432 28.6164 34.9432H7.38348C6.90935 34.9432 6.46735 34.755 6.13884 34.4131C5.81033 34.0712 5.63984 33.622 5.65886 33.1483L6.6706 7.85378C6.67137 7.83476 6.6868 7.81996 6.70582 7.81996H11.2719V11.2368C11.2719 11.5286 11.5085 11.7652 11.8003 11.7652C12.0921 11.7652 12.3287 11.5286 12.3287 11.2368V7.81996H23.6711V11.2368C23.6711 11.5286 23.9077 11.7652 24.1995 11.7652C24.4913 11.7652 24.7279 11.5286 24.7279 11.2368V7.81996H29.294C29.313 7.81996 29.3284 7.83476 29.3292 7.85378L30.341 33.1483C30.3599 33.622 30.1894 34.0711 29.861 34.413Z" fill="#242424"/>
</svg>
