<svg width="30" height="30" viewBox="0 0 40 40" fill="none" xmlns="http://www.w3.org/2000/svg">
<path d="M5.00008 20.4882V20C5.00008 11.7157 11.7158 5 20.0001 5C28.2844 5 35.0001 11.7157 35.0001 20C35.0001 28.2843 28.2844 35 20.0001 35C16.385 35 12.966 33.7157 10.2714 31.4176C9.09759 30.4165 8.08288 29.2399 7.26612 27.9312C7.02245 27.5407 7.14144 27.0267 7.53188 26.783C7.92232 26.5394 8.43637 26.6583 8.68004 27.0488C9.40629 28.2125 10.3088 29.259 11.3529 30.1495C13.7487 32.1927 16.7852 33.3333 20.0001 33.3333C27.3639 33.3333 33.3334 27.3638 33.3334 20C33.3334 12.6362 27.3639 6.66667 20.0001 6.66667C12.6363 6.66667 6.66675 12.6362 6.66675 20V20.4882L8.57749 18.5774C8.90293 18.252 9.43057 18.252 9.756 18.5774C10.0814 18.9028 10.0814 19.4305 9.756 19.7559L6.42267 23.0893C6.09723 23.4147 5.5696 23.4147 5.24416 23.0893L1.91083 19.7559C1.58539 19.4305 1.58539 18.9028 1.91083 18.5774C2.23626 18.252 2.7639 18.252 3.08934 18.5774L5.00008 20.4882ZM26.1617 21.734C26.5847 21.9153 26.7807 22.4052 26.5994 22.8283C26.4181 23.2513 25.9282 23.4473 25.5051 23.266L19.6718 20.766C19.453 20.6722 19.2848 20.4893 19.2095 20.2635L16.7095 12.7635C16.564 12.3269 16.7999 11.855 17.2366 11.7094C17.6732 11.5639 18.1451 11.7999 18.2907 12.2365L20.6723 19.3815L26.1617 21.734Z" fill="#242424"/>
</svg>
