<svg width="26" height="26" viewBox="0 0 36 36" fill="none" xmlns="http://www.w3.org/2000/svg">
<g clip-path="url(#clip0_107_3945)">
<path d="M6.87073 23.4777C6.95584 24.316 7.40936 25.0679 8.05473 25.5757C7.69346 26.0008 7.47479 26.5505 7.47479 27.1507V29.4008C7.47479 30.3707 8.03455 31.2061 8.85502 31.5985C8.80853 31.8227 8.7839 32.0548 8.7839 32.2924C8.7839 34.1735 10.3142 35.7038 12.1952 35.7038C14.0762 35.7038 15.6065 34.1735 15.6065 32.2924C15.6065 32.1383 15.5953 31.9867 15.5754 31.8379H21.1865C21.1666 31.9868 21.1553 32.1383 21.1553 32.2924C21.1553 34.1735 22.6856 35.7038 24.5666 35.7038C26.4476 35.7038 27.9779 34.1735 27.9779 32.2924C27.9779 30.4114 26.4476 28.8811 24.5666 28.8811C23.4256 28.8811 22.4143 29.4448 21.7947 30.3077H14.9671C14.3474 29.4448 13.3362 28.8811 12.1951 28.8811C11.0988 28.8811 10.1224 29.4015 9.49784 30.2076C9.20404 30.0576 9.00476 29.7535 9.00476 29.4009V27.1508C9.00476 26.6511 9.41156 26.2446 9.91164 26.2446C9.91397 26.2446 9.91623 26.2443 9.91857 26.2442C9.92323 26.2443 9.92789 26.2446 9.93248 26.2446H27.821C29.3001 26.2446 30.8321 25.148 31.309 23.7481L35.8546 10.4011C36.1119 9.6459 36.0243 8.88445 35.6145 8.31195C35.2047 7.73944 34.5121 7.41104 33.7144 7.41104H32.0829L27.1665 2.4711C26.4021 1.70688 25.1632 1.70025 24.3899 2.45041L16.093 4.68214L13.8658 0.688656C13.66 0.319664 13.1941 0.187412 12.825 0.393113L8.37031 2.87754C8.19303 2.97635 8.06238 3.14161 8.007 3.33682C7.95155 3.53202 7.97596 3.74122 8.07484 3.91843L10.0227 7.41096H8.17736C7.6853 7.41096 7.2218 7.53666 6.81987 7.7723L6.45861 4.16042C6.41948 3.76928 6.09034 3.47147 5.6973 3.47147H0.765091C0.342542 3.47147 0 3.81402 0 4.23656C0 4.65911 0.342542 5.00166 0.765091 5.00166H5.00493L6.87073 23.4777ZM24.5668 30.4112C25.604 30.4112 26.4479 31.2551 26.4479 32.2924C26.4479 33.3296 25.604 34.1735 24.5668 34.1735C23.5295 34.1735 22.6856 33.3297 22.6856 32.2924C22.6856 31.2551 23.5295 30.4112 24.5668 30.4112ZM12.1953 30.4112C13.2325 30.4112 14.0764 31.2551 14.0764 32.2924C14.0764 33.3296 13.2325 34.1735 12.1953 34.1735C11.158 34.1735 10.3142 33.3297 10.3142 32.2924C10.3142 31.2551 11.158 30.4112 12.1953 30.4112ZM26.0836 3.55177L29.9243 7.41096H21.5925L25.4503 3.55316C25.6252 3.37821 25.9098 3.37821 26.0836 3.55177ZM22.2211 4.61838L19.4286 7.41096H17.6149L16.8615 6.0601L22.2211 4.61838ZM9.78376 3.84127L12.9021 2.10218L15.8629 7.41096H11.7747L9.78376 3.84127ZM34.4064 9.90763L29.8607 23.2547C29.5958 24.0322 28.6428 24.7143 27.8213 24.7143H9.9327C9.17468 24.7143 8.46956 24.0772 8.39305 23.3232L8.12271 20.6568H24.572C24.9946 20.6568 25.3371 20.3143 25.3371 19.8917C25.3371 19.4692 24.9946 19.1266 24.572 19.1266H7.96766L7.06223 10.1953C7.06223 10.1951 7.06223 10.195 7.06223 10.1949L7.06208 10.1932C7.02761 9.85299 7.12613 9.53566 7.33963 9.29943C7.54839 9.06837 7.8459 8.94114 8.17736 8.94114H31.758C31.7606 8.94122 31.763 8.94151 31.7656 8.94151C31.768 8.94151 31.7705 8.94122 31.773 8.94114H33.7146C34.0169 8.94114 34.2499 9.03397 34.3705 9.20251C34.4912 9.37098 34.5038 9.62142 34.4064 9.90763Z" fill="#242424"/>
</g>
<defs>
<clipPath id="clip0_107_3945">
<rect width="36" height="36" fill="white"/>
</clipPath>
</defs>
</svg>
