<svg width="29" height="29" viewBox="0 0 39 39" fill="none" xmlns="http://www.w3.org/2000/svg">
<path d="M23.3999 10.4C23.3999 8.24915 21.6507 6.5 19.4999 6.5C17.349 6.5 15.5999 8.24915 15.5999 10.4V13.65H12.3499V26H26.6499V13.65H23.3999V10.4ZM16.8999 10.4C16.8999 8.9661 18.066 7.8 19.4999 7.8C20.9338 7.8 22.0999 8.9661 22.0999 10.4V13.65H16.8999V10.4ZM25.3499 14.95V24.7H13.6499V14.95H15.5999H23.3999H25.3499Z" fill="#242424"/>
<path d="M18.8499 21.3577V22.75C18.8499 23.1094 19.1411 23.4 19.4999 23.4C19.8587 23.4 20.1499 23.1094 20.1499 22.75V21.3577C21.2679 21.0672 22.0999 20.0583 22.0999 18.85C22.0999 17.4161 20.9338 16.25 19.4999 16.25C18.066 16.25 16.8999 17.4161 16.8999 18.85C16.8999 20.0583 17.7319 21.0672 18.8499 21.3577ZM19.4999 17.55C20.2169 17.55 20.7999 18.133 20.7999 18.85C20.7999 19.5669 20.2169 20.15 19.4999 20.15C18.783 20.15 18.1999 19.5669 18.1999 18.85C18.1999 18.133 18.783 17.55 19.4999 17.55Z" fill="#242424"/>
<path d="M19.5 0C9.82275 0 1.94995 7.8728 1.94995 17.55C1.94995 26.7208 9.0226 34.2673 17.9991 35.0317L15.1404 37.8904C14.8863 38.1446 14.8863 38.5554 15.1404 38.8095C15.2672 38.9363 15.4336 39 15.6 39C15.7664 39 15.9328 38.9363 16.0595 38.8095L19.9589 34.9102C20.0193 34.8504 20.0668 34.7782 20.0999 34.6983C20.1656 34.5397 20.1656 34.3603 20.0999 34.2017C20.0668 34.1217 20.0193 34.0502 19.9589 33.9898L16.0595 30.0904C15.8054 29.8363 15.3946 29.8363 15.1404 30.0904C14.8863 30.3446 14.8863 30.7554 15.1404 31.0096L17.847 33.7161C9.66025 32.8854 3.24995 25.9525 3.24995 17.55C3.24995 8.58975 10.5397 1.3 19.5 1.3C28.4602 1.3 35.75 8.58975 35.75 17.55C35.75 21.8614 34.0795 25.9226 31.0453 28.9854C30.7924 29.2409 30.7944 29.6523 31.0498 29.9052C31.3046 30.1567 31.7161 30.1554 31.9689 29.9006C35.2456 26.5921 37.05 22.2059 37.05 17.55C37.05 7.8728 29.1772 0 19.5 0Z" fill="#242424"/>
</svg>
