<svg width="26" height="26" viewBox="0 0 36 36" fill="none" xmlns="http://www.w3.org/2000/svg">
<path fill-rule="evenodd" clip-rule="evenodd" d="M17.7667 32.4927C12.2291 32.4927 7.5 31.631 7.5 28.1798C7.5 24.7287 12.1991 21.5427 17.7667 21.5427C23.3046 21.5427 28.0336 24.6978 28.0336 28.149C28.0336 31.5987 23.3346 32.4927 17.7667 32.4927Z" stroke="#242424" stroke-width="1.5" stroke-linecap="round" stroke-linejoin="round"/>
<path fill-rule="evenodd" clip-rule="evenodd" d="M17.7559 16.7603C21.3901 16.7603 24.3355 13.8149 24.3355 10.1808C24.3355 6.54668 21.3901 3.59985 17.7559 3.59985C14.1219 3.59985 11.1751 6.54668 11.1751 10.1808C11.1628 13.8026 14.0878 16.7481 17.7096 16.7603C17.7259 16.7603 17.7409 16.7603 17.7559 16.7603Z" stroke="#242424" stroke-width="1.5" stroke-linecap="round" stroke-linejoin="round"/>
</svg>
