<svg width="25" height="25" viewBox="0 0 25 25" fill="none" xmlns="http://www.w3.org/2000/svg">
<circle cx="12.5" cy="12.5" r="12.45" fill="#EFEFEF" stroke="black" stroke-width="0.1"/>
<path d="M12.4882 17.4882C12.2383 17.4887 11.9961 17.4017 11.8037 17.2422L5.38638 11.8945C5.16796 11.7129 5.0306 11.452 5.00453 11.1692C4.97845 10.8864 5.06579 10.6048 5.24734 10.3864C5.42888 10.168 5.68976 10.0306 5.97258 10.0045C6.2554 9.97845 6.53699 10.0658 6.75541 10.2473L12.4882 15.039L18.2211 10.4185C18.3305 10.3296 18.4563 10.2633 18.5915 10.2232C18.7266 10.1832 18.8683 10.1703 19.0084 10.1852C19.1486 10.2001 19.2844 10.2425 19.4081 10.3101C19.5318 10.3777 19.6409 10.469 19.7291 10.5789C19.8271 10.6889 19.9013 10.8179 19.947 10.9579C19.9928 11.0978 20.0092 11.2458 19.9951 11.3924C19.9811 11.539 19.9369 11.6811 19.8653 11.8098C19.7938 11.9385 19.6965 12.0511 19.5794 12.1405L13.1621 17.3064C12.9641 17.4407 12.7269 17.5047 12.4882 17.4882Z" fill="#646061"/>
</svg>
