<?xml version="1.0" encoding="utf-8"?>
<!-- Generator: Adobe Illustrator 23.0.0, SVG Export Plug-In . SVG Version: 6.00 Build 0)  -->
<svg version="1.1" id="Слой_1" xmlns="http://www.w3.org/2000/svg" xmlns:xlink="http://www.w3.org/1999/xlink" x="0px" y="0px"
	 viewBox="0 0 250 150" style="enable-background:new 0 0 250 150;" xml:space="preserve">
<style type="text/css">
	.st0{fill:#2A1144;stroke:#020202;stroke-miterlimit:10;}
	.st1{fill:#361354;stroke:#020202;stroke-miterlimit:10;}
	.st2{fill:none;stroke:#000000;stroke-miterlimit:10;}
	.st3{fill:#FFFFFF;stroke:#000000;stroke-width:2;stroke-miterlimit:10;}
	.st4{font-family:'ArialRoundedMTBold';}
	.st5{font-size:33.6648px;}
</style>
<path class="st0" d="M30.1,110.8c-0.1,0.8,1.4,2.1,1.6,2.2c1.1,1,2.3,1.3,4.3,1.7c3,0.7,4.5,1,5,1.1c2.2,0.3,7.3,1,17.4,1l0,0
	c2.5,0,7.6,0,14.6-0.6c0.8-0.1,3.1-0.4,7.6-1.2c0.8-0.1,2.3-0.4,3.7-1.5c0.5-0.4,1.8-1.6,1.7-2.3C85.6,107,30.4,106.4,30.1,110.8z"
	/>
<path class="st1" d="M17.9,48.2c4.7-1.8,6.2-2.7,6.2-2.7c1.1-0.6,3.2-1.7,5.4-3.7c0.9-0.8,2.1-2,4-3.5c0.6-0.5,1.2-0.9,2-1.3
	c1-0.5,1.5-0.7,2.8-1.2c0.7-0.3,1.7-0.7,3.7-1.5c2.7-1.1,2.6-1.2,3.7-1.5c0.6-0.2,2.5-0.9,4.6-1.3c1.9-0.3,2.3-0.1,6.8-0.1
	c4.3,0,4.2-0.2,6.4,0c1.4,0.1,3.5,0.3,6.1,1c0.7,0.2,0.1,0.1,5.2,1.9c0,0,4.1,1.5,6.1,2.8c0.4,0.3,0.8,0.6,0.8,0.6
	c0.6,0.5,1.1,0.8,1.2,1c0,0,0.8,0.7,2.3,1.9c0.8,0.7,2.3,1.8,4.1,3.2c2.3,1.7,3.3,2.2,4.1,2.5c0.9,0.4,1.7,0.6,1.7,0.6
	c1.4,0.4,2.9,0.6,2.9,0.6c0,0,0,0,0,3.2c0,1.3,0,2.5,0,3.8c0,1,0,2.1,0,3.2c0,1,0,2.1,0,3.2c0,0.8,0,1.7,0,2.5c0,0.4,0,0.6,0,0.6
	s-2.4,0.1-4.7,0c-0.4,0-0.2,0-4.4-0.3c-2-0.2-4.4-0.3-4.4-0.3c0,1.7,0,1.9,0,1.9c0,1.3-0.2,1.6-0.3,2.8c-0.1,0.7-0.1,1.3,0,2.5
	c0.2,1.9,0.9,14.3,1.2,18.9c0.2,3,0.3,5.6,0.3,8.5c0,0.2,0,0.1,0,3.8c0,0,0,9.5,0,9.5c0,0-4.6-0.9-8.1-1.5c-3.5-0.6-6.1-0.8-8.5-1.1
	c-4.7-0.5-7.6-0.8-11.7-0.8c-5,0-8.7,0.4-10.9,0.6c-7.6,0.8-11.6,1.9-11.6,1.9l0,0c-3.2,0.9-5,0.5-5,0.5s-0.1-2.1-0.1-2.2
	c-0.1-3.3-0.1-7.9-0.1-7.9c0.1-7.4,0.5-14.4,0.9-23.3c0-0.5,0.1-2.6,0.3-5.4c0.1-1.7,0.2-2.7,0.3-3.3c0-0.3,0.2-1.5,0.4-3.1
	c0.1-0.7,0.3-2,0.3-2S30.3,64.8,30,65c-0.5,0.4-1.6,1.1-5.3,2.9c-3.5,1.7-6.8,3.2-6.9,3.2c0,0,0-3.8,0-6.5c0-6.9-0.2-6.8-0.1-10.6
	C17.8,51.9,17.9,48.2,17.9,48.2z"/>
<path class="st0" d="M46.6,33c-0.2,0.7,0.3,1.7,0.4,2.1c0.1,0.3,0.5,1,1.8,2.2c1.1,1,2,1.6,2.5,1.9c2.3,1.3,4.3,1.8,5.1,1.9
	c1.1,0.2,3.3,0.5,6-0.2c2.8-0.8,4.6-2.4,5.9-3.5c0.9-0.8,3.4-3,2.9-4.1c-0.2-0.6-1.1-0.6-1.5-0.7c-4-0.3-8-1.3-12-1.2
	C50,31.8,47,31.6,46.6,33z"/>
<path class="st2" d="M33.9,42c0,0.5,0,1.3,0,2.3c0,1.2-0.1,1.9-0.2,3.1c-0.2,2.3-0.1,2.1-0.3,4.8c-0.1,1-0.2,2-0.3,3.8
	c-0.2,1.6-0.3,2.8-0.3,3.5c-0.1,1.1-0.3,2.5-0.4,4.1"/>
<path class="st2" d="M83.5,42c0,0.5,0,1.3,0,2.3c0,1.2,0.1,1.9,0.1,3.1c0.1,2.3,0.1,2.1,0.2,4.8c0.1,1,0.1,2,0.2,3.8
	c0.1,1.6,0.2,2.8,0.2,3.5c0.1,1.1,0.2,2.5,0.3,4.1"/>
<path class="st3" d="M72,46.8c0.4-0.3,0.9-0.2,2.1,0.2c1.5,0.4,2.3,0.6,2.5,0.7c6.4,2.3,8.9,3.5,8.9,3.5c1.4,0.7,3.3,1.7,7.1,3.6
	c4.4,2.3,5.8,3.1,7.5,3.6c0.4,0.1,2,0.6,3.5,1.2c0.2,0.1,1.4,0.7,1.4,0.7s-0.2,2.8-1.3,5.1c-0.2,0.4-1.1,2.3-3.2,3.7
	c-0.4,0.3-1.7,1.1-3.3,1.4c-2.3,0.4-4.3-0.5-6.9-1.7c-3.3-1.5-4.2-2.7-5.8-2.2c-1.3,0.4-2.2,1.6-2.3,1.8c-0.7,0.9-0.5,1.4-1.5,3.9
	c-0.6,1.4-0.8,1.8-1.1,2.2c-0.4,0.6-1.3,1.7-2.3,1.5c-0.8-0.2-1.2-1-1.2-1.2c-0.2-0.4-0.4-1.1,0.3-3.1c0.3-0.9,0.6-1.5,1.2-2.8
	c0.8-1.6,1.5-3.3,2.3-4.9l0,0c-0.2,0.3-1.6,2.6-2.7,4.6c-0.3,0.5-0.9,1.7-1.4,2.8c-0.6,1.2-0.7,1.5-1.1,1.7c-0.9,0.4-2.4-0.3-3-1.3
	c-1.4-2.8,4.2-9.3,4.4-9.2c0,0-0.4,0.3-4.1,5.8c-0.7,1-1.4,2.1-2.4,2.1c-0.6,0-1.2-0.5-1.6-1c-0.4-0.6-0.3-1.2-0.3-1.7
	c0.1-0.9,0.4-1.5,0.8-2.3c0.2-0.3,0.6-1.2,1.5-2.3c0.5-0.6,0.5-0.5,1.7-1.8c0.2-0.3,0.9-1,1.7-1.9c0.8-0.9,1.1-1.3,1.2-1.6
	c0.4-0.5,0.6-1,0.8-1.4c0,0-1.6,0.1-2.8,0.4c-0.3,0.1-1.4,0.3-2.4,0.9c-1.3,0.7-2,1.7-3,3.2c-1.5,2-2,3.6-3.3,4.8
	c-0.3,0.3-0.7,0.6-1.5,1.1c-0.8,0.5-1,0.7-1.3,0.6c-0.4-0.1-0.7-0.5-0.8-0.8c-0.4-1,0.5-2.2,2.1-4.8c1.9-3.1,1.4-2.8,2.2-3.7
	c0.6-0.8,2.4-2.9,5.1-3.8c1.1-0.3,1.5-0.2,5.3-1.1c0.9-0.2,1.9-0.4,1.9-0.7c0-0.3-0.9-0.4-2.2-0.9c-0.8-0.3-3.3-1.4-3.4-3
	C71,47.9,71.5,47.1,72,46.8z"/>
<path class="st3" d="M12.9,98.7c1.1-0.2,2.2-0.9,4.3-2.4c1.5-1,2.8-1.9,4.2-3.2c2-1.8,3.2-3.5,5.5-6.9c2.1-3,4.7-5.6,6.3-8.8
	c0.1-0.3,0.6-1.2,1-1.2c0.3,0.1,0.5,0.6,0.6,1c0.4,1.2,0.2,2.3,0.2,2.6c-0.2,1.3-0.7,2.4-1.5,3.9c-0.4,0.9-0.7,1.3-0.6,1.4
	c0.1,0.1,0.7-0.4,1.8-1.6c2.4-2.4,2.7-2.8,3.5-3.4c1-0.8,1.9-1.2,3-1.7c2.5-1.2,2.7-0.6,7.7-2c1.4-0.4,2.8-0.8,3.3-0.2
	c0.2,0.4,0.1,1,0.1,1.1c-0.1,0.4-0.3,0.8-0.8,1.2c-0.9,0.8-1.8,1.1-2.1,1.2c-2.1,0.7-2.6,0.7-4,1.1c-0.9,0.3-1.8,0.7-2.8,1.2
	c0,0-1,0.6-2.5,1.9c-0.3,0.3-0.8,0.7-0.8,1.3c0,0.1,0,0.5,0.2,0.7c0.4,0.4,1.4-0.2,2.6-0.9c1-0.6,2-1.1,3.1-1.6
	c1.1-0.6,2.2-1,4.5-1.8c2.2-0.8,3.3-1.2,4.6-1.4c3.3-0.6,4.1,0.3,4.3,0.6c0.1,0.1,0.4,0.5,0.3,1c-0.1,0.7-1.2,1-2.4,1.4
	c0,0-1.4,0.4-4.2,1.5c-1.2,0.5-0.7,0.4-4.2,2.1c-2.3,1.1-3.4,1.6-4,1.8c0,0-0.8,0.2-1.7,0.7c-0.5,0.2-1.2,0.6-1.1,0.7
	c0.1,0.2,1.6,0,3-0.3c1.5-0.4,2.1-0.8,3.9-1.5c0.9-0.4,2.7-1.1,4.8-1.6c2.2-0.6,4-1,4.4-0.3c0.3,0.5,0,1.3-0.1,1.4
	c-0.3,0.5-0.6,0.6-2.3,1.4c-1.6,0.7-2.2,1-3.8,1.6c0,0,0,0-0.1,0c-1.7,0.6-3.2,1.6-4.9,2c-0.3,0.1-0.8,0.2-1.2,0.7
	c-0.2,0.2-0.5,0.6-0.4,0.8c0.1,0.2,0.8,0.1,2.8-0.7c1.9-0.7,3.6-1.5,4.8-2.1c2.8-1.3,3.4-1.5,3.6-1.2c0.5,0.5-0.8,2.5-0.9,2.6
	c-1.5,2.3-3.6,3.3-5.3,4c-5.8,2.6-5.8,2.2-8.2,3.4c-2.5,1.4-2.3,1.7-6.9,4.6c-2.5,1.5-3.7,2.3-5.1,2.8c-0.6,0.2-3.6,1.3-7.6,1
	c-1.8-0.1-4.1-0.3-6.7-1.8c-1.1-0.6-2.7-1.6-3.7-3.7c-0.1-0.3-1.4-2.8-0.4-3.9C11.4,98.8,11.9,98.9,12.9,98.7z"/>
<text transform="matrix(1 0 0 1 119.1533 66.873)" class="st4 st5">Fashion</text>
<text transform="matrix(1 0 0 1 119.1533 107.2705)" class="st4 st5">for rent</text>
</svg>
