<?xml version="1.0" encoding="utf-8"?>
<!-- Generator: Adobe Illustrator 23.0.0, SVG Export Plug-In . SVG Version: 6.00 Build 0)  -->
<svg version="1.1" id="Слой_1" xmlns="http://www.w3.org/2000/svg" xmlns:xlink="http://www.w3.org/1999/xlink" x="0px" y="0px"
	 viewBox="0 0 250 150" style="enable-background:new 0 0 250 150;" xml:space="preserve">
<style type="text/css">
	.st0{fill:#0F0F0F;stroke:#000000;stroke-width:2;stroke-miterlimit:10;}
	.st1{fill:#1E1E1E;stroke:#000000;stroke-width:2;stroke-miterlimit:10;}
	.st2{fill:none;stroke:#000000;stroke-width:2;stroke-miterlimit:10;}
	.st3{fill:#FFFFFF;stroke:#000000;stroke-width:2;stroke-miterlimit:10;}
	.st4{font-family:'StreetSoulCyrillic-Regular';}
	.st5{font-size:40px;}
</style>
<path class="st0" d="M30.08,110.81c-0.06,0.75,1.44,2.1,1.58,2.23c1.13,1,2.31,1.29,4.26,1.73c3.02,0.69,4.53,1.03,5,1.1
	c2.18,0.33,7.3,0.99,17.38,0.99c0,0,0,0,0,0c2.53,0,7.55-0.04,14.55-0.62c0.77-0.06,3.05-0.43,7.62-1.17
	c0.85-0.14,2.32-0.39,3.69-1.54c0.52-0.43,1.78-1.62,1.74-2.28C85.64,107.04,30.43,106.39,30.08,110.81z"/>
<path class="st1" d="M17.91,48.19c4.71-1.85,6.2-2.65,6.2-2.65c1.08-0.58,3.16-1.71,5.4-3.73c0.92-0.83,2.09-2.02,4.01-3.45
	c0.61-0.46,1.21-0.88,1.99-1.3c0.95-0.51,1.52-0.68,2.84-1.17c0.7-0.26,1.69-0.67,3.67-1.48c2.72-1.12,2.6-1.15,3.67-1.54
	c0.57-0.21,2.5-0.92,4.64-1.29c1.89-0.33,2.29-0.11,6.82-0.07c4.27,0.03,4.16-0.16,6.39,0c1.4,0.1,3.48,0.26,6.1,0.95
	c0.73,0.19,0.13,0.07,5.23,1.89c0,0,4.12,1.48,6.1,2.84c0.4,0.28,0.8,0.57,0.8,0.57c0.62,0.47,1.06,0.85,1.24,1
	c0.03,0.03,0.8,0.65,2.32,1.89c0.81,0.66,2.25,1.83,4.07,3.15c2.34,1.7,3.29,2.19,4.07,2.52c0.88,0.37,1.69,0.62,1.74,0.63
	c1.39,0.41,2.91,0.63,2.9,0.63c0,0,0,0,0,3.15c0,1.26,0,2.52,0,3.78c0,1.05,0,2.1,0,3.15c0,1.05,0,2.1,0,3.15c0,0.84,0,1.68,0,2.52
	c0,0.42,0,0.63,0,0.63c0,0-2.43,0.07-4.65,0c-0.44-0.01-0.23-0.01-4.36-0.32c-2.03-0.15-4.36-0.32-4.36-0.32c0,1.74,0,1.89,0,1.89
	c-0.03,1.32-0.2,1.57-0.29,2.84c-0.05,0.67-0.09,1.31,0,2.52c0.15,1.94,0.91,14.29,1.16,18.92c0.16,3.04,0.26,5.6,0.29,8.51
	c0,0.19,0,0.11,0,3.78c0,0.02,0,9.49,0,9.46c0,0-4.59-0.92-8.13-1.5c-3.46-0.57-6.06-0.85-8.49-1.11
	c-4.65-0.49-7.63-0.82-11.67-0.84c-4.95-0.03-8.7,0.37-10.93,0.62c-7.58,0.83-11.59,1.88-11.62,1.89l0,0
	c-3.22,0.92-4.99,0.5-4.99,0.5c0,0-0.08-2.06-0.08-2.24c-0.12-3.28-0.06-7.9-0.06-7.9c0.11-7.36,0.5-14.41,0.91-23.35
	c0.02-0.47,0.12-2.62,0.34-5.37c0.13-1.65,0.24-2.68,0.31-3.3c0.03-0.26,0.17-1.51,0.4-3.11c0.1-0.71,0.29-2.04,0.29-2.04
	c0,0-1.87,1.35-2.14,1.55c-0.54,0.38-1.64,1.13-5.26,2.93c-3.48,1.73-6.81,3.19-6.85,3.21c0,0-0.01-3.8-0.03-6.48
	c-0.05-6.89-0.2-6.77-0.14-10.61C17.81,51.86,17.92,48.19,17.91,48.19z"/>
<path class="st0" d="M46.62,33.05c-0.19,0.68,0.26,1.71,0.41,2.06c0.13,0.3,0.48,0.97,1.82,2.22c1.08,1.01,2.05,1.62,2.5,1.89
	c2.25,1.34,4.29,1.77,5.06,1.9c1.07,0.19,3.28,0.55,6.02-0.21c2.85-0.8,4.62-2.36,5.9-3.5c0.89-0.79,3.36-2.97,2.9-4.08
	c-0.23-0.56-1.12-0.63-1.46-0.65c-4.02-0.32-8.01-1.31-12.03-1.18C50.04,31.75,47,31.63,46.62,33.05z"/>
<path class="st2" d="M33.86,41.99c0.01,0.54,0.02,1.35-0.01,2.32c-0.04,1.18-0.11,1.87-0.22,3.08c-0.2,2.32-0.12,2.08-0.34,4.77
	c-0.09,1.05-0.17,1.95-0.34,3.76c-0.15,1.57-0.27,2.77-0.34,3.52c-0.11,1.11-0.25,2.48-0.42,4.07"/>
<path class="st2" d="M83.49,41.99c-0.01,0.54-0.02,1.35,0.01,2.32c0.03,1.18,0.07,1.87,0.14,3.08c0.13,2.32,0.08,2.08,0.22,4.77
	c0.06,1.05,0.11,1.95,0.22,3.76c0.1,1.57,0.17,2.77,0.22,3.52c0.07,1.11,0.16,2.48,0.27,4.07"/>
<path class="st3" d="M72.03,46.8c0.45-0.25,0.88-0.15,2.12,0.16c1.54,0.39,2.31,0.59,2.5,0.66c6.45,2.32,8.87,3.45,8.87,3.45
	c1.41,0.66,3.29,1.65,7.05,3.62c4.44,2.33,5.77,3.11,7.5,3.62c0.38,0.11,2.03,0.58,3.49,1.23c0.19,0.09,1.44,0.66,1.44,0.66
	c0,0-0.21,2.84-1.29,5.1c-0.19,0.4-1.13,2.29-3.18,3.7c-0.45,0.31-1.66,1.12-3.33,1.4c-2.34,0.39-4.27-0.49-6.9-1.73
	c-3.27-1.54-4.16-2.68-5.76-2.22c-1.32,0.38-2.19,1.58-2.35,1.81c-0.65,0.93-0.5,1.42-1.52,3.95c-0.55,1.38-0.84,1.84-1.14,2.22
	c-0.45,0.57-1.31,1.68-2.27,1.48c-0.76-0.15-1.16-1.03-1.21-1.15c-0.17-0.4-0.36-1.12,0.3-3.13c0.31-0.95,0.58-1.46,1.21-2.8
	c0.78-1.63,1.51-3.29,2.27-4.93c0,0-0.01,0.01-0.01,0.01c-0.17,0.34-1.62,2.62-2.65,4.56c-0.28,0.52-0.9,1.72-1.45,2.81
	c-0.58,1.15-0.74,1.48-1.13,1.67c-0.9,0.43-2.45-0.29-2.96-1.33c-1.42-2.84,4.24-9.27,4.38-9.16c0.03,0.03-0.4,0.31-4.12,5.83
	c-0.66,0.98-1.41,2.11-2.42,2.07c-0.6-0.02-1.21-0.46-1.55-1.03c-0.36-0.6-0.32-1.22-0.3-1.68c0.05-0.9,0.36-1.53,0.77-2.34
	c0.15-0.3,0.62-1.19,1.51-2.28c0.51-0.62,0.5-0.51,1.68-1.79c0.23-0.25,0.86-0.95,1.65-1.88c0.78-0.93,1.05-1.31,1.22-1.57
	c0.36-0.54,0.62-1.01,0.8-1.36c0,0-1.57,0.08-2.84,0.37c-0.33,0.08-1.41,0.33-2.42,0.89c-1.27,0.71-1.97,1.67-3.04,3.18
	c-1.46,2.05-2.04,3.56-3.33,4.85c-0.35,0.35-0.72,0.61-1.45,1.12c-0.77,0.54-1.05,0.66-1.35,0.59c-0.39-0.09-0.69-0.46-0.82-0.77
	c-0.42-0.99,0.54-2.24,2.13-4.81c1.94-3.13,1.44-2.79,2.19-3.71c0.61-0.75,2.36-2.9,5.14-3.78c1.12-0.35,1.46-0.2,5.3-1.07
	c0.95-0.21,1.89-0.44,1.89-0.74c0-0.3-0.93-0.36-2.2-0.9c-0.78-0.33-3.32-1.42-3.41-3.04C71.01,47.88,71.47,47.11,72.03,46.8z"/>
<path class="st3" d="M12.95,98.72c1.12-0.21,2.2-0.94,4.32-2.39c1.45-0.99,2.81-1.92,4.24-3.21c2.01-1.81,3.18-3.49,5.53-6.87
	c2.07-2.98,4.71-5.55,6.33-8.84c0.13-0.26,0.59-1.22,1.02-1.15c0.31,0.05,0.49,0.6,0.61,0.99c0.37,1.2,0.21,2.27,0.17,2.55
	c-0.21,1.33-0.73,2.39-1.46,3.87c-0.42,0.86-0.7,1.31-0.61,1.4c0.11,0.1,0.68-0.44,1.82-1.56c2.43-2.39,2.74-2.78,3.49-3.37
	c1.04-0.82,1.9-1.23,2.96-1.73c2.46-1.16,2.66-0.64,7.65-1.97c1.39-0.37,2.85-0.8,3.26-0.16c0.23,0.36,0.09,1.01,0.08,1.07
	c-0.1,0.43-0.33,0.77-0.76,1.15c-0.87,0.78-1.79,1.08-2.12,1.18c-2.12,0.66-2.61,0.65-4.04,1.11c-0.88,0.29-1.83,0.66-2.84,1.2
	c0,0-1.04,0.56-2.52,1.93c-0.32,0.3-0.76,0.73-0.78,1.34c0,0.12-0.02,0.51,0.2,0.71c0.41,0.38,1.36-0.21,2.61-0.89
	c1.01-0.56,2.05-1.05,3.07-1.57c1.1-0.57,2.22-0.97,4.46-1.79c2.19-0.79,3.3-1.2,4.6-1.42c3.3-0.56,4.11,0.29,4.32,0.56
	c0.09,0.11,0.42,0.53,0.34,0.99c-0.13,0.71-1.19,0.98-2.39,1.36c0,0-1.41,0.44-4.18,1.51c-1.22,0.47-0.65,0.37-4.23,2.1
	c-2.28,1.1-3.42,1.64-4.02,1.81c-0.04,0.01-0.77,0.21-1.67,0.66c-0.46,0.23-1.18,0.58-1.14,0.74c0.06,0.23,1.64,0,2.96-0.33
	c1.49-0.37,2.11-0.75,3.86-1.48c0.88-0.36,2.69-1.08,4.8-1.64c2.16-0.58,3.95-1.04,4.44-0.25c0.33,0.52-0.05,1.35-0.08,1.4
	c-0.26,0.53-0.61,0.63-2.35,1.4c-1.56,0.69-2.23,1.02-3.81,1.62c0,0-0.03,0.01-0.06,0.02c-1.65,0.63-3.22,1.55-4.93,1.97
	c-0.26,0.06-0.79,0.18-1.21,0.66c-0.17,0.19-0.49,0.62-0.38,0.82c0.12,0.23,0.77,0.12,2.8-0.66c1.92-0.74,3.63-1.53,4.77-2.06
	c2.77-1.27,3.4-1.53,3.64-1.23c0.45,0.54-0.81,2.49-0.91,2.63c-1.49,2.27-3.57,3.25-5.3,4.03c-5.81,2.62-5.78,2.15-8.18,3.45
	c-2.55,1.38-2.28,1.74-6.9,4.61c-2.46,1.53-3.71,2.3-5.08,2.8c-0.65,0.24-3.6,1.27-7.58,0.99c-1.8-0.13-4.13-0.32-6.67-1.81
	c-1.06-0.62-2.73-1.63-3.71-3.7c-0.15-0.31-1.35-2.83-0.45-3.95C11.38,98.78,11.95,98.91,12.95,98.72z"/>
<text transform="matrix(1 0 0 1 123.7393 65.3477)"><tspan x="0" y="0" class="st4 st5">Fashion</tspan><tspan x="0" y="48" class="st4 st5">for rent</tspan></text>
</svg>
