<svg width="172" height="172" viewBox="0 0 172 172" fill="none" xmlns="http://www.w3.org/2000/svg">
<g clip-path="url(#clip0_101_1288)">
<path d="M154.084 96.75V82.4166C154.084 74.5298 147.655 71.6666 143.333 71.6666H114.667C106.78 71.6666 103.917 78.0951 103.917 82.4166V96.75C96.012 96.75 89.5835 103.179 89.5835 111.083V157.667C89.5835 165.572 96.012 172 103.917 172H154.084C161.988 172 168.417 165.572 168.417 157.667V111.083C168.417 103.179 161.988 96.75 154.084 96.75ZM161.25 157.667C161.25 161.619 158.036 164.833 154.084 164.833H103.917C99.9643 164.833 96.7501 161.619 96.7501 157.667V111.083C96.7501 107.131 99.9643 103.917 103.917 103.917H107.5C109.482 103.917 111.083 102.311 111.083 100.333V82.4599C111.126 80.8044 111.779 78.8335 114.667 78.8335H143.291C144.946 78.8765 146.917 79.5322 146.917 82.4169V96.75H125.417C123.435 96.75 121.833 98.3555 121.833 100.333C121.833 102.311 123.435 103.917 125.417 103.917H150.5H154.084C158.036 103.917 161.25 107.131 161.25 111.083V157.667Z" fill="#43436D"/>
<path d="M154.083 0H17.9166C8.0373 0 0 8.0373 0 17.9166V154.083C0 163.963 8.0373 172 17.9166 172H78.8331C80.8148 172 82.4165 170.395 82.4165 168.417C82.4165 166.439 80.8148 164.833 78.8331 164.833H17.9166C11.9896 164.833 7.16655 160.01 7.16655 154.083V17.9166C7.16655 11.9896 11.9896 7.16655 17.9166 7.16655H154.062C155.861 7.18805 164.833 7.80081 164.833 17.9166C164.833 19.8946 166.435 21.5 168.417 21.5C170.398 21.5 172 19.8946 172 17.9166C172 3.7447 160.279 0 154.083 0Z" fill="#43436D"/>
<path d="M168.417 28.6666H21.4999C19.5183 28.6666 17.9165 30.272 17.9165 32.25C17.9165 34.228 19.5183 35.8335 21.4999 35.8335H164.833V82.4169C164.833 84.3949 166.435 86.0003 168.417 86.0003C170.399 86.0003 172 84.3946 172 82.4166V32.25C172 30.272 170.398 28.6666 168.417 28.6666Z" fill="#43436D"/>
<path d="M28.6665 14.3334H21.4999C19.5183 14.3334 17.9165 15.9389 17.9165 17.9169C17.9165 19.8949 19.5183 21.5 21.4999 21.5H28.6665C30.6482 21.5 32.2499 19.8945 32.2499 17.9165C32.2499 15.9385 30.6482 14.3334 28.6665 14.3334Z" fill="#43436D"/>
<path d="M50.1665 14.3334H42.9999C41.0183 14.3334 39.4165 15.9389 39.4165 17.9169C39.4165 19.8949 41.0183 21.5 42.9999 21.5H50.1665C52.1482 21.5 53.7499 19.8945 53.7499 17.9165C53.7499 15.9385 52.1482 14.3334 50.1665 14.3334Z" fill="#43436D"/>
<path d="M154.083 14.3334H146.917C144.935 14.3334 143.333 15.9389 143.333 17.9169C143.333 19.8949 144.935 21.5 146.917 21.5H154.083C156.065 21.5 157.667 19.8945 157.667 17.9165C157.667 15.9385 156.065 14.3334 154.083 14.3334Z" fill="#43436D"/>
<path d="M129 118.25C123.073 118.25 118.25 123.073 118.25 129C118.25 133.665 121.256 137.607 125.417 139.091V146.917C125.417 148.895 127.018 150.5 129 150.5C130.982 150.5 132.583 148.895 132.583 146.917V139.091C136.744 137.607 139.75 133.665 139.75 129C139.75 123.073 134.927 118.25 129 118.25ZM129 132.583C127.022 132.583 125.417 130.975 125.417 129C125.417 127.025 127.022 125.417 129 125.417C130.978 125.417 132.583 127.025 132.583 129C132.583 130.975 130.978 132.583 129 132.583Z" fill="#43436D"/>
</g>
<defs>
<clipPath id="clip0_101_1288">
<rect width="172" height="172" fill="white"/>
</clipPath>
</defs>
</svg>
