<svg width="391" height="293" viewBox="0 0 391 293" fill="none" xmlns="http://www.w3.org/2000/svg">
<path d="M113.608 102.233C113.6 101.592 113.997 100.814 114.784 99.2576C115.318 98.2008 115.67 97.6858 115.96 96.6404C116.246 95.6065 116.17 95.1487 116.059 94.8359C115.853 94.256 115.509 94.1377 114.982 93.4815C114.337 92.6765 114.093 91.9097 113.906 91.3146C113.707 90.6927 113.379 89.655 113.612 88.3388C113.699 87.8428 113.89 86.7517 114.788 85.8132C115.379 85.1913 116.063 84.867 117.239 84.4588C119.213 83.7721 121.111 83.1159 124.001 83.0167C126.537 82.929 127.843 82.8832 128.805 83.7378C129.473 84.3329 129.675 85.3058 130.08 87.2553C130.202 87.8543 130.179 87.8542 130.569 91.0437C130.806 92.9589 130.897 93.6456 130.863 94.7443C130.829 95.8011 130.813 96.3314 130.569 96.9991C130.336 97.6362 130.118 97.8269 128.805 99.704C127.743 101.222 127.797 101.226 127.629 101.329C126.029 102.283 123.635 100.505 122.825 101.329C122.673 101.486 122.657 101.882 122.63 102.684C122.588 103.87 122.821 104.202 122.63 104.938C122.558 105.209 122.413 105.778 121.943 106.201C120.943 107.105 119.167 106.75 118.22 106.564C117.453 106.411 116.258 106.171 115.181 105.209C114.902 104.965 113.623 103.824 113.608 102.233Z" fill="white" stroke="black" stroke-miterlimit="10"/>
<path d="M115.066 101.959C115.139 101.283 114.516 100.2 115.154 99.1583C115.444 98.6776 115.719 98.6776 116.292 97.9336C116.681 97.4301 117.12 96.8578 117.254 96.0948C117.411 95.1906 117.067 94.4314 116.555 93.2945C116.078 92.2377 115.891 92.272 115.681 91.5433C115.433 90.6964 115.288 89.2886 115.944 88.8308C116.277 88.6019 116.662 88.7163 117.258 88.8308C117.258 88.8308 118.93 89.1513 121.462 89.0063C122.607 88.9414 123.566 88.8842 124.612 88.3081C125.75 87.6825 126.613 86.6447 126.976 86.2098C127.8 85.2217 128.148 84.4587 128.465 84.5464C128.663 84.6037 128.675 84.9432 128.904 85.9466C129.129 86.9461 129.198 86.95 129.343 87.61C129.538 88.4913 129.519 88.9376 129.607 90.6735C129.729 93.1075 129.794 92.8023 129.782 93.6493C129.763 95.0647 129.752 95.9154 129.343 96.9722C129.125 97.5331 128.663 98.6967 127.503 99.5093C127.002 99.8603 126.54 100.028 126.277 100.124C124.719 100.677 124.1 100.143 123.386 100.65C122.764 101.089 122.669 101.894 122.512 103.187C122.39 104.198 122.207 105.709 122.863 106.075C123.448 106.399 123.971 105.404 125.754 104.938C127.724 104.423 129.618 104.976 129.782 105.026C130.874 105.358 131.13 105.732 131.447 105.552C132.176 105.129 130.962 102.992 131.184 99.6924C131.287 98.1664 131.661 96.8959 131.97 95.843C132.592 93.7332 132.997 93.4929 133.284 91.818C133.486 90.6315 133.322 90.5323 133.547 88.4073C133.757 86.4387 133.906 86.4387 133.986 85.3438C134.07 84.1916 134.223 82.0285 133.112 79.9187C132.295 78.3698 131.142 77.5152 130.133 76.7713C129.477 76.2829 127.984 75.2757 125.842 74.6729C124.803 74.3792 120.557 73.1812 116.3 75.4589C113.634 76.8857 112.267 78.9764 111.836 79.6593C110.816 81.2578 110.457 82.6809 109.736 85.5193C108.945 88.6248 109.27 88.7659 108.598 91.0321C107.983 93.0999 107.334 95.2898 105.62 97.3309C104.295 98.9141 103.68 98.7958 100.366 101.703C98.3074 103.511 97.2765 104.415 97.3872 104.85C97.9982 107.242 114.723 105.148 115.066 101.959Z" fill="black"/>
<path d="M95.6843 136.584C95.4629 135.97 95.986 135.627 96.9673 133.551C97.33 132.788 97.1315 133.105 98.4832 129.702C99.3805 127.443 99.327 127.657 99.6516 126.787C100.236 125.204 100.629 123.911 100.935 122.587C101.263 121.168 101.427 120.462 101.286 120.138C100.358 118.032 93.485 117.601 90.7777 120.721C90.4952 121.046 90.0026 122.263 89.0251 124.685C88.0552 127.093 87.5703 128.298 87.0396 129.816C86.0392 132.693 86.3599 132.312 84.9395 136.932C84.0116 139.946 83.729 140.587 84.004 141.716" fill="white"/>
<path d="M95.6843 136.584C95.4629 135.97 95.986 135.627 96.9673 133.551C97.33 132.788 97.1315 133.105 98.4832 129.702C99.3805 127.443 99.327 127.657 99.6516 126.787C100.236 125.204 100.629 123.911 100.935 122.587C101.263 121.168 101.427 120.462 101.286 120.138C100.358 118.032 93.485 117.601 90.7777 120.721C90.4952 121.046 90.0026 122.263 89.0251 124.685C88.0552 127.093 87.5703 128.298 87.0396 129.816C86.0392 132.693 86.3599 132.312 84.9395 136.932C84.0116 139.946 83.729 140.587 84.004 141.716" stroke="black" stroke-miterlimit="10"/>
<path d="M177.141 87.7322H153.372V108.33H177.141V87.7322Z" fill="#FF6FAE"/>
<path d="M145.941 123.251C146.285 123.522 146.949 124.353 147.457 125.235C147.961 126.108 148.053 126.585 148.393 126.635C148.916 126.711 149.443 125.685 150.027 124.651C150.027 124.651 151.035 122.869 152.83 120.336C153.013 120.077 153.131 119.981 154.006 118.924C154.33 118.531 154.8 117.967 155.342 117.303C155.915 116.597 156.511 115.861 156.801 115.495C157.435 114.693 158.389 113.427 159.604 111.588C160.382 110.077 160.596 109.371 161.471 108.788C162.158 108.33 163.059 108.25 164.858 108.09C166.778 107.918 167.63 108.048 169.295 107.624C170.199 107.395 170.593 107.193 170.929 106.926C171.334 106.602 171.456 106.342 172.33 104.828C173.472 102.851 173.296 103.244 173.499 102.844C174.06 101.718 174.121 101.253 174.667 100.978C174.667 100.978 174.743 100.94 175.835 100.627C175.839 100.635 176.336 101.138 176.42 101.795C176.435 101.905 176.431 101.989 176.431 102.035C176.416 102.684 176 103.157 175.721 103.546C175.182 104.286 174.824 105.121 174.904 105.179C174.999 105.247 176.015 104.446 176.714 103.195C177.031 102.63 177.164 102.176 177.649 101.97C177.951 101.84 178.417 101.795 178.699 102.027C179.18 102.42 178.924 103.412 178.718 104.21C178.535 104.915 178.21 105.751 177.588 106.693C176.939 107.678 176.79 107.548 176.072 108.559C175.167 109.833 175.347 110.146 174.556 111.126C174.262 111.489 173.674 112.206 172.689 112.759C171.975 113.16 171.395 113.286 170.295 113.518C168.81 113.831 168.477 113.702 166.851 114.045C165.293 114.373 164.888 114.64 164.632 114.861C164.262 115.182 164.082 115.502 163.582 116.612C163.006 117.887 162.654 118.757 162.181 119.878C161.623 121.202 161.326 121.866 160.898 122.678C160.703 123.045 160.684 123.045 160.367 123.636C159.92 124.472 159.657 125.04 158.798 126.642C158.324 127.52 157.901 128.279 157.045 129.79C155.671 132.235 154.98 133.456 154.185 134.746C152.952 136.745 152.337 137.744 151.558 138.652C150.775 139.564 150.375 139.85 149.691 140.869C149.092 141.765 149.015 142.124 148.523 142.384C147.465 142.948 146.071 142.231 145.72 142.033C145.128 141.701 144.926 141.392 143.62 139.816C142.463 138.42 142.959 139.064 141.753 137.599C139.798 135.223 139.954 135.295 139.183 134.452C137.9 133.044 137.629 133.025 137.197 132.235C136.59 131.129 136.449 129.935 136.499 129.202C136.754 125.01 144.055 121.751 145.941 123.251Z" fill="white" stroke="black" stroke-miterlimit="10"/>
<path d="M104.749 245.17H60.0972V284.237H104.749V245.17Z" fill="white" stroke="black" stroke-miterlimit="10"/>
<path d="M85.8596 263.25C85.6801 263.002 85.1379 262.326 84.2253 262.109C83.1829 261.861 82.068 262.307 81.3081 263.25C81.3081 257.287 81.3081 251.324 81.3081 245.365H85.8596V263.25Z" fill="#FF78B6"/>
<path d="M102.802 275.309H88.624V279.899H102.802V275.309Z" fill="black"/>
<path d="M96.2417 268.232C95.9401 268.37 95.4093 268.614 94.8748 268.858C94.9015 269.041 94.932 269.22 94.932 269.22L96.6617 280.517L104.176 278.777L103.955 266.054C103.955 266.054 103.943 265.379 103.932 264.703C103.47 264.917 103.008 265.127 103.008 265.127L96.4861 268.118C96.4899 268.118 96.3983 268.16 96.2417 268.232Z" fill="white" stroke="black" stroke-miterlimit="10"/>
<path d="M137.606 273.127C137.304 273.203 136.77 273.333 136.235 273.467C136.262 273.562 136.289 273.657 136.289 273.657L137.927 279.559L145.457 278.586L145.342 271.925C145.342 271.925 145.334 271.57 145.331 271.219C144.869 271.334 144.403 271.448 144.403 271.448L137.858 273.07C137.854 273.062 137.759 273.085 137.606 273.127Z" fill="white" stroke="black" stroke-miterlimit="10"/>
<path d="M267.778 270.922C267.457 270.91 267.132 270.895 266.815 270.88C266.617 270.815 266.414 270.88 266.334 271.01C266.227 271.181 266.315 271.487 266.598 271.601C266.636 273.684 266.674 275.767 266.712 277.85C269.717 278.007 272.722 278.159 275.724 278.316C275.605 276.297 275.491 274.275 275.372 272.257C275.3 271.906 275.227 271.559 275.155 271.208C274.796 271.128 274.441 271.048 274.082 270.968C272.039 271.017 269.939 271.01 267.778 270.922Z" fill="white" stroke="black" stroke-miterlimit="10"/>
<path d="M218.929 271.548C218.62 271.544 218.07 271.536 217.517 271.529C217.517 271.628 217.52 271.727 217.52 271.727L217.608 277.85L225.138 278.812L226.715 272.337C226.715 272.337 226.799 271.994 226.883 271.651C226.406 271.643 225.928 271.639 225.928 271.639L219.185 271.551C219.181 271.548 219.086 271.548 218.929 271.548Z" fill="white" stroke="black" stroke-miterlimit="10"/>
<path d="M238.999 150.7C238.949 149.304 237.964 149.232 236.78 146.618C235.94 144.764 236.269 144.428 235.379 142.887C234.772 141.834 233.951 140.384 232.633 140.098C232.427 140.053 232.549 140.114 230.72 140.011C230.274 139.988 230.129 139.976 229.823 139.969C228.911 139.946 228.716 140.007 228.334 139.969C227.609 139.9 227.085 139.56 226.738 139.335C225.764 138.706 225.764 138.126 224.405 136.34C223.378 134.99 222.954 134.765 222.542 134.727C222.053 134.681 221.446 134.891 221.259 135.31C221.003 135.879 221.61 136.634 222.278 137.477C224.504 140.293 225.753 141.872 225.577 142.075C225.409 142.269 223.821 141.331 222.568 140.247C222.026 139.778 221.816 139.515 221.052 138.904C219.628 137.771 219.12 137.699 218.922 137.68C218.139 137.611 217.127 137.95 216.967 138.553C216.898 138.813 216.959 139.217 218.192 140.392C218.987 141.147 219.777 141.773 221.518 142.929C223.019 143.925 223.569 144.264 224.233 144.592C225.253 145.096 225.776 145.352 226.452 145.352C226.933 145.352 227.295 145.241 227.967 145.382C228.357 145.462 228.758 145.554 229.075 145.878C229.296 146.103 229.281 146.244 229.628 146.752C229.85 147.076 230.01 147.252 230.155 147.423C230.636 148.007 230.896 148.587 231.324 149.552C231.522 150.002 231.755 150.521 231.965 151.242C232.095 151.689 232.263 152.352 232.45 153.115C232.504 153.329 232.542 153.44 232.58 153.627C232.725 154.355 232.706 154.725 233.046 155.027C233.882 155.767 235.635 155.004 235.849 154.909C237.342 154.249 239.064 152.581 238.999 150.7Z" fill="#FCFCFC" stroke="black" stroke-miterlimit="10"/>
<path d="M298.084 159.494C300.051 159.193 300.959 159.384 304.037 159.494C305.625 159.551 304.61 159.475 311.158 159.494C318.444 159.517 317.749 159.609 318.432 159.54C318.971 159.487 322.865 159.094 326.103 159.494C326.435 159.536 327.092 159.628 327.737 160.078C328.02 160.276 328.952 161.001 329.372 163.225C329.704 164.992 329.475 166.415 329.139 168.124C328.524 171.249 327.894 173.606 327.737 174.19C327.737 174.19 326.955 177.135 325.985 181.538C325.095 185.582 325.13 186.337 324.232 190.87C323.48 194.681 323.381 194.521 322.365 199.267C320.895 206.115 320.162 209.541 319.562 214.081C319.196 216.858 318.508 219.582 318.161 222.363C317.871 224.691 317.749 226.392 316.408 227.846C315.232 229.12 313.709 229.585 312.789 229.829C310.536 230.421 308.772 230.192 307.302 230.062C304.51 229.814 301.696 230.093 298.897 230.062C295.335 230.024 291.864 229.99 287.923 230.062C280.707 230.2 277.098 230.264 276.717 230.295C276.319 230.325 273.017 230.585 269.244 229.597C268.049 229.284 266.697 228.815 265.976 227.613C265.376 226.621 265.468 225.564 265.51 225.045C266.048 218.087 264.509 216.572 265.976 214.897C267.919 212.681 270.764 215.168 276.132 212.566C277.19 212.055 279.237 211.029 280.802 208.835C281.764 207.484 282.123 206.275 282.788 204.051C283.559 201.457 283.452 200.709 284.189 197.401C284.75 194.887 284.811 195.31 285.823 191.335C286.747 187.703 287.209 185.887 287.458 183.869C287.702 181.874 287.641 181.072 288.042 178.738C288.16 178.039 288.34 177.109 288.508 175.705C288.679 174.274 288.725 173.351 288.741 173.023C288.794 171.79 288.737 171.321 288.741 170.455C288.744 169.295 288.756 167.449 289.439 165.438C289.817 164.336 290.302 162.905 291.658 161.821C292.215 161.375 292.7 161.169 293.643 160.772C294.499 160.421 295.965 159.818 298.084 159.494Z" fill="#FCFCFC" stroke="black" stroke-miterlimit="10"/>
<path d="M267.335 200.663C265.147 197.672 255.746 199.137 251.55 200.892C250.923 201.155 249.22 201.792 246.823 202.467C244.871 203.013 244.379 202.807 241.045 203.166C236.555 203.654 234.31 203.898 232.114 205.088C229.858 206.317 228.533 207.946 227.738 208.938C226.062 211.029 225.211 213.112 224.061 216.9C222.5 222.05 221.682 226.083 221.522 226.873C220.842 230.207 219.846 234.228 217.845 242.27C215.218 252.838 213.469 259.591 213.469 259.591C212.679 262.643 212.728 265.909 211.629 268.866C211.251 269.884 210.682 271.219 211.277 271.929C211.888 272.654 213.183 272.082 215.829 271.754C218.345 271.445 220.422 271.559 223.886 271.754C227.49 271.956 227.925 272.295 228.701 271.754C230.194 270.716 229.739 268.656 230.625 264.23C231.087 261.918 231.267 262.204 232.29 258.458C233.069 255.593 233.16 254.712 235.093 244.811C235.455 242.953 235.058 244.998 236.582 237.376C236.582 237.376 237.261 233.973 238.159 230.291C238.663 228.216 238.403 229.52 238.945 227.403C239.369 225.755 239.411 225.412 239.732 225.041C240.03 224.698 240.935 223.901 243.585 224.343C245.425 224.652 246.383 224.297 246.998 224.343C251.821 224.69 271.222 205.977 267.335 200.663Z" fill="white" stroke="black" stroke-miterlimit="10"/>
<path d="M294.945 234.049H289.428V279.975H294.945V234.049Z" fill="white" stroke="black" stroke-miterlimit="10"/>
<path d="M302.823 277H281.459V284.698H302.823V277Z" fill="#020202"/>
<path d="M299.844 229.849H284.785V236.06H299.844V229.849Z" fill="#020202"/>
<path d="M264.65 200.438C264.284 200.701 263.089 201.602 261.264 202.422C259.114 203.387 258.152 203.315 255.895 203.936C251.114 205.26 251.58 206.66 247.605 207.435C245.845 207.778 244.551 207.74 242.702 208.717C240.912 209.667 240.285 210.678 240.133 210.933C239.514 211.99 239.472 212.986 239.434 214.432C239.377 216.469 239.728 218.049 239.9 218.747C240.511 221.242 241.336 222.768 242.118 224.462C243.81 228.132 243.386 228.456 245.268 233.328C246.861 237.452 247.59 237.693 248.77 241.141C249.679 243.797 249.385 243.858 250.286 246.975C251.565 251.396 252.329 251.877 255.421 260.038C256.395 262.605 256.907 264.104 257.289 265.287C258.178 268.038 258.625 269.415 258.69 269.835C258.843 270.827 258.824 271.372 259.274 271.819C260.068 272.608 261.409 272.181 263.241 271.937C264.803 271.727 266.968 271.834 271.298 272.055C274.204 272.2 275.575 272.429 275.968 271.704C276.247 271.189 275.85 270.533 275.384 269.606C274.49 267.824 274.07 265.837 273.284 264.005C272.535 262.269 271.89 260.362 270.599 256.539C268.77 251.129 269.171 250.942 267.682 246.391C266.132 241.664 265.364 240.844 262.547 233.328C258.9 223.603 260.691 226.327 260.213 225.515C260.091 225.309 259.732 224.717 259.954 224.282C260.378 223.458 262.585 223.825 263.833 223.996C266.804 224.412 269.828 224.195 272.822 224.347C276.14 224.515 280 224.687 284.613 223.649C289.279 222.6 290.631 221.23 291.268 220.383C292.437 218.831 292.731 217.011 292.902 215.95C293.097 214.748 292.956 213.306 292.67 210.468C292.177 205.623 291.662 203.872 291.154 202.536C290.837 201.705 290.68 201.293 290.455 200.903C286.946 194.902 270.065 196.57 264.65 200.438Z" fill="white" stroke="black" stroke-miterlimit="10"/>
<path d="M254.215 197.989H248.697V279.975H254.215V197.989Z" fill="white" stroke="black" stroke-miterlimit="10"/>
<path d="M285.113 54.884H261.298C257.797 54.884 255.066 57.9285 255.444 61.404L257.125 76.7751C257.453 79.7623 259.969 82.0171 262.978 82.0171C264.005 82.0171 272.02 82.0171 273.475 82.0171L278.362 86.9805C279.733 88.373 282.116 87.6443 282.467 85.7177L283.139 82.0171C286.705 82.0171 288.973 79.5945 289.283 76.7751L290.963 61.404C291.348 57.9247 288.615 54.884 285.113 54.884ZM288.92 61.179L287.24 76.55C287.026 78.4957 285.392 79.9607 283.433 79.9607H282.284C281.787 79.9607 281.36 80.3155 281.272 80.8039L280.443 85.3476C280.39 85.6376 280.038 85.7444 279.832 85.5346L276.289 81.9369C277.331 81.5135 277.03 79.9569 275.903 79.9569C274.395 79.9569 264.272 79.9569 262.982 79.9569C261.023 79.9569 259.389 78.4919 259.175 76.5462L257.495 61.1751C257.247 58.9128 259.026 56.9327 261.302 56.9327H285.117C287.393 56.9404 289.168 58.9204 288.92 61.179Z" fill="black"/>
<path d="M266.953 70.77C267.877 70.77 268.625 70.0219 268.625 69.099C268.625 68.1761 267.877 67.428 266.953 67.428C266.029 67.428 265.281 68.1761 265.281 69.099C265.281 70.0219 266.029 70.77 266.953 70.77Z" fill="black"/>
<path d="M273.207 70.77C274.131 70.77 274.88 70.0219 274.88 69.099C274.88 68.1761 274.131 67.428 273.207 67.428C272.284 67.428 271.535 68.1761 271.535 69.099C271.535 70.0219 272.284 70.77 273.207 70.77Z" fill="black"/>
<path d="M279.462 70.77C280.386 70.77 281.134 70.0219 281.134 69.099C281.134 68.1761 280.386 67.428 279.462 67.428C278.538 67.428 277.79 68.1761 277.79 69.099C277.79 70.0219 278.538 70.77 279.462 70.77Z" fill="black"/>
<path d="M131.917 17.042H108.101C104.6 17.042 101.87 20.0864 102.248 23.562L103.928 38.9331C104.256 41.9203 106.773 44.175 109.782 44.175C110.809 44.175 118.823 44.175 120.278 44.175L125.166 49.1385C126.536 50.531 128.919 49.8023 129.27 47.8757L129.942 44.175C133.509 44.175 135.777 41.7524 136.086 38.9331L137.766 23.562C138.148 20.0864 135.418 17.042 131.917 17.042ZM135.723 23.3407L134.043 38.7118C133.83 40.6575 132.195 42.1225 130.236 42.1225H129.087C128.591 42.1225 128.163 42.4773 128.075 42.9656L127.247 47.5094C127.193 47.7994 126.842 47.9062 126.636 47.6964L123.092 44.0987C124.135 43.6752 123.833 42.1187 122.707 42.1187C121.198 42.1187 111.076 42.1187 109.785 42.1187C107.827 42.1187 106.192 40.6537 105.978 38.708L104.298 23.3369C104.05 21.0746 105.83 19.0945 108.105 19.0945H131.92C134.192 19.0983 135.968 21.0784 135.723 23.3407Z" fill="black"/>
<path d="M113.753 32.9319C114.676 32.9319 115.425 32.1837 115.425 31.2609C115.425 30.338 114.676 29.5898 113.753 29.5898C112.829 29.5898 112.08 30.338 112.08 31.2609C112.08 32.1837 112.829 32.9319 113.753 32.9319Z" fill="black"/>
<path d="M120.007 32.9319C120.931 32.9319 121.68 32.1837 121.68 31.2609C121.68 30.338 120.931 29.5898 120.007 29.5898C119.083 29.5898 118.335 30.338 118.335 31.2609C118.335 32.1837 119.083 32.9319 120.007 32.9319Z" fill="black"/>
<path d="M126.262 32.9319C127.185 32.9319 127.934 32.1837 127.934 31.2609C127.934 30.338 127.185 29.5898 126.262 29.5898C125.338 29.5898 124.589 30.338 124.589 31.2609C124.589 32.1837 125.338 32.9319 126.262 32.9319Z" fill="black"/>
<path d="M255.773 191.56H238.957V194.242H255.773V191.56Z" fill="black"/>
<path d="M198.18 170.329C200.433 178.299 202.682 186.272 204.935 194.242C205.065 194.242 205.195 194.242 205.195 194.242C205.195 194.242 236.521 194.242 239.72 194.242C237.231 186.475 234.737 178.711 232.248 170.943C232.248 170.943 231.965 170.047 231.583 168.845C228.869 168.834 198.86 168.731 198.86 168.731C198.86 168.731 198.295 168.727 197.726 168.727C197.825 169.078 197.925 169.429 197.925 169.429C198.009 169.73 198.093 170.032 198.18 170.329Z" fill="#FF71B2" stroke="black" stroke-miterlimit="10"/>
<path d="M217.219 184.677C218.398 184.489 219.16 183.125 218.921 181.631C218.682 180.137 217.533 179.079 216.355 179.267C215.176 179.455 214.414 180.818 214.653 182.312C214.892 183.806 216.041 184.865 217.219 184.677Z" fill="black"/>
<path d="M232.22 168.773L231.848 168.888L239.715 194.234L240.087 194.119L232.22 168.773Z" fill="black" stroke="black" stroke-miterlimit="10"/>
<path d="M232.347 168.509H197.604V168.784H232.347V168.509Z" fill="black"/>
<path d="M269.084 141.96C268.553 141.395 267.717 141.59 265.231 141.842C261.955 142.177 262.165 141.964 261.496 142.193C260.133 142.658 259.267 143.539 257.411 145.924C255.712 148.11 254.673 149.64 253.444 151.406C248.319 158.754 249.69 156.091 248.422 158.17C247.414 159.83 246.693 161.272 245.505 161.318C244.684 161.348 244.05 160.696 243.52 160.15C242.588 159.193 242.05 158.052 240.877 154.275C240.19 152.055 240.056 151.414 239.434 151.17C238.762 150.906 238.369 151.433 236.196 152.394C233.718 153.489 232.58 153.535 232.168 154.58C232.026 154.943 232.034 155.267 232.126 155.935C232.462 158.456 233.199 160.402 233.367 160.849C234.298 163.328 233.848 162.63 235.001 165.747C236.223 169.051 236.181 168.49 237.334 171.58C238.159 173.782 238.659 175.342 240.018 177.181C240.625 178.001 241.061 178.413 241.652 178.696C243.523 179.588 245.624 178.524 245.971 178.345C246.918 177.864 247.055 177.49 249.24 175.079C250.656 173.515 250.305 174.037 252.859 171.348C253.879 170.272 255.078 169.356 255.983 168.185C256.605 167.376 257.163 166.506 257.88 166.567C258.415 166.613 258.77 167.151 258.873 167.311C259.522 168.299 259.194 169.429 259.003 170.722C258.965 170.989 258.976 172.565 259.003 175.708C259.015 176.944 259.064 178.074 259.163 180.328C259.423 186.208 259.576 186.127 259.515 188.142C259.45 190.293 259.247 190.755 259.282 193.04C259.32 195.635 259.339 196.936 259.748 197.474C261.535 199.827 266.479 195.36 274.223 196.539C276.949 196.955 282.024 198.378 285.548 197.706C286.106 197.599 287.095 197.351 287.648 196.539C288.336 195.532 287.965 194.231 287.767 193.273C287.335 191.205 287.942 191.93 287.767 186.391C287.61 181.477 287.144 181.206 287.068 176.944C287.026 174.51 286.95 170.367 287.885 170.18C288.34 170.089 288.477 171.035 290.455 173.564C291.49 174.888 292.234 176.414 293.196 177.791C293.326 177.978 293.643 178.425 293.487 178.753C293.239 179.275 291.933 179.176 291.734 179.161C290.806 179.089 290.455 178.738 290.218 178.928C289.905 179.18 290.421 179.848 290.485 181.027C290.573 182.576 289.768 182.904 289.985 184.411C290.081 185.078 290.249 185.074 290.314 185.815C290.333 186.036 290.348 186.379 290.218 187.909C290.138 188.855 290.104 188.996 290.218 189.191C290.516 189.706 291.238 189.828 291.971 189.889C293.678 190.038 294.56 189.794 296.289 189.656C296.763 189.618 298.206 189.515 300.024 189.599C301.051 189.645 301.364 189.714 302.826 189.775C304.132 189.828 304.797 189.855 305.511 189.775C306.943 189.614 307.932 189.508 308.428 188.84C308.894 188.218 308.711 187.398 307.962 184.933C307.153 182.27 306.752 180.939 306.328 179.859C304.942 176.311 303.995 174.259 303.995 174.259C300.7 166.182 300.092 166.243 297.691 160.028C297.683 160.009 296.144 156.03 293.838 151.162C293.07 149.541 292.345 148.098 290.802 146.847C289.531 145.817 288.244 145.352 286.251 144.631C286.052 144.558 286.19 144.611 281.699 143.463C280.191 143.078 279.42 142.879 278.549 143.23C278.4 143.291 278.259 143.36 276.915 144.398C275.178 145.733 275.254 145.737 274.929 145.912C273.639 146.622 272.386 146.622 271.779 146.611C270.893 146.599 269.668 146.584 269.328 145.912C269.095 145.447 269.511 145.13 269.561 144.047C269.572 143.581 269.622 142.528 269.084 141.96Z" fill="#FF73B2" stroke="black" stroke-miterlimit="10"/>
<path d="M306.675 194.246H196.394V200.667H306.675V194.246Z" fill="white" stroke="#0A0A0A" stroke-miterlimit="10"/>
<path d="M288.091 186.757C283.674 186.654 283.494 186.425 281.929 186.498C279.943 186.589 279.313 186.951 278.412 186.398C277.549 185.872 277.683 185.265 276.663 184.682C276.178 184.403 275.827 184.384 273.727 184.147C272.749 184.037 271.989 183.949 271.604 183.907C271.229 183.407 270.859 182.907 270.485 182.408C270.405 182.011 270.267 181.408 270.053 180.683C269.695 179.474 269.542 179.356 269.622 178.959C269.771 178.245 270.47 177.7 271.245 177.089C271.886 176.582 272.008 176.632 272.753 176.105C273.742 175.403 275.033 174.51 274.872 173.847C274.781 173.465 274.235 173.286 273.994 173.21C273.883 173.171 273.479 173.053 272.463 173.274C271.734 173.435 271.585 173.56 270.703 173.797C269.939 173.999 269.553 174.095 269.351 173.892C269.08 173.625 269.259 173.003 269.439 172.66C269.63 172.298 269.889 172.092 270.26 171.855C270.68 171.584 271.126 171.298 271.829 171.107C272.302 170.978 272.822 170.97 273.837 170.962C274.983 170.951 275.552 170.947 276.06 171.065C276.422 171.149 277.152 171.329 277.873 171.855C278.706 172.466 279.057 173.198 279.534 174.19C279.905 174.961 280.382 176.082 280.256 177.231C280.241 177.364 280.187 177.788 280.29 178.326C280.355 178.661 280.439 179.077 280.76 179.386C280.928 179.55 281.184 179.707 281.757 179.798C282.585 179.932 283.143 179.783 283.769 179.699C284.162 179.646 284.88 179.676 286.316 179.733C287.362 179.775 288.179 179.844 288.966 179.939C289.737 180.031 290.123 180.081 290.211 180.157C291.165 181.011 289.317 183.445 290.199 185.509C290.272 185.673 290.417 185.975 290.295 186.25C290.05 186.791 288.92 186.776 288.091 186.757Z" fill="white" stroke="#020202" stroke-miterlimit="10"/>
<path d="M269.721 140.915C270.378 139.053 270.088 138.542 269.95 138.359C269.79 138.145 269.618 138.084 268.205 137.649C266.422 137.1 266.243 137.065 265.93 136.833C265.166 136.268 264.853 135.471 264.704 135.081C264.353 134.181 264.383 133.41 264.414 132.865C264.444 132.285 264.517 132.296 264.998 130.183C265.265 129.004 265.284 128.809 265.464 128.317C265.651 127.806 265.865 127.405 266.281 126.627C267.201 124.91 267.308 124.994 267.564 124.296C267.824 123.586 267.694 123.56 268.091 122.137C268.366 121.152 268.507 120.656 268.732 120.447C269.408 119.817 270.588 120.057 271.825 120.328C273.54 120.702 274.754 121.362 275.094 121.553C277.072 122.659 278.152 123.976 279.47 125.578C280.569 126.913 280.714 127.39 280.753 127.795C280.871 128.996 280.119 130.011 279.47 130.885C278.164 132.64 277.175 132.743 276.9 134.032C276.789 134.563 276.885 135.028 277.075 135.955C277.339 137.241 277.725 137.866 278.244 139.164C278.931 140.877 279.271 141.735 279.237 142.311C279.076 144.871 275.262 146.599 273.165 147.152C272.062 147.446 270.68 147.786 269.431 147.034C269.217 146.904 268.163 146.271 267.972 145.169C267.759 143.955 268.82 143.475 269.721 140.915Z" fill="#FCFCFC" stroke="black" stroke-miterlimit="10"/>
<path d="M268.327 120.386C268.114 119.951 268.369 119.703 268.095 119.104C267.801 118.463 267.392 118.478 267.044 117.936C266.594 117.231 266.762 116.376 266.926 115.544C267.109 114.629 267.258 113.881 267.862 113.328C268.912 112.37 270.943 112.366 272.237 112.744C272.638 112.862 273.085 113.049 273.582 112.862C274.189 112.633 274.158 112.107 274.75 111.813C275.441 111.47 276.342 111.771 276.85 112.103C277.274 112.382 277.541 112.813 278.076 113.679C278.732 114.747 278.671 114.938 279.011 115.136C279.657 115.518 280.119 114.961 281.287 115.079C281.466 115.098 282.78 115.247 283.62 116.246C284.162 116.887 284.254 117.582 284.38 118.52C284.41 118.757 284.559 119.947 284.261 121.61C283.994 123.098 283.651 123.419 283.91 124.06C284.197 124.765 284.754 124.723 285.136 125.517C285.449 126.162 285.361 126.776 285.254 127.558C285.033 129.145 284.315 130.255 284.086 130.591C283.33 131.697 282.474 132.277 281.692 132.808C280.607 133.544 279.721 133.864 278.774 134.208C277.526 134.658 276.823 134.902 276.441 134.559C276.056 134.215 276.06 133.433 276.323 132.926C276.457 132.67 276.587 132.617 277.198 132.109C277.862 131.56 278.194 131.285 278.423 131.003C278.572 130.82 279.095 130.156 279.183 129.195C279.217 128.787 279.305 127.821 278.717 127.444C278.228 127.131 277.499 127.371 277.083 127.676C276.331 128.23 276.033 129.427 276.033 129.427C276.033 129.427 275.54 128.237 275.391 127.329C275.097 125.544 276.14 124.891 275.624 123.888C275.437 123.526 274.937 123.258 273.933 122.721C273.234 122.347 272.321 121.862 270.954 121.439C269.343 120.935 268.625 120.996 268.327 120.386Z" fill="#632E47" stroke="black" stroke-miterlimit="10"/>
<path d="M209.502 281.795C212.633 279.758 217.448 276.625 217.448 276.625C217.7 277.064 218.147 277.678 218.891 277.984C219.331 278.163 219.594 278.125 221.083 278.094C223.103 278.056 223.115 278.121 223.622 278.018C224.264 277.888 225.276 277.579 226.402 276.694C226.444 276.923 226.49 277.167 226.49 277.167L227.742 283.935L206.73 284.294C206.73 284.294 206.184 284.301 205.634 284.313C206.256 283.909 206.879 283.5 206.879 283.5C206.879 283.5 207.994 282.775 209.502 281.795Z" fill="#3D3D3D" stroke="black" stroke-miterlimit="10"/>
<path d="M258.698 281.208C261.898 279.281 266.819 276.317 266.819 276.317C267.056 276.763 267.48 277.393 268.213 277.724C268.645 277.919 268.908 277.888 270.401 277.911C272.421 277.942 272.432 278.007 272.94 277.923C273.586 277.816 274.609 277.541 275.762 276.698C275.796 276.931 275.835 277.171 275.835 277.171L276.85 283.977L255.838 283.603C255.838 283.603 255.292 283.592 254.742 283.584C255.38 283.199 256.017 282.818 256.017 282.818C256.017 282.818 257.159 282.135 258.698 281.208Z" fill="#3D3D3D" stroke="black" stroke-miterlimit="10"/>
<path d="M241.358 283.981C241.358 280.124 245.788 277 251.252 277C256.716 277 261.145 280.124 261.145 283.981" fill="black"/>
<path d="M241.358 283.981C241.358 280.124 245.788 277 251.252 277C256.716 277 261.145 280.124 261.145 283.981" stroke="#0A0A0A" stroke-miterlimit="10"/>
<path d="M76.581 211.914H39.8064V245.243H76.581V211.914Z" fill="white" stroke="black" stroke-miterlimit="10"/>
<path d="M59.5091 245.246H15.6438V283.981H59.5091V245.246Z" fill="white" stroke="black" stroke-miterlimit="10"/>
<path d="M61.7849 229.993C61.6054 229.746 61.0632 229.07 60.1506 228.853C59.1082 228.605 57.9933 229.051 57.2334 229.993C57.2334 224.03 57.2334 218.068 57.2334 212.104H61.7849V229.993Z" fill="#FF78B6"/>
<path d="M40.677 263.326C40.4975 263.078 39.9553 262.403 39.0427 262.185C38.0003 261.937 36.8853 262.384 36.1255 263.326C36.1255 257.363 36.1255 251.396 36.1255 245.433H40.677V263.326Z" fill="#FF78B6"/>
<path d="M74.3739 237.372H62.5522V241.222H74.3739V237.372Z" fill="black"/>
<path d="M56.508 275.386H43.4683V279.975H56.508V275.386Z" fill="black"/>
<path d="M120.534 162.401C121.943 164.019 121.031 164.942 122.814 171.516C123.482 173.984 124.135 175.785 125.441 179.39C126.659 182.759 126.892 183.075 128.415 187.074C130.401 192.285 131.394 194.891 132.268 198.111C133.215 201.594 132.78 201.067 134.193 207.21C135.361 212.291 135.812 213.302 136.816 217.869C137.427 220.643 137.744 222.451 138.393 226.091C140.378 237.258 141.371 242.839 141.722 244.476C143.509 252.854 144.407 257.039 145.751 261.098C147.522 266.443 149.55 271.048 147.851 272.471C147.316 272.921 146.827 272.7 144.872 272.646C138.79 272.475 136.804 274.409 134.891 272.997C134.166 272.463 134.219 272.013 132.967 268.274C132.215 266.035 131.31 263.849 130.515 261.625C128.908 257.119 128.877 257.252 126.838 251.652C126.098 249.622 124.643 245.616 122.986 240.806C121.153 235.484 119.912 231.871 118.43 226.968C116.315 219.956 115.884 217.491 113.703 211.761C112.371 208.259 112.31 208.595 111.603 206.512C109.388 199.976 110.145 197.107 109.152 190.767C107.712 181.565 105.039 180.657 104.425 171.519C104.008 165.316 105.142 163.584 105.826 162.771C109.198 158.762 117.46 158.88 120.534 162.401Z" fill="black"/>
<path d="M89.2428 167.14C88.8533 168.502 89.2657 168.761 89.7697 173.175C90.2928 177.773 89.9454 178.314 90.2967 185.773C90.5716 191.652 90.8007 191.534 91.0832 197.321C91.2818 201.335 91.2551 203.101 91.3467 208.606C91.5224 219.399 91.74 219.792 91.8736 228.552C92.0149 237.815 92.0837 242.446 91.8736 244.823C91.2551 251.808 91.8584 258.927 90.5601 265.818C90.3501 266.928 89.911 269.102 91.0871 270.277C92.6335 271.83 95.1231 269.774 100.541 270.541C103.069 270.899 104.398 271.613 105.268 270.804C106.116 270.014 105.696 268.553 105.532 266.603C105.307 263.929 105.822 263.349 106.582 258.206C106.918 255.929 106.899 255.479 107.632 246.395C108.17 239.722 108.438 236.388 108.682 233.797C109.896 220.876 110.729 219.582 111.046 211.227C111.172 207.935 111.13 205.36 111.046 200.205C110.855 188.363 110.274 189.584 110.259 181.836C110.24 173.843 110.851 169.879 108.419 164.515C107.151 161.715 106.082 160.807 105.268 160.315C100.266 157.304 90.8465 161.528 89.2428 167.14Z" fill="#2F2E40"/>
<path d="M155.484 281.753C151.841 279.88 146.239 277 146.239 277C145.999 277.454 145.556 278.087 144.758 278.434C144.288 278.636 143.994 278.609 142.337 278.659C140.099 278.724 140.088 278.793 139.519 278.716C138.801 278.621 137.648 278.361 136.331 277.541C136.304 277.774 136.273 278.018 136.273 278.018L135.468 284.855L158.767 284.111C158.767 284.111 159.375 284.092 159.982 284.073C159.256 283.699 158.531 283.329 158.531 283.329C158.531 283.329 157.236 282.657 155.484 281.753Z" fill="#3D3D3D" stroke="black" stroke-miterlimit="10"/>
<path d="M114.383 281.753C110.74 279.88 105.139 277 105.139 277C104.898 277.454 104.455 278.087 103.657 278.434C103.187 278.636 102.893 278.609 101.236 278.659C98.9986 278.724 98.9872 278.793 98.4182 278.716C97.7004 278.621 96.5472 278.361 95.2299 277.541C95.2032 277.774 95.1726 278.018 95.1726 278.018L94.3669 284.855L117.667 284.111C117.667 284.111 118.274 284.092 118.881 284.073C118.155 283.699 117.43 283.329 117.43 283.329C117.43 283.329 116.135 282.657 114.383 281.753Z" fill="#3D3D3D" stroke="black" stroke-miterlimit="10"/>
<path d="M113.955 101.249C112.806 100.612 112.305 101.1 109.228 101.073C105.207 101.039 104.569 100.196 102.572 100.898C101.175 101.39 100.262 102.233 99.2467 103.172C97.7194 104.58 96.8869 105.972 96.2684 107.021C95.5276 108.276 95.0732 109.432 94.1683 111.744C92.0071 117.253 93.0189 116.437 91.7169 119.092C91.3427 119.855 90.8387 120.775 91.19 121.19C91.5336 121.599 92.4042 121.171 93.9926 121.015C95.5963 120.859 95.7185 121.194 97.4941 121.19C100.469 121.183 101.732 120.229 102.221 120.839C102.576 121.286 102.16 122.114 101.347 123.815C101.347 123.815 100.197 126.215 98.8954 129.065C97.3986 132.338 98.1699 132.964 96.7953 136.764C96.024 138.893 95.8942 138.385 94.0003 142.341C91.8582 146.82 92.114 147.286 89.7886 152.158C89.0517 153.699 88.5744 154.607 87.8642 156.358C86.8867 158.765 87.3449 158.159 86.1497 161.444C85.367 163.592 84.9431 164.48 85.4128 165.282C85.6953 165.762 86.123 165.907 87.1654 166.331C90.7623 167.796 90.0903 167.849 91.5412 168.254C93.7483 168.872 95.562 168.818 96.6197 168.78C97.7461 168.738 99.22 168.685 100.996 168.082C102.729 167.494 102.947 166.995 105.723 165.808C106.868 165.32 107.605 165.003 108.525 164.759C110.259 164.297 111.687 164.343 114.302 164.583C120.565 165.163 121.951 165.793 123.058 164.759C123.501 164.343 123.764 163.431 124.284 161.612C124.746 159.994 124.818 159.105 125.158 157.239C125.479 155.473 125.788 154.229 126.208 152.516C126.911 149.666 127.22 149.075 127.961 146.393C128.724 143.623 128.404 144.207 129.538 139.568C131.611 131.075 131.558 133.719 131.989 130.995C132.058 130.564 132.283 129.095 132.688 129.072C133.096 129.05 133.203 130.507 134.441 132.048C134.925 132.655 135.743 133.67 136.716 133.624C137.48 133.586 137.992 132.91 138.641 132.048C140.76 129.248 141.818 127.852 141.966 127.676C144.246 124.998 145.934 125.242 146.171 123.651C146.251 123.106 146.094 122.785 144.418 119.802C142.562 116.502 142.406 116.277 141.966 115.43C140.306 112.229 140.756 111.996 139.691 110.356C138.293 108.208 136.525 107.082 134.788 105.983C133.012 104.858 131.267 104.297 127.785 103.183C126.239 102.687 124.578 102.233 123.757 103.008C123.455 103.294 123.337 103.679 122.707 104.232C122.138 104.732 121.569 105.003 121.305 105.106C119.362 105.884 117.09 104.507 116.93 104.408C115.093 103.252 115.498 102.104 113.955 101.249Z" fill="white" stroke="black" stroke-miterlimit="10"/>
<path d="M166.244 87.7322H163.792V98.4641H166.244V87.7322Z" fill="black"/>
<path d="M161.921 103.13H154.567V105.228H161.921V103.13Z" fill="black"/>
<path d="M124.683 125.895L102.152 118.326L95.5817 137.851L118.113 145.42L124.683 125.895Z" fill="#FF6FAE"/>
<path d="M114.351 122.427L112.027 121.646L108.604 131.819L110.928 132.599L114.351 122.427Z" fill="black"/>
<path d="M105.347 135.646L98.376 133.304L97.7067 135.293L104.678 137.635L105.347 135.646Z" fill="black"/>
<path d="M84.0078 141.72C84.3706 143.2 85.4741 144.615 86.925 145.218C88.0056 145.668 88.9602 145.531 89.7277 145.451C93.0841 145.111 92.6373 145.931 98.6016 146.034C103.065 146.111 103.119 145.645 105.841 146.034C107.67 146.294 108.373 146.607 110.744 146.969C114.646 147.561 115.567 147.541 116.231 147.435C118.404 147.087 119.935 146.096 120.55 145.683C122.031 144.699 122.867 143.654 123.467 142.883C124.574 141.468 124.631 140.834 124.635 140.552C124.643 139.705 124.2 138.923 123.936 138.454C123.597 137.855 123.001 137.054 123.001 137.054C123.001 137.054 121.638 137.054 120.782 137.519C119.553 138.187 119.973 139.495 118.797 140.201C118.537 140.358 118.541 140.277 116.464 140.434C115.547 140.503 114.284 140.613 112.626 140.552C111.962 140.529 111.477 140.483 111.443 140.319C111.389 140.037 112.68 139.518 113.428 138.805C113.886 138.366 113.955 138.156 114.261 137.74C114.513 137.397 114.65 137.275 114.948 136.939C115.2 136.657 115.54 136.233 115.895 135.642C115.845 135.417 115.735 135.1 115.471 134.841C114.761 134.135 113.436 134.326 112.611 134.723C111.924 135.055 111.489 135.642 110.626 136.821C109.839 137.904 109.774 138.29 109.11 138.805C108.957 138.923 108.254 139.446 107.243 139.621C106.128 139.812 105.417 139.446 104.092 139.038C102.405 138.519 102.794 138.874 99.5409 138.103C96.1578 137.302 95.8142 136.935 95.6882 136.588" fill="white"/>
<path d="M84.0078 141.72C84.3706 143.2 85.4741 144.615 86.925 145.218C88.0056 145.668 88.9602 145.531 89.7277 145.451C93.0841 145.111 92.6373 145.931 98.6016 146.034C103.065 146.111 103.119 145.645 105.841 146.034C107.67 146.294 108.373 146.607 110.744 146.969C114.646 147.561 115.567 147.541 116.231 147.435C118.404 147.087 119.935 146.096 120.55 145.683C122.031 144.699 122.867 143.654 123.467 142.883C124.574 141.468 124.631 140.834 124.635 140.552C124.643 139.705 124.2 138.923 123.936 138.454C123.597 137.855 123.001 137.054 123.001 137.054C123.001 137.054 121.638 137.054 120.782 137.519C119.553 138.187 119.973 139.495 118.797 140.201C118.537 140.358 118.541 140.277 116.464 140.434C115.547 140.503 114.284 140.613 112.626 140.552C111.962 140.529 111.477 140.483 111.443 140.319C111.389 140.037 112.68 139.518 113.428 138.805C113.886 138.366 113.955 138.156 114.261 137.74C114.513 137.397 114.65 137.275 114.948 136.939C115.2 136.657 115.54 136.233 115.895 135.642C115.845 135.417 115.735 135.1 115.471 134.841C114.761 134.135 113.436 134.326 112.611 134.723C111.924 135.055 111.489 135.642 110.626 136.821C109.839 137.904 109.774 138.29 109.11 138.805C108.957 138.923 108.254 139.446 107.243 139.621C106.128 139.812 105.417 139.446 104.092 139.038C102.405 138.519 102.794 138.874 99.5409 138.103C96.1578 137.302 95.8142 136.935 95.6882 136.588" stroke="black" stroke-miterlimit="10"/>
<path d="M340.43 258.714C340.59 258.618 341.529 258.126 342.373 257.058C342.514 256.879 342.957 256.291 343.358 255.345C343.9 254.04 343.805 253.365 344.095 251.919C344.443 250.175 345.031 248.92 345.351 248.234C346.023 246.788 346.715 245.834 347.501 244.808C348.945 242.923 349.662 241.981 350.819 241.313C351.213 241.084 352.541 240.367 354.382 240.325C355.012 240.31 356.115 240.294 357.333 240.851C360.132 242.137 361.049 245.326 361.205 245.857C361.591 247.188 361.557 248.249 361.511 249.679C361.461 251.267 361.408 252.991 360.591 254.822C359.689 256.837 358.727 257.027 358.131 259.042C357.799 260.163 357.788 261.159 357.826 261.808C357.776 262.899 357.803 264.619 358.315 266.622C358.712 268.16 359.12 268.774 359.854 270.842C359.991 271.227 360.743 273.379 361.266 275.847C362.076 279.674 362.607 282.165 361.45 283.359C360.991 283.832 359.64 283.878 356.967 283.954C355.26 284 354.642 283.958 352.419 283.954C351.201 283.954 349.846 283.977 347.135 284.023C346.818 284.027 344.863 284.061 342.465 284.092C340.853 284.111 340.044 284.118 339.945 284.092C335.114 282.718 337.417 260.48 340.43 258.714Z" fill="white" stroke="black" stroke-miterlimit="10"/>
<path d="M355.978 240.889C356.146 241.946 356.291 243.48 356.1 245.307C355.963 246.616 355.703 247.608 355.298 249.13C354.641 251.621 354.401 251.717 354.008 253.548C353.71 254.933 353.851 254.883 353.454 257.237C353.217 258.637 353.003 259.633 352.652 261.258C351.999 264.295 351.953 264.097 351.61 265.875C351.071 268.648 351.243 268.82 350.751 270.552C350.132 272.723 349.471 273.833 349.212 274.241C348.452 275.447 348.292 275.195 347.673 276.221C346.799 277.675 346.905 278.548 346.077 281.165C345.749 282.196 345.432 283.012 345.218 283.535" stroke="black" stroke-miterlimit="10"/>
<path d="M327.592 219.986C328.921 219.868 329.841 219.792 331.002 220.185C332.445 220.673 333.327 221.566 334.412 222.657C335.118 223.367 336.394 224.675 337.455 226.808C338.574 229.059 338.845 231.012 339.116 232.939C339.345 234.579 339.36 235.842 339.391 238.375C339.41 239.856 339.372 241.263 339.299 244.01C339.231 246.513 339.116 250.236 339.116 250.236C339.013 253.498 338.982 254.349 339.116 255.772C339.276 257.447 339.551 258.683 339.761 259.629C340.548 263.116 340.968 264.986 342.251 266.847C343.778 269.056 344.71 268.637 346.398 271.197C347.524 272.906 348.005 274.459 348.334 275.546C349.197 278.4 350.189 281.677 348.887 283.355C347.807 284.755 346.085 283.817 339.765 283.951C336.378 284.023 336.661 284.294 332.113 284.443C329.467 284.53 327.543 284.5 324.186 284.443C319.368 284.359 316.954 284.324 315.339 284.244C312.384 284.103 311.922 283.958 310.73 284.244C310.047 284.408 309.65 284.588 309.256 284.34C308.913 284.122 308.478 283.523 308.794 279.395C308.92 277.751 309.004 276.671 309.348 274.848C309.6 273.516 309.921 272.15 310.73 269.411C312.136 264.665 312.838 262.296 313.682 260.907C314.621 259.362 316.206 257.294 317 256.26C317.527 255.578 318.027 254.815 319.028 253.296C319.784 252.155 320.185 251.492 320.318 250.53C320.387 250.046 320.334 249.542 320.227 248.55C320.074 247.161 319.898 246.265 319.765 245.483C319.455 243.644 319.562 243.442 319.303 241.53C318.959 239.001 318.726 239.066 318.474 237.181C318.176 234.957 318.287 233.274 318.474 230.459C318.608 228.433 318.68 227.392 319.028 226.209C319.402 224.923 319.822 223.477 320.964 222.256C322.663 220.437 324.942 220.227 327.592 219.986Z" fill="white" stroke="black" stroke-miterlimit="10"/>
<path d="M327.21 220.509C327.291 221.295 327.466 222.455 327.883 223.821C328.345 225.335 328.761 225.972 329.23 227.235C329.815 228.807 329.975 229.986 330.242 232.054C330.517 234.175 330.582 235.964 330.582 238.677C330.578 244.75 330.238 244.781 330.357 248.714C330.471 252.567 330.796 252.663 330.697 255.639C330.613 257.992 330.395 258.347 330.25 261.964C330.162 264.112 330.208 264.745 330.025 266.382C329.799 268.408 329.563 268.907 329.353 270.598C329.043 273.093 329.238 274.546 329.238 275.92C329.246 278.014 328.803 281.017 326.768 284.855" stroke="black" stroke-miterlimit="10"/>
<path d="M330.716 236.51L337.959 227.952" stroke="black" stroke-miterlimit="10"/>
<path d="M330.563 243.438L339.464 234.007" stroke="black" stroke-miterlimit="10"/>
<path d="M319.02 253.3L329.834 267.763" stroke="black" stroke-miterlimit="10"/>
<path d="M316.443 256.981L329.093 272.86" stroke="black" stroke-miterlimit="10"/>
<path d="M347.23 245.159L353.103 259.153" stroke="black" stroke-miterlimit="10"/>
<path d="M344.385 250.702L351.308 266.97" stroke="black" stroke-miterlimit="10"/>
<path d="M348.941 283.245L360.251 272.654" stroke="black" stroke-miterlimit="10"/>
<path d="M354.107 283.966L361.927 278.48" stroke="black" stroke-miterlimit="10"/>
<path d="M357.509 283.87C358.544 283.783 360.14 283.504 361.801 282.558C363.68 281.486 364.715 280.086 365.994 278.316C366.742 277.282 367.174 276.541 369.289 272.559C371.286 268.793 372.294 266.889 372.683 265.894C373.287 264.348 374.039 262.033 374.482 259.026" stroke="black" stroke-miterlimit="10"/>
<path d="M364.932 279.949C364.573 279.792 364.833 279.01 364.432 277.175C364.153 275.897 363.951 275.935 363.382 274.016C363.351 273.913 362.954 272.547 362.683 270.689C362.504 269.472 362.519 268.976 362.733 268.473C363.084 267.653 363.76 267.309 363.882 267.252C365.146 266.642 366.364 267.603 366.478 267.694C367.131 268.229 367.387 268.942 367.578 269.469C367.857 270.251 367.922 270.956 367.926 272.021C367.937 274.157 367.945 275.226 367.628 276.29C367.013 278.35 365.531 280.204 364.932 279.949Z" fill="#33FF99" stroke="black" stroke-miterlimit="10"/>
<path d="M372.905 263.536C375.981 263.536 378.476 261.011 378.476 257.897C378.476 254.783 375.981 252.259 372.905 252.259C369.828 252.259 367.334 254.783 367.334 257.897C367.334 261.011 369.828 263.536 372.905 263.536Z" fill="#BC99FA"/>
<path d="M369.041 253.838C369.182 254.074 369.461 253.968 372.271 253.907C373.836 253.872 374.623 253.857 374.864 253.872C376.124 253.956 376.589 254.139 376.796 253.861C377.132 253.411 376.391 252.266 375.864 251.682C375.658 251.453 375.215 250.977 374.466 250.671C373.306 250.198 372.256 250.488 371.969 250.572C370.068 251.129 368.655 253.185 369.041 253.838Z" fill="black"/>
<path d="M365.997 283.931C366.738 283.058 367.91 281.738 369.457 280.227C371.267 278.461 372.091 278.182 373.848 276.255C374.871 275.134 376.421 273.47 378.441 271.475C380.881 269.06 381.851 267.607 383.02 265.653C383.867 264.238 384.978 262.063 385.784 259.122" stroke="black" stroke-miterlimit="10"/>
<path d="M385.169 264.2C388.246 264.2 390.74 261.675 390.74 258.561C390.74 255.447 388.246 252.922 385.169 252.922C382.093 252.922 379.598 255.447 379.598 258.561C379.598 261.675 382.093 264.2 385.169 264.2Z" fill="#BC99FA"/>
<path d="M381.931 253.975C382.035 254.231 382.329 254.166 385.116 254.521C386.67 254.719 387.449 254.819 387.686 254.868C388.919 255.135 389.354 255.387 389.599 255.143C389.996 254.746 389.427 253.506 388.992 252.85C388.82 252.594 388.453 252.056 387.754 251.644C386.674 251.007 385.597 251.137 385.299 251.175C383.337 251.446 381.641 253.273 381.931 253.975Z" fill="black"/>
<path d="M164.621 255.734C165.053 256.772 165.683 258.389 166.313 260.419C167.05 262.796 166.927 263.647 167.829 266.046C168.352 267.443 169.111 269.545 169.955 272.204C170.979 275.42 171.811 276.916 172.991 278.804C173.846 280.174 175.24 282.108 177.428 284.111" stroke="black" stroke-miterlimit="10"/>
<path d="M190.177 229.99C191.258 229.89 192.006 229.829 192.953 230.15C194.126 230.547 194.847 231.279 195.729 232.168C196.302 232.748 197.341 233.816 198.204 235.556C199.112 237.395 199.334 238.99 199.555 240.561C199.742 241.9 199.754 242.934 199.781 245.002C199.796 246.212 199.765 247.356 199.704 249.603C199.651 251.648 199.555 254.689 199.555 254.689C199.471 257.352 199.445 258.046 199.555 259.21C199.685 260.579 199.907 261.586 200.078 262.357C200.716 265.203 201.06 266.729 202.102 268.248C203.343 270.052 204.107 269.709 205.478 271.799C206.436 273.264 206.883 274.729 207.055 275.351C208.322 279.937 208.96 282.23 208.139 283.073C207.776 283.447 207.066 283.538 205.642 283.718C204.34 283.882 203.996 283.737 200.8 283.725C200.8 283.725 200.8 283.725 198.605 283.729C196.157 283.733 196.157 283.733 196.157 283.733C195.111 283.741 194.836 283.752 194.21 283.737C193.412 283.714 192.839 283.664 192.621 283.649C190.792 283.508 189.826 283.752 187.073 283.748C184.782 283.744 184.58 283.573 182.533 283.657C180.673 283.733 180.334 283.756 180.334 283.756C180.318 283.756 178.886 283.848 177.191 283.76C176.809 283.741 176.332 283.706 175.893 283.382C175.568 283.142 175.385 282.833 175.251 282.543C175.083 282.18 174.663 281.265 174.877 278.506C174.98 277.167 175.049 276.282 175.328 274.794C175.53 273.707 175.79 272.593 176.454 270.353C177.6 266.481 178.169 264.543 178.856 263.414C179.62 262.151 180.91 260.465 181.556 259.622C181.983 259.065 182.392 258.443 183.205 257.199C183.816 256.264 184.144 255.726 184.255 254.94C184.309 254.544 184.267 254.132 184.179 253.327C184.057 252.194 183.911 251.461 183.805 250.824C183.553 249.321 183.64 249.157 183.43 247.596C183.152 245.532 182.961 245.582 182.754 244.045C182.51 242.229 182.602 240.859 182.754 238.555C182.865 236.899 182.923 236.052 183.205 235.083C183.511 234.034 183.85 232.851 184.782 231.855C186.164 230.356 188.02 230.188 190.177 229.99Z" fill="white" stroke="black" stroke-miterlimit="10"/>
<path d="M189.868 230.417C189.933 231.054 190.078 232.004 190.418 233.122C190.796 234.358 191.132 234.881 191.514 235.907C191.987 237.189 192.121 238.154 192.339 239.84C192.56 241.569 192.614 243.034 192.614 245.25C192.61 250.21 192.335 250.233 192.43 253.445C192.522 256.589 192.789 256.669 192.705 259.099C192.636 261.018 192.461 261.308 192.339 264.261C192.266 266.012 192.304 266.531 192.155 267.866C191.972 269.522 191.777 269.926 191.605 271.307C191.533 271.88 191.495 272.383 191.476 272.841C191.415 274.321 191.499 275.447 191.514 275.653C191.59 276.755 191.25 278.941 189.475 283.672" stroke="black" stroke-miterlimit="10"/>
<path d="M192.717 243.48L198.612 236.491" stroke="black" stroke-miterlimit="10"/>
<path d="M192.594 249.134L199.834 241.435" stroke="black" stroke-miterlimit="10"/>
<path d="M183.201 257.188L191.999 268.991" stroke="black" stroke-miterlimit="10"/>
<path d="M181.105 260.194L191.399 273.154" stroke="black" stroke-miterlimit="10"/>
<path d="M173.147 257.454C173.479 254.504 171.477 251.858 168.677 251.544C165.877 251.23 163.339 253.367 163.008 256.318C162.677 259.268 164.678 261.914 167.478 262.228C170.278 262.542 172.816 260.405 173.147 257.454Z" fill="#BC99FA"/>
<path d="M165.469 252.735C165.564 252.976 165.832 252.915 168.386 253.235C169.81 253.414 170.52 253.506 170.742 253.552C171.872 253.8 172.269 254.036 172.495 253.804C172.861 253.422 172.346 252.243 171.949 251.621C171.792 251.381 171.46 250.87 170.822 250.481C169.837 249.878 168.844 250.008 168.577 250.049C166.771 250.313 165.209 252.064 165.469 252.735Z" fill="black"/>
<path d="M171.647 275.721C171.956 275.687 171.868 275.119 172.468 273.985C172.888 273.196 173.04 273.261 173.781 272.097C173.819 272.036 174.346 271.208 174.847 270.033C175.175 269.262 175.24 268.934 175.148 268.56C174.995 267.954 174.511 267.599 174.427 267.538C173.522 266.897 172.407 267.301 172.304 267.34C171.704 267.568 171.391 267.992 171.162 268.305C170.818 268.77 170.662 269.22 170.494 269.922C170.158 271.33 169.986 272.032 170.077 272.795C170.242 274.272 171.131 275.779 171.647 275.721Z" fill="#33FF99" stroke="black" stroke-miterlimit="10"/>
<path d="M52.4031 87.1713C52.72 87.2095 53.2928 87.2324 53.9342 86.9958C54.675 86.7212 55.1027 86.2481 55.3776 85.9467C55.5456 85.7636 56.0305 85.2142 56.2978 84.4168C56.7522 83.0434 56.0152 82.5398 56.2558 81.1358C56.4849 79.7815 57.4013 78.8888 57.787 78.5111C58.9401 77.3894 60.246 77.0766 60.7653 76.9812" stroke="#070707" stroke-miterlimit="10"/>
<path d="M330.697 107.246C330.708 106.819 330.788 106.022 331.266 105.19C331.976 103.954 333.102 103.458 333.454 103.309C335.069 102.626 335.89 103.347 337.089 102.958C338.013 102.661 339.204 101.688 340.021 98.4526" stroke="black" stroke-miterlimit="10"/>
<path d="M3.77637 284.504H381.897" stroke="black" stroke-width="5" stroke-miterlimit="10"/>
<path d="M178.963 31.261V37.3041" stroke="black" stroke-miterlimit="10"/>
<path d="M174.992 34.2825H183.224" stroke="black" stroke-miterlimit="10"/>
<path d="M331.014 6.16139V0" stroke="black" stroke-miterlimit="10"/>
<path d="M327.864 3.08252H335.359" stroke="black" stroke-miterlimit="10"/>
<path d="M32.6279 146.218L32.6738 152.646" stroke="black" stroke-miterlimit="10"/>
<path d="M29.7412 149.434H36.4806" stroke="black" stroke-miterlimit="10"/>
<path d="M24.0367 170.299C25.7111 170.299 27.0684 168.942 27.0684 167.269C27.0684 165.596 25.7111 164.24 24.0367 164.24C22.3623 164.24 21.0049 165.596 21.0049 167.269C21.0049 168.942 22.3623 170.299 24.0367 170.299Z" fill="white" stroke="black" stroke-miterlimit="10"/>
<path d="M348.941 194.589C350.615 194.589 351.972 193.233 351.972 191.56C351.972 189.887 350.615 188.531 348.941 188.531C347.266 188.531 345.909 189.887 345.909 191.56C345.909 193.233 347.266 194.589 348.941 194.589Z" fill="white" stroke="black" stroke-miterlimit="10"/>
<path d="M231.003 77.4161C232.678 77.4161 234.035 76.0598 234.035 74.3869C234.035 72.7139 232.678 71.3577 231.003 71.3577C229.329 71.3577 227.971 72.7139 227.971 74.3869C227.971 76.0598 229.329 77.4161 231.003 77.4161Z" fill="white" stroke="black" stroke-miterlimit="10"/>
</svg>
