<svg width="38" height="36" viewBox="0 0 38 36" fill="none" xmlns="http://www.w3.org/2000/svg">
<path d="M37.4433 30.3816L28.2834 21.7032C29.6198 19.56 30.4 17.0694 30.4 14.4C30.4 6.44702 23.5948 0 15.2 0C6.80519 0 0 6.44702 0 14.4C0 22.353 6.80519 28.8 15.2 28.8C18.0177 28.8 20.6473 28.0608 22.9096 26.7948L32.0695 35.4732C32.426 35.8104 32.9093 36 33.4128 36C33.9169 36 34.4001 35.8104 34.7561 35.4726L37.4433 32.9268C38.1856 32.2242 38.1856 31.0842 37.4433 30.3816ZM15.2 27C7.86667 27 1.9 21.348 1.9 14.4C1.9 7.452 7.86667 1.8 15.2 1.8C22.5333 1.8 28.5 7.452 28.5 14.4C28.5 21.348 22.5333 27 15.2 27ZM30.7598 31.6866L24.51 25.7658C25.5151 25.026 26.4163 24.1716 27.1973 23.22L33.447 29.1408L30.7598 31.6866ZM33.4128 34.2L32.103 32.9592L34.7903 30.4134L36.1 31.6542L33.4128 34.2Z" fill="black"/>
</svg>
