<svg width="179" height="180" viewBox="0 0 179 180" fill="none" xmlns="http://www.w3.org/2000/svg">
<g clip-path="url(#clip0_101_1275)">
<path d="M95.3804 10.3506C92.389 9.81656 89.3075 10.249 86.5755 11.5863C83.0502 9.37722 78.4887 9.81931 75.4481 12.6654L65.6738 21.8683V21.0665C65.6738 12.7849 58.9974 6.07117 50.7604 6.07117C45.8194 6.07117 41.8135 10.0994 41.8135 15.0681V44.4436L34.5118 52.4067C32.4379 54.6583 31.3088 57.628 31.3565 60.6966C31.2978 71.1515 32.0651 81.5969 33.653 91.9297C33.7172 92.1658 33.8114 92.3924 33.9329 92.6052L29.0655 106.374C27.2142 111.5 29.0778 117.234 33.5806 120.273L35.2846 121.437C33.5451 126.535 35.3938 132.173 39.8051 135.234L88.0964 168.525C88.9101 169.085 89.3948 170.012 89.3948 171.002C89.3948 175.972 93.4007 180 98.3418 180H141.688C144.409 180.007 146.984 178.759 148.673 176.614C150.396 174.434 151.021 171.576 150.367 168.87L146.013 152.674C144.481 145.597 144.031 138.326 144.677 131.112C147.134 99.7678 126.238 77.1252 120.938 73.1904C111.188 65.9632 103.916 58.4284 100.981 52.5165C96.5819 43.6459 99.5473 37.5775 102.413 31.7109C104.817 26.7889 107.305 21.7022 103.776 16.3669C101.911 13.2942 98.8783 11.1209 95.3804 10.3506ZM50.7604 12.0696C55.7029 12.0696 59.7087 16.0978 59.7087 21.0665V27.485L47.7786 38.7143V15.0681C47.7786 14.2731 48.0926 13.5098 48.6524 12.9483C49.2108 12.3853 49.9699 12.0696 50.7604 12.0696ZM37.3216 60.6156C37.297 59.082 37.8623 57.5978 38.8986 56.4734L46.7696 47.8746C46.842 47.8128 46.9089 47.7483 46.973 47.6797L64.4873 31.1988C64.6566 31.0698 64.8109 30.9229 64.9488 30.7608L79.6 16.9641C80.7674 15.8218 82.6283 15.8218 83.7957 16.9641L83.9991 16.7595C84.0715 16.8447 84.1493 16.9229 84.2312 16.9971L84.0428 17.2401C87.2827 20.7699 87.1926 26.2356 83.8407 29.657L72.1099 40.9824L55.5923 55.942C54.5192 57.0912 53.9553 58.6275 54.0263 60.2009C48.4763 60.9272 43.7973 64.7179 41.9118 70.0175L38.1681 80.6056C37.5687 73.2329 37.3776 64.8854 37.3216 60.6156ZM59.9654 60.0568L68.5847 52.2584C68.4713 54.8615 68.5656 57.4701 68.8687 60.0568H59.9654ZM34.6756 108.42L47.5369 72.0275C48.8244 68.4304 52.2254 66.0373 56.0278 66.0552H81.6221C82.2406 66.0593 82.844 66.2542 83.3478 66.6139L98.7869 77.6154C99.3903 78.0355 99.7562 78.7233 99.7672 79.462C99.7726 79.8835 99.6634 80.2981 99.4518 80.6619C99.3466 80.8363 99.2101 81.0093 99.0845 81.1809L94.2403 77.6964C91.72 75.8758 88.6944 74.8983 85.5911 74.901H62.1185C55.8039 74.9107 50.1802 78.9197 48.079 84.9084L37.3421 115.591L36.9543 115.327C34.6988 113.831 33.7568 110.975 34.6756 108.42ZM97.072 29.1051C94.0588 35.2655 89.9369 43.705 95.6576 55.235C100.23 64.4516 111.248 73.491 117.41 78.052C121.371 80.9832 140.996 101.918 138.742 130.677C138.045 138.536 138.548 146.456 140.232 154.161L144.586 170.358C144.79 171.246 144.58 172.18 144.016 172.895C143.452 173.609 142.594 174.026 141.688 174.029H98.3267C96.6802 174.029 95.3449 172.685 95.3449 171.029C95.349 168.062 93.8977 165.285 91.4674 163.603L43.1788 130.312C40.9534 128.771 40.0304 125.922 40.9274 123.359L53.7013 86.8882C54.9629 83.3021 58.3298 80.9008 62.1131 80.8898H85.5856C87.4465 80.8885 89.261 81.4747 90.7724 82.5662L104.543 92.4789C105.511 93.1873 105.781 94.5191 105.17 95.5529C103.919 97.6617 101.863 99.1596 99.4832 99.7006C97.1021 100.24 94.6049 99.7733 92.576 98.4086L86.611 94.4051C85.1446 93.4125 83.4161 92.8839 81.648 92.8866H72.4622C68.5792 92.8633 65.1318 95.3827 63.9562 99.1047C63.7801 99.6649 63.5289 100.361 63.2463 101.144C61.0986 107.112 56.0879 121.077 67.4569 125.663C68.455 126.109 69.6155 125.971 70.4825 125.303C71.3494 124.636 71.7836 123.546 71.6157 122.461C71.4477 121.375 70.7036 120.47 69.6769 120.098C64.6744 118.08 65.7298 111.874 68.8564 103.186C69.1718 102.311 69.453 101.54 69.6442 100.916C70.0415 99.6923 71.1829 98.8699 72.4622 98.885H81.6453C82.231 98.885 82.8031 99.0608 83.2891 99.3889L89.2542 103.397C92.6429 105.672 96.8112 106.45 100.786 105.549C104.76 104.649 108.194 102.147 110.284 98.631C112.471 94.9131 111.483 90.1311 108.003 87.5994L103.926 84.6503C104.143 84.351 104.379 84.0517 104.564 83.7511C106.778 80.0359 105.765 75.2333 102.244 72.7414L86.8089 61.7221C85.2921 60.643 83.4803 60.0609 81.6221 60.0568H74.8774C74.2576 55.4121 74.4077 50.6946 75.3198 46.098L88.0282 33.9461C92.6225 29.3042 93.6901 22.2005 90.6646 16.3998C93.8267 15.399 97.2481 16.7966 98.8224 19.7292C100.301 21.9671 99.4723 24.1927 97.072 29.1051Z" fill="#43436D"/>
<path d="M84.3922 126.041C83.3805 125.701 82.2651 125.931 81.4664 126.642C80.6676 127.353 80.3072 128.439 80.5202 129.491C80.7345 130.542 81.4896 131.399 82.5013 131.74C89.3852 134.06 107.257 142.384 107.257 152.887C107.257 154.543 108.592 155.886 110.239 155.886C111.887 155.886 113.222 154.543 113.222 152.887C113.213 135.908 85.5705 126.428 84.3922 126.041Z" fill="#43436D"/>
<path d="M104.54 115.064C103.894 114.21 102.846 113.768 101.789 113.904C100.731 114.04 99.8258 114.732 99.4149 115.72C99.0025 116.709 99.1459 117.843 99.7917 118.695C104.342 124.694 111.913 131.874 122.134 131.874C123.782 131.874 125.117 130.531 125.117 128.874C125.117 127.218 123.782 125.876 122.134 125.876C114.356 125.876 108.283 119.994 104.54 115.064Z" fill="#43436D"/>
<path d="M106.58 1.005L103.738 4.00489C102.961 4.77236 102.662 5.90504 102.958 6.95809C103.254 8.01251 104.099 8.82118 105.16 9.06556C106.222 9.31132 107.332 8.95573 108.056 8.13745L110.899 5.13757C111.675 4.37009 111.974 3.23741 111.678 2.18299C111.382 1.12994 110.537 0.321273 109.476 0.076889C108.414 -0.168868 107.304 0.186725 106.58 1.005Z" fill="#43436D"/>
<path d="M120.699 14.4681C120.486 13.702 119.978 13.0526 119.287 12.6627C118.598 12.2727 117.781 12.1739 117.019 12.3894L113.142 13.4878C111.695 13.8832 110.764 15.2973 110.968 16.7925C111.173 18.2862 112.45 19.3942 113.95 19.3819C114.225 19.3819 114.498 19.3434 114.761 19.2679L118.639 18.1723C119.401 17.9567 120.046 17.4446 120.433 16.7499C120.819 16.0552 120.915 15.2342 120.699 14.4681Z" fill="#43436D"/>
<path d="M112.39 26.6667C110.803 26.2191 109.156 27.1486 108.711 28.744C108.265 30.3393 109.191 31.9951 110.776 32.4427L114.653 33.5411C114.918 33.6152 115.191 33.6536 115.466 33.6523C116.955 33.6509 118.217 32.5443 118.419 31.0601C118.621 29.5746 117.702 28.1687 116.267 27.7637L112.39 26.6667Z" fill="#43436D"/>
</g>
<defs>
<clipPath id="clip0_101_1275">
<rect width="179" height="180" fill="white"/>
</clipPath>
</defs>
</svg>
