<svg width="190" height="190" viewBox="0 0 190 190" fill="none" xmlns="http://www.w3.org/2000/svg">
<path d="M92.2168 140.859H97.7832V146.425H92.2168V140.859Z" fill="#43436D"/>
<path d="M190 115.81C190 111.206 186.254 107.461 181.65 107.461H181.209C181.497 106.46 181.647 105.412 181.647 104.34C181.647 101.359 180.493 98.564 178.397 96.4677L144.94 63.0114C142.32 60.3914 138.826 58.949 135.1 58.949C131.374 58.949 127.88 60.3918 125.26 63.0114L102.511 85.7601H93.6841L69.0134 61.0895C68.3755 60.4515 67.6897 59.8916 66.9687 59.4036C71.1624 55.2696 73.5667 49.6245 73.5667 43.5749C73.5667 31.2977 63.5784 21.3093 51.3011 21.3093C41.0719 21.3093 32.4377 28.2454 29.8393 37.6593L25.8482 33.6682C21.5079 29.3279 14.4448 29.3272 10.1038 33.6682C5.76346 38.0085 5.76346 45.0716 10.1038 49.4123L12.615 51.9231C11.7696 52.3257 10.9907 52.8742 10.3101 53.5544L2.43846 61.4268C0.866133 62.9991 0 65.0958 0 67.3305C0 69.5656 0.866133 71.6623 2.43809 73.2346L10.7406 81.5375L14.6768 77.6016L6.37391 69.2988C5.85326 68.7778 5.56603 68.079 5.56603 67.3309C5.56603 66.5828 5.85289 65.8844 6.37428 65.363L14.2463 57.4906C14.7669 56.9696 15.4661 56.6827 16.2142 56.6827C16.9623 56.6827 17.6607 56.9696 18.1821 57.4906L73.7189 113.027H181.65C183.185 113.027 184.434 114.276 184.434 115.811V129.727H66.8021L18.6129 81.5375L14.6768 85.4737L58.9301 129.727H0V146.426H11.1328V168.691H27.832V146.426H86.6504V140.859H5.56641V135.293H184.434V140.859H103.35V146.426H162.168V168.691H178.867V146.426H190V115.81ZM51.3011 26.8757C60.5091 26.8757 68.0003 34.367 68.0003 43.5749C68.0003 49.0074 65.4142 54.0057 61.0334 57.1447C57.7574 56.7065 54.3541 57.4308 51.4993 59.319L34.6435 42.4632C35.2179 33.7721 42.4672 26.8757 51.3011 26.8757ZM14.0403 45.4761C11.8698 43.3055 11.8698 39.7742 14.0403 37.6041C16.2109 35.4339 19.7422 35.4346 21.912 37.6041L51.3011 66.9932L53.269 65.0253C56.525 61.77 61.8227 61.7704 65.0772 65.0253L88.7868 88.7348L74.6592 106.095L14.0403 45.4761ZM80.7251 107.461L93.8548 91.3262H104.817L123.291 72.8513L135.117 84.6762L112.725 107.46H80.7251V107.461ZM120.53 107.461L139.053 88.6127L157.901 107.461H120.53ZM175.134 107.461H165.773L127.228 68.9155L129.196 66.9472C130.765 65.3789 132.861 64.515 135.1 64.515C137.339 64.515 139.436 65.3789 141.004 66.9472L174.46 100.404C175.505 101.449 176.081 102.846 176.081 104.34C176.081 105.473 175.75 106.55 175.134 107.461ZM22.2656 163.124H16.6992V146.425H22.2656V163.124ZM173.301 163.124H167.734V146.425H173.301V163.124Z" fill="#43436D"/>
<path d="M58.9692 74.6831L62.9047 70.7477L66.8401 74.6831L62.9047 78.6186L58.9692 74.6831Z" fill="#43436D"/>
<path d="M66.8408 82.5417L70.7763 78.6062L74.7117 82.5417L70.7763 86.4771L66.8408 82.5417Z" fill="#43436D"/>
</svg>
