<svg width="369" height="277" viewBox="0 0 369 277" fill="none" xmlns="http://www.w3.org/2000/svg">
<g clip-path="url(#clip0_101_1317)">
<path d="M323.65 237.149C323.639 238.213 323.588 239.85 323.383 241.848C323.142 244.189 322.72 244.882 322.616 247.305C322.554 248.712 322.435 250.822 322.183 253.448C321.88 256.625 322.05 258.234 322.374 260.311C322.608 261.819 323.102 264.019 324.262 266.569" stroke="black" stroke-miterlimit="10"/>
<path d="M330.418 241.813C331.798 239.37 331.041 236.327 328.726 235.018C326.412 233.708 323.416 234.626 322.036 237.07C320.656 239.513 321.413 242.555 323.728 243.865C326.043 245.175 329.038 244.256 330.418 241.813Z" fill="#BC99FA"/>
<path d="M325.264 234.566C325.257 234.812 325.513 234.855 327.61 236.081C328.781 236.763 329.361 237.105 329.538 237.228C330.428 237.863 330.684 238.216 330.965 238.097C331.426 237.903 331.412 236.683 331.3 235.998C331.253 235.731 331.152 235.165 330.745 234.588C330.114 233.701 329.203 233.445 328.954 233.383C327.293 232.943 325.286 233.888 325.264 234.566Z" fill="black"/>
<path d="M322.727 258.032C323.008 258.115 323.142 257.588 324.082 256.827C324.738 256.297 324.846 256.409 325.923 255.67C325.978 255.63 326.741 255.107 327.614 254.27C328.183 253.722 328.363 253.459 328.421 253.102C328.514 252.517 328.223 252.03 328.172 251.944C327.624 251.053 326.507 250.992 326.403 250.984C325.797 250.963 325.369 251.215 325.055 251.403C324.583 251.68 324.28 252.012 323.877 252.56C323.062 253.661 322.655 254.209 322.453 254.905C322.043 256.25 322.259 257.891 322.727 258.032Z" fill="#33FF99" stroke="black" stroke-miterlimit="10"/>
<path d="M344.784 266.537C344.831 266.537 344.864 266.537 344.907 266.537C345.094 266.533 345.448 266.526 346.539 266.486C347.797 266.443 347.984 266.429 348.125 266.252C348.19 266.169 348.204 266.068 348.283 264.953C348.302 264.705 348.312 264.438 348.312 264.124C348.312 263.493 348.273 262.84 348.092 261.509C347.775 259.211 347.62 258.061 347.264 257.354C346.867 256.564 346.129 255.471 345.757 254.927C345.512 254.566 345.296 254.173 344.849 253.383C344.518 252.791 344.345 252.452 344.374 251.998C344.388 251.767 344.478 251.543 344.658 251.1C344.914 250.479 345.127 250.083 345.3 249.736C345.703 248.921 345.66 248.82 346.042 247.969C346.547 246.84 346.684 246.891 347.058 246.05C347.502 245.062 347.624 244.279 347.837 242.977C347.988 242.036 348.06 241.556 347.992 240.983C347.909 240.362 347.819 239.659 347.256 238.999C346.417 238.011 345.037 237.708 343.433 237.358C342.63 237.185 342.071 237.062 341.311 237.142C340.367 237.235 339.718 237.564 338.922 237.964C338.403 238.224 337.466 238.711 336.565 239.587C335.614 240.518 335.221 241.387 334.832 242.242C334.504 242.974 334.341 243.547 334.028 244.705C333.844 245.379 333.704 246.029 333.433 247.291C333.185 248.442 332.824 250.158 332.824 250.158C332.507 251.662 332.428 252.052 332.183 252.69C331.891 253.444 331.578 253.985 331.34 254.396C330.453 255.922 329.978 256.741 328.972 257.473C327.776 258.349 327.25 258.068 325.913 259.089C325.596 259.33 325.329 259.572 325.106 259.807C324.63 260.297 324.331 260.734 324.216 260.907C320.799 265.981 320.702 266.533 320.926 266.84C321.091 267.071 321.311 266.991 324.933 266.789C326.421 266.706 327.055 266.681 327.924 266.732C329.17 266.8 330.125 266.952 330.125 266.952C330.828 267.063 331.088 267.143 331.668 267.204C332.489 267.287 333.163 267.247 333.596 267.204C336.179 266.851 337.134 266.732 337.361 266.717C337.361 266.717 337.729 266.692 337.776 266.688C337.822 266.685 338.161 266.663 338.168 266.663C338.32 266.652 339.66 266.569 342.442 266.533C342.637 266.53 342.806 266.53 342.961 266.526C343.246 266.522 343.39 266.522 343.574 266.526C344.093 266.522 344.24 266.54 344.784 266.537Z" fill="white" stroke="black" stroke-miterlimit="10"/>
<path d="M343.61 237.639C343.466 237.993 343.228 238.505 342.81 239.093C342.349 239.746 342.017 239.998 341.585 240.536C341.04 241.199 340.81 241.726 340.403 242.646C339.988 243.591 339.74 244.406 339.426 245.646C338.723 248.427 338.929 248.474 338.399 250.259C337.88 252.012 337.671 252.027 337.386 253.401C337.163 254.483 337.257 254.667 336.929 256.337C336.734 257.325 336.633 257.614 336.554 258.378C336.46 259.327 336.547 259.572 336.482 260.369C336.385 261.538 336.096 262.187 335.934 262.815C335.689 263.774 335.61 265.184 336.421 267.128" stroke="black" stroke-miterlimit="10"/>
<path d="M339.595 244.644L336.125 240.067" stroke="black" stroke-miterlimit="10"/>
<path d="M338.885 247.825L334.5 242.703" stroke="black" stroke-miterlimit="10"/>
<path d="M344.853 253.386L336.514 259.024" stroke="black" stroke-miterlimit="10"/>
<path d="M346.013 255.302L336.377 261.422" stroke="black" stroke-miterlimit="10"/>
<path d="M228.989 265.022H137.889C131.33 265.022 125.961 259.651 125.961 253.083V55.8616C125.961 49.2973 131.327 43.9232 137.889 43.9232H229.858C235.94 43.9232 240.917 48.9042 240.917 54.9924V253.083C240.913 259.648 235.547 265.022 228.989 265.022Z" fill="white" stroke="black" stroke-miterlimit="10"/>
<path d="M227.818 136.138H140.353C137.975 136.138 136.029 134.19 136.029 131.809V123.593C136.029 121.213 137.975 119.265 140.353 119.265H227.818C230.196 119.265 232.142 121.213 232.142 123.593V131.809C232.142 134.19 230.196 136.138 227.818 136.138Z" fill="#2F2E40"/>
<path d="M170.994 124.25H173.419C174.749 124.25 175.466 124.942 175.466 125.923C175.466 126.731 174.969 127.258 174.392 127.413C174.889 127.55 175.715 128.026 175.715 129.097C175.715 130.46 174.669 131.063 173.459 131.063H170.994V124.25ZM173.239 127.178C174.442 127.178 174.897 126.742 174.897 125.952C174.897 125.281 174.421 124.737 173.444 124.737H171.516V127.182H173.239V127.178ZM171.52 130.576H173.477C174.392 130.576 175.156 130.129 175.156 129.126C175.156 128.26 174.59 127.665 173.188 127.665H171.52V130.576Z" fill="#F4F4F4"/>
<path d="M183.069 127.608C183.069 129.469 182.057 131.16 179.909 131.16C177.952 131.16 176.81 129.613 176.81 127.654C176.81 125.728 177.913 124.149 179.981 124.149C181.884 124.152 183.069 125.62 183.069 127.608ZM177.383 127.626C177.383 129.195 178.266 130.673 179.938 130.673C181.736 130.673 182.493 129.231 182.493 127.615C182.493 126.028 181.639 124.636 179.96 124.636C178.169 124.639 177.383 126.089 177.383 127.626Z" fill="#F4F4F4"/>
<path d="M190.442 127.608C190.442 129.469 189.43 131.16 187.282 131.16C185.325 131.16 184.183 129.613 184.183 127.654C184.183 125.728 185.286 124.149 187.354 124.149C189.257 124.152 190.442 125.62 190.442 127.608ZM184.756 127.626C184.756 129.195 185.639 130.673 187.311 130.673C189.109 130.673 189.866 129.231 189.866 127.615C189.866 126.028 189.012 124.636 187.332 124.636C185.541 124.639 184.756 126.089 184.756 127.626Z" fill="#F4F4F4"/>
<path d="M191.97 124.25H192.507V127.795C193.062 127.269 195.051 125.44 196.291 124.25H197.008L193.887 127.149L197.184 131.063H196.518L193.498 127.489L192.503 128.347V131.063H191.966V124.25H191.97Z" fill="#F4F4F4"/>
<path d="M108.487 146.904C108.433 147.142 108.451 148.422 108.487 150.983C108.527 153.926 108.599 153.482 108.599 155.174C108.599 158.186 108.379 158.575 108.819 159.365C109.493 160.573 110.898 161.251 112.123 161.349C113.817 161.486 115.125 160.483 115.867 159.917C115.986 159.827 115.882 159.903 117.648 158.29C118.509 157.508 118.945 157.111 119.287 156.815C120.181 156.04 120.221 156.058 121.298 155.134C122.311 154.269 122.815 153.836 123.035 153.591C123.269 153.331 123.629 152.902 124.242 152.418C124.512 152.209 124.721 152.079 124.811 152.011C125.37 151.585 125.856 151.124 126.995 150.103C131.291 146.251 130.804 147.019 131.788 145.926C133.413 144.116 134.307 142.496 135.961 142.247C136.173 142.215 136.508 142.19 137.02 142.053C137.705 141.872 138.714 141.602 139.553 140.729C139.755 140.52 140.31 139.928 140.544 138.965C140.584 138.799 140.746 138.089 140.544 137.202C140.479 136.917 140.274 136.062 139.553 135.326C138.48 134.237 136.8 134.76 136.689 134.222C136.645 134.01 136.898 133.934 137.528 133.025C137.892 132.495 138.083 132.127 138.148 131.99C138.526 131.222 138.559 130.8 138.562 130.583C138.566 130.277 138.566 129.981 138.397 129.88C138.072 129.692 137.362 130.359 136.991 130.706C136.429 131.232 136.08 131.748 135.835 132.112C135.546 132.542 135.363 132.884 135.132 133.31C134.674 134.161 134.584 134.468 134.307 135.005C133.95 135.701 133.615 136.138 133.027 136.906C132.339 137.807 131.518 138.882 130.217 139.964C129.835 140.282 129.164 140.729 127.82 141.62C125.673 143.044 125.788 142.889 124.887 143.521C123.532 144.473 122.094 145.649 121.002 146.539C119.748 147.564 118.941 148.271 118.567 148.029C118.455 147.957 118.408 147.816 118.361 146.994C118.307 146.063 118.318 145.367 118.321 145.01C118.329 144.08 118.329 143.466 118.239 142.695C118.141 141.865 118.091 141.447 117.95 141.288C116.83 140.036 109.46 142.601 108.487 146.904Z" fill="#FCFCFC" stroke="black" stroke-miterlimit="10"/>
<path d="M54.1752 253.426C53.8041 253.985 53.7824 254.973 53.7356 256.954C53.6959 258.591 53.6887 259.421 54.1752 260.041C54.4239 260.358 54.7626 260.6 57.1481 261.145C60.7012 261.953 61.3354 261.733 61.6669 261.585C61.7642 261.541 63.0831 260.928 63.5408 259.601C63.7173 259.085 63.6741 258.732 63.6525 257.945C63.5768 255.32 63.9588 255.028 63.7353 254.378C62.8957 251.955 55.84 250.919 54.1752 253.426Z" fill="#F9F9F9" stroke="#020202" stroke-miterlimit="10"/>
<path d="M100.228 255.85C99.8931 256.636 99.8967 258.032 99.8967 258.165C99.9039 258.941 99.9075 259.568 100.228 260.261C100.942 261.797 102.596 262.306 102.762 262.356C103.432 262.551 103.313 262.32 105.734 262.356C106.999 262.375 107.331 262.439 107.936 262.245C108.354 262.111 109.284 261.812 109.698 261.033C110.167 260.149 109.525 259.5 109.367 257.505C109.223 255.688 109.695 255.457 109.367 254.858C108.242 252.788 101.353 253.21 100.228 255.85Z" fill="#F9F9F9" stroke="#020202" stroke-miterlimit="10"/>
<path d="M56.8743 142.41C56.1572 143.481 57.3103 144.527 57.5337 150.514C57.6238 152.949 57.4617 153.519 57.368 157.959C57.3211 160.27 57.3355 162.258 57.368 166.229C57.4473 176.036 57.6346 176.252 57.5337 180.62C57.4941 182.25 57.3428 184.847 57.0365 190.048C56.6112 197.261 56.4022 200.868 56.2113 203.115C55.5987 210.332 55.0978 210.646 53.732 221.311C53.2924 224.745 52.8348 229.225 51.9159 238.184C50.1754 255.143 50.5177 254.465 50.251 255.092C50.1501 255.331 49.8474 256.016 50.0997 256.708C51.1555 259.63 61.2454 260.586 64.8777 256.182C65.7173 255.165 65.8398 254.31 66.6254 249.596C68.0308 241.138 66.4849 254.768 68.4416 238.844C69.1551 233.044 69.901 230.646 71.9118 220.814C74.4811 208.244 74.8486 204.187 76.2396 196.392C76.5567 194.614 77.108 191.855 78.1927 186.409C80.9602 172.512 81.371 170.943 82.1602 168.71C83.2845 165.515 84.2862 162.68 86.2898 159.116C87.8033 156.429 88.2069 156.317 88.2717 155.477C88.8411 148.072 59.2058 138.929 56.8743 142.41Z" fill="#F6F5F7" stroke="black" stroke-miterlimit="10"/>
<path d="M107.471 107.301C106.455 107.947 105.734 108.791 105.734 108.791C105.266 109.339 104.898 109.985 104.163 111.272C103.554 112.34 103.525 112.492 103.172 112.928C102.484 113.776 102.116 113.79 102.016 114.252C101.904 114.764 102.257 115.193 103.504 116.65C104.779 118.136 105.421 118.883 105.651 119.049C106.304 119.51 107.579 120.412 109.122 120.123C110.433 119.878 111.28 118.839 111.518 118.551C112.437 117.436 112.26 116.614 113.031 116.289C113.489 116.098 113.684 116.333 115.179 116.592C116.037 116.74 116.916 116.895 117.795 116.812C118.84 116.715 119.568 116.311 120.44 115.821C121.766 115.07 122.57 114.317 124.076 112.845C124.368 112.56 125.604 111.345 127.049 109.538C128.487 107.741 128.703 107.146 128.537 106.641C128.303 105.931 127.391 105.639 126.883 105.484C124.93 104.885 123.219 105.476 121.925 105.815C119.186 106.533 116.876 106.508 113.165 106.475C110.862 106.454 109.125 106.252 107.471 107.301Z" fill="white" stroke="black" stroke-miterlimit="10"/>
<path d="M332.367 242.775C332.356 241.004 334.068 239.756 334.929 239.133C335.098 239.01 338.197 236.81 340.103 238.004C340.547 238.281 340.882 238.718 341.332 239.298C341.66 239.724 342.143 240.359 342.489 241.289C342.777 242.068 342.637 242.159 342.903 242.559C343.448 243.385 344.312 243.421 344.309 243.789C344.305 244.106 343.664 244.312 343.069 244.55C341.855 245.04 342.334 245.062 340.176 246.158C337.812 247.36 336.612 247.955 335.714 247.598C335.318 247.442 335.023 247.1 334.435 246.411C333.242 245.03 332.378 244.027 332.367 242.775Z" fill="white" stroke="black" stroke-miterlimit="10"/>
<path d="M280.271 254.436C280.274 254.108 280.26 254.13 280.271 254.065C280.447 252.986 283.319 252.29 285.766 252.369C287.672 252.431 290.476 253.004 290.807 254.313C290.84 254.443 290.933 254.927 290.89 255.511C290.861 255.911 290.764 256.38 290.807 257.123C290.807 257.134 290.807 257.141 290.807 257.148C290.854 257.891 290.728 259.067 290.559 259.565C290.069 261.004 287.582 261.534 287.128 261.632C284.948 262.097 283.215 261.336 282.501 261.011C281.604 260.6 280.88 260.272 280.436 259.482C279.827 258.393 280.029 256.932 280.105 256.38C280.145 256.106 280.263 255.41 280.271 254.436Z" fill="white" stroke="black" stroke-miterlimit="10"/>
<path d="M280.263 173.756C280.058 174.229 279.799 175.614 279.272 178.387C278.779 180.988 278.559 182.564 277.73 188.313C276.966 193.604 276.563 196.244 276.408 197.023C276.148 198.351 275.809 199.905 275.59 202.185C275.518 202.924 275.388 204.439 275.384 206.444C275.373 209.842 275.727 212.41 275.86 213.452C276.069 215.09 275.903 214.523 276.519 226.574C276.833 232.68 277.1 237.888 277.179 239.475C277.413 244.002 277.968 247.81 277.73 249.949C277.618 250.963 277.791 251.991 277.745 253.008C277.712 253.682 277.658 254.389 278.062 254.663C278.3 254.826 278.573 254.75 279.038 254.678C279.734 254.573 280.444 254.638 281.146 254.58C282.126 254.497 284.144 254.559 288.177 254.678C288.991 254.703 289.813 254.624 290.62 254.717C291.676 254.84 292.328 255.056 292.699 254.688C292.987 254.404 292.937 253.938 292.905 253.545C292.807 252.351 293.013 251.143 292.933 249.949C292.843 248.579 292.937 249.311 292.865 245.971C292.832 244.514 292.764 242.649 292.605 240.355C292.555 239.619 292.609 236.179 292.717 229.329C292.717 229.329 292.847 222.577 292.829 215.876C292.822 212.911 292.782 210.881 292.739 209.254C292.703 207.873 292.681 207.497 292.678 207.166C292.616 202.765 295.308 198.675 295.913 197.738C303.845 185.496 310.162 175.74 307.92 171.217C304.753 164.837 283.391 166.543 280.263 173.756Z" fill="#1E1E1E" stroke="black" stroke-miterlimit="10"/>
<path d="M289.006 101.693C289.121 101.639 289.719 101.383 290.382 101.581C290.743 101.689 290.988 101.895 291.427 102.353C292.166 103.121 292.645 103.763 292.75 103.897C293.442 104.784 294.548 105.007 296.274 105.328C299.96 106.017 301.203 105.083 302.169 106.1C303.189 107.175 302.71 109.177 302.667 109.354C302.328 110.688 301.582 110.703 301.124 112.055C300.735 113.206 300.933 114.212 301.29 116.026C301.784 118.526 302.44 119.106 302.007 120.051C301.683 120.758 300.984 121.072 299.582 121.707C298.75 122.082 297.434 122.663 295.614 122.699C294.36 122.724 292.728 122.76 291.979 121.707C291.575 121.137 291.586 120.47 291.593 119.943C291.622 118.111 292.735 117.548 292.418 116.69C292.18 116.041 291.47 116.16 289.279 115.092C287.881 114.41 287.175 114.057 286.8 113.437C286.544 113.015 286.53 112.722 286.361 110.295C286.191 107.893 286.188 107.922 286.195 107.814C286.271 106.724 286.707 105.729 287.571 103.734C288.134 102.447 288.433 101.953 289.006 101.693Z" fill="white"/>
<path d="M232.142 60.4098H135.467V65.3727H232.142V60.4098Z" fill="white" stroke="black" stroke-width="2" stroke-miterlimit="10"/>
<path d="M170.327 110.54H140.512C138.134 110.54 136.188 108.593 136.188 106.212V79.8864C136.188 77.5059 138.134 75.5582 140.512 75.5582H170.327C172.706 75.5582 174.652 77.5059 174.652 79.8864V106.212C174.652 108.593 172.706 110.54 170.327 110.54Z" fill="white" stroke="black" stroke-width="2" stroke-miterlimit="10"/>
<path d="M230.297 81.2245H181.253V86.1874H230.297V81.2245Z" fill="white" stroke="black" stroke-width="2" stroke-miterlimit="10"/>
<path d="M230.657 89.1919H181.614V94.1548H230.657V89.1919Z" fill="white" stroke="black" stroke-width="2" stroke-miterlimit="10"/>
<path d="M230.657 97.1628H181.614V102.126H230.657V97.1628Z" fill="white" stroke="black" stroke-width="2" stroke-miterlimit="10"/>
<path d="M170.349 180.587H140.533C138.155 180.587 136.209 178.64 136.209 176.259V149.933C136.209 147.553 138.155 145.605 140.533 145.605H170.349C172.727 145.605 174.673 147.553 174.673 149.933V176.259C174.673 178.64 172.727 180.587 170.349 180.587Z" fill="white" stroke="black" stroke-width="2" stroke-miterlimit="10"/>
<path d="M230.319 151.272H181.275V156.235H230.319V151.272Z" fill="white" stroke="black" stroke-width="2" stroke-miterlimit="10"/>
<path d="M230.679 159.239H181.635V164.202H230.679V159.239Z" fill="white" stroke="black" stroke-width="2" stroke-miterlimit="10"/>
<path d="M230.679 167.21H181.635V172.173H230.679V167.21Z" fill="white" stroke="black" stroke-width="2" stroke-miterlimit="10"/>
<path d="M227.818 210.131H140.353C137.975 210.131 136.029 208.183 136.029 205.802V197.586C136.029 195.206 137.975 193.258 140.353 193.258H227.818C230.196 193.258 232.142 195.206 232.142 197.586V205.802C232.142 208.183 230.196 210.131 227.818 210.131Z" fill="white" stroke="black" stroke-miterlimit="10"/>
<path d="M170.994 198.239H173.419C174.749 198.239 175.466 198.932 175.466 199.913C175.466 200.72 174.969 201.247 174.392 201.402C174.889 201.539 175.715 202.015 175.715 203.087C175.715 204.45 174.669 205.052 173.459 205.052H170.994V198.239ZM173.239 201.171C174.442 201.171 174.897 200.735 174.897 199.945C174.897 199.274 174.421 198.73 173.444 198.73H171.516V201.171H173.239ZM171.52 204.569H173.477C174.392 204.569 175.156 204.122 175.156 203.119C175.156 202.253 174.59 201.658 173.188 201.658H171.52V204.569Z" fill="white" stroke="black" stroke-miterlimit="10"/>
<path d="M183.066 201.601C183.066 203.462 182.053 205.153 179.905 205.153C177.949 205.153 176.806 203.606 176.806 201.647C176.806 199.721 177.909 198.142 179.977 198.142C181.884 198.142 183.066 199.613 183.066 201.601ZM177.383 201.619C177.383 203.187 178.266 204.666 179.938 204.666C181.736 204.666 182.493 203.227 182.493 201.608C182.493 200.021 181.639 198.629 179.959 198.629C178.169 198.629 177.383 200.082 177.383 201.619Z" fill="white" stroke="black" stroke-miterlimit="10"/>
<path d="M190.439 201.601C190.439 203.462 189.426 205.153 187.278 205.153C185.322 205.153 184.179 203.606 184.179 201.647C184.179 199.721 185.282 198.142 187.35 198.142C189.257 198.142 190.439 199.613 190.439 201.601ZM184.756 201.619C184.756 203.187 185.639 204.666 187.311 204.666C189.109 204.666 189.866 203.227 189.866 201.608C189.866 200.021 189.012 198.629 187.332 198.629C185.541 198.629 184.756 200.082 184.756 201.619Z" fill="white" stroke="black" stroke-miterlimit="10"/>
<path d="M191.97 198.239H192.507V201.784C193.062 201.258 195.051 199.429 196.291 198.239H197.008L193.887 201.139L197.184 205.052H196.518L193.498 201.478L192.503 202.336V205.052H191.966V198.239H191.97Z" fill="white" stroke="black" stroke-miterlimit="10"/>
<path d="M232.503 218.358H135.827V223.32H232.503V218.358Z" fill="white" stroke="black" stroke-width="2" stroke-miterlimit="10"/>
<path d="M232.142 226.761H135.467V231.724H232.142V226.761Z" fill="white" stroke="black" stroke-width="2" stroke-miterlimit="10"/>
<path d="M232.142 235.169H135.467V240.132H232.142V235.169Z" fill="white" stroke="black" stroke-width="2" stroke-miterlimit="10"/>
<path d="M232.142 243.573H135.467V248.535H232.142V243.573Z" fill="white" stroke="black" stroke-width="2" stroke-miterlimit="10"/>
<path d="M232.142 251.98H135.467V256.943H232.142V251.98Z" fill="white" stroke="black" stroke-width="2" stroke-miterlimit="10"/>
<path d="M216.961 44.2876H150.649V49.2505H216.961V44.2876Z" fill="black" stroke="black" stroke-width="2" stroke-miterlimit="10"/>
<path d="M270.707 152.923L216.027 139.762C213.714 139.207 212.279 136.855 212.834 134.543L218.456 111.15C219.011 108.834 221.36 107.399 223.67 107.954L278.35 121.115C280.663 121.671 282.098 124.022 281.543 126.334L275.921 149.728C275.366 152.04 273.02 153.479 270.707 152.923Z" fill="#F9F9F9" stroke="black" stroke-miterlimit="10"/>
<path d="M280.842 128.727L218.331 112.579L216.539 119.529L279.05 135.677L280.842 128.727Z" fill="#9F32FD"/>
<path d="M232.081 135.043C232.742 132.512 230.003 129.604 225.964 128.547C221.924 127.489 218.113 128.683 217.452 131.214C216.791 133.744 219.53 136.653 223.57 137.71C227.609 138.767 231.42 137.573 232.081 135.043Z" fill="#A52FF8" stroke="#672A9E" stroke-miterlimit="10"/>
<path d="M275.405 144.965L247.469 137.803L246.856 140.197L274.793 147.358L275.405 144.965Z" fill="#E2E2E2"/>
<path d="M276.478 140.785L248.542 133.624L247.929 136.017L275.866 143.179L276.478 140.785Z" fill="#E2E2E2"/>
<path d="M289.834 172.609C289.701 173.266 289.856 174.261 290.166 176.248C290.649 179.361 291.37 181.507 291.82 182.975C293.074 187.069 292.487 186.668 294.022 192.677C295.276 197.575 295.903 200.028 297.106 202.271C297.859 203.678 299.261 205.561 302.065 209.33C302.407 209.788 303.146 210.78 306.032 214.513C308.591 217.827 310.58 220.37 311.43 221.459C315.845 227.111 318.054 229.939 318.263 230.17C321.653 233.986 324.904 236.893 326.086 239.544C326.482 240.435 326.864 241.059 327.628 242.299C328.641 243.948 328.954 244.182 329.282 244.283C330.064 244.532 330.724 243.966 332.698 242.628C333.873 241.83 335.678 240.604 337.325 239.652C339.714 238.267 340.839 237.989 340.849 237.225C340.86 236.601 340.114 236.507 338.976 235.021C338.615 234.548 338.248 233.877 337.531 232.554C337.004 231.58 336.738 231.097 336.222 230.058C334.792 227.187 331.473 223.039 329.614 220.63C329.109 219.973 326.76 216.922 324.216 213.185C318.392 204.634 319.088 203.577 316.064 199.732C315.6 199.141 314.583 197.893 314.082 195.985C313.794 194.892 313.812 194.091 313.809 192.071C313.805 190.362 313.747 188.652 313.755 186.943C313.765 182.438 312.616 181.475 311.661 174.813C310.875 169.327 311.52 169.031 310.67 167.975C306.713 163.091 290.959 167.069 289.834 172.609Z" fill="#2F2B33" stroke="black" stroke-miterlimit="10"/>
<path d="M274.374 149.106L246.438 141.944L245.826 144.338L273.762 151.499L274.374 149.106Z" fill="#E2E2E2"/>
<path d="M282.98 125.808C283.453 124.888 284.011 123.94 284.98 123.016C285.467 122.551 286.739 121.371 288.634 120.913C289.661 120.665 289.611 120.931 291.178 120.625C291.787 120.506 292.242 120.376 292.508 120.628C292.84 120.939 292.497 121.451 292.782 121.952C293.06 122.443 293.733 122.508 294.71 122.612C296.18 122.771 297.304 122.504 297.528 122.45C298.299 122.259 299.067 121.931 299.355 121.808C299.459 121.765 299.69 121.664 299.975 121.527C300.778 121.144 301.333 120.798 301.448 120.729C302.331 120.203 303.953 120.12 305.175 120.297C307.863 120.69 309.351 122.461 309.448 122.583C309.459 122.594 309.466 122.605 309.47 122.612C310.623 124.084 310.439 125.187 311.012 129.339C311.646 133.923 311.938 133.404 312.389 137.443C312.663 139.896 312.728 141.696 312.828 144.61C312.955 148.159 312.854 148.318 312.94 152.108C313.045 156.776 313.315 161.865 313.272 165.064C313.236 167.571 313.03 167.145 313.106 168.591C313.149 169.403 313.228 169.861 312.94 170.301C312.414 171.105 311.11 170.929 310.241 171.127C307.146 171.83 306.212 171.278 303.023 171.733C300.839 172.043 301.2 172.314 298.011 172.891C295.971 173.258 294.396 173.41 292.833 173.551C291.496 173.673 289.903 173.742 286.717 173.882C276.285 174.337 280.163 173.825 279.723 173.882C278.984 173.976 277.698 174.178 277.168 173.497C276.851 173.093 276.927 172.552 277.024 171.899C277.381 169.558 277.557 168.389 277.683 167.874C278.112 166.153 277.813 166.449 278.343 163.188C278.667 161.19 278.999 159.722 279.388 158.005C280.227 154.298 280.447 154.132 280.71 152.217C280.797 151.578 281.017 149.843 280.984 147.585C280.977 147.171 280.952 145.901 280.599 142.954C280.227 139.881 280.022 139.308 279.881 137.991C279.341 132.751 281.597 128.509 282.98 125.808Z" fill="#F9F9F9" stroke="black" stroke-width="2" stroke-miterlimit="10"/>
<path d="M297.391 138.1C298.245 138.071 298.31 139.106 300.613 140.332C301.629 140.873 302.649 141.219 304.166 141.739C306.256 142.453 307.092 142.572 307.221 143.145C307.348 143.686 306.735 144.188 306.065 144.884C305.676 145.288 304.814 146.615 303.092 149.266C301.488 151.737 300.685 152.97 299.87 154.723C298.998 156.602 298.973 157.169 298.216 157.619C296.382 158.709 293.575 157.104 293.175 156.876C291.993 156.202 291.701 155.65 290.364 154.395C289.164 153.27 288.678 153.035 285.571 150.839C281.781 148.155 279.882 146.817 279.125 146.125C276.404 143.64 275.593 141.995 273.341 141.659C272.628 141.555 272.195 141.641 270.779 141.411C270.073 141.295 268.725 141.039 267.06 140.419C265.024 139.658 264.004 139.279 263.59 138.435C263.114 137.468 263.428 136.397 263.756 135.294C264.051 134.298 264.343 133.31 265.161 132.895C265.896 132.524 266.732 132.783 268.134 133.393C271.136 134.695 273.633 136.257 273.669 136.206C273.716 136.141 269.554 133.717 269.95 132.567C270.138 132.029 271.248 131.99 271.356 131.986C272.213 131.964 273.132 132.386 274.992 134.385C276.22 135.705 276.858 136.635 277.305 137.198C278.948 139.265 280.555 139.564 283.669 141.252C289.73 144.534 290.263 146.983 292.097 146.464C295.2 145.573 295.11 138.179 297.391 138.1Z" fill="white" stroke="black" stroke-width="2" stroke-miterlimit="10"/>
<path d="M280.57 121.721C280.674 121.404 280.793 121.404 281.727 120.509C282.854 119.427 283.499 118.637 284.314 117.642C285.009 116.794 285.117 116.578 285.197 116.372C285.463 115.676 285.287 115.381 285.308 114.057C285.334 112.3 285.658 112.055 285.362 111.244C285.081 110.472 284.743 110.576 284.426 109.812C284.062 108.932 284.357 108.438 284.48 106.67C284.613 104.784 284.321 104.723 284.534 103.583C284.764 102.36 285.272 101.509 285.69 100.827C287.561 97.7651 290.411 96.2394 290.923 95.9761C293.669 94.5478 296.144 94.4613 297.423 94.4324C298.93 94.3964 300.883 94.3495 303.099 95.3702C305.492 96.4703 306.85 98.2015 307.618 99.1753C308.245 99.976 308.955 100.878 309.434 102.263C309.722 103.092 309.83 103.81 309.874 106.948C309.931 110.998 309.769 111.034 309.985 112.019C310.331 113.628 310.998 114.634 312.299 116.596C313.625 118.601 314.919 120.549 316.98 121.891C317.311 122.104 317.837 122.421 318.356 123.049C319.243 124.12 319.441 125.31 319.567 126.136C319.675 126.825 319.927 128.614 319.127 130.659C318.673 131.809 317.567 132.855 315.383 134.958C313.124 137.133 312.645 137.259 312.36 137.122C311.906 136.902 312.205 136.138 311.686 133.548C311.524 132.733 311.434 132.516 311.232 131.42C311.041 130.388 311.041 130.157 310.883 129.519C310.656 128.61 310.374 127.95 310.158 127.452C309.809 126.641 309.398 125.689 308.699 124.765C307.236 122.832 305.225 121.93 304.587 121.678C302.984 121.047 302.382 121.238 301.942 120.574C301.178 119.424 302.573 117.887 301.668 116.715C301.279 116.21 300.847 116.271 300.4 115.557C300.007 114.93 299.975 114.295 299.96 113.959C299.903 112.654 300.508 111.164 301.614 110.374C302.058 110.057 302.241 110.1 302.497 109.768C303.045 109.058 303.052 107.77 302.443 107.179C301.982 106.732 301.495 106.995 299.964 106.847C299.121 106.768 298.357 106.555 296.825 106.129C295.366 105.725 294.634 105.523 293.741 105.083C292.458 104.452 291.802 104.127 291.373 103.374C290.804 102.378 291.135 101.531 290.49 101.17C290.065 100.928 289.42 101.015 289.168 101.336C288.937 101.628 289.204 101.909 289.056 102.548C288.926 103.114 288.663 103.139 288.397 103.76C288.112 104.42 288.292 104.661 288.123 105.469C287.957 106.241 287.701 106.454 287.352 107.233C287.305 107.337 286.771 108.56 286.692 109.934C286.656 110.533 286.552 112.376 287.795 113.905C287.989 114.147 288.851 115.204 290.274 115.561C291.42 115.849 292.133 115.478 292.476 115.947C292.797 116.387 292.274 116.841 292.256 118.151C292.238 119.417 292.714 119.839 292.422 120.3C292.061 120.866 291.182 120.509 289.777 120.686C287.719 120.946 285.381 122.244 284.101 124.048C283.575 124.791 283.503 125.234 283.056 125.317C281.928 125.512 280.091 123.189 280.57 121.721Z" fill="#050505"/>
<path d="M342.738 241.394C343.073 241.333 343.199 241.628 344.5 242.772C345.819 243.933 346.478 244.514 347.31 245.033C348.222 245.603 348.619 245.686 348.741 246.137C348.975 247.002 347.855 247.969 347.804 248.012C347.087 248.618 346.528 248.517 345.379 248.95C344.536 249.268 344.244 249.542 343.011 250.328C341.134 251.525 340.712 251.594 339.044 252.589C337.581 253.462 336.489 254.292 334.305 255.951C334.305 255.951 331.145 258.353 328.41 259.37C328.132 259.471 327.585 259.659 326.979 259.482C326.857 259.446 326.071 259.24 325.823 258.598C325.776 258.479 325.642 258.075 326.187 256.957C326.677 255.944 327.264 255.28 327.466 255.056C328.14 254.31 328.514 254.021 329.614 253.029C332.828 250.133 331.671 250.75 332.752 249.888C332.961 249.718 333.386 249.394 333.534 248.842C333.613 248.546 333.556 248.38 333.48 247.63C333.329 246.177 333.394 246.039 333.48 245.975C333.747 245.776 334.212 246.285 335.076 246.58C336.158 246.948 337.13 246.736 337.83 246.58C338.345 246.469 339.754 246.158 340.802 245.037C342.28 243.468 341.898 241.545 342.738 241.394Z" fill="#444147" stroke="black" stroke-miterlimit="10"/>
<path d="M108.783 100.853C108.783 100.853 108.109 101.451 107.626 102.382C107.295 103.024 107.259 103.666 107.194 104.946C107.129 106.209 107.093 106.84 107.298 107.467C107.608 108.434 108.221 109.015 108.869 109.617C109.165 109.891 110.556 111.146 112.92 111.85C113.536 112.034 115.348 112.517 117.298 112.098C118.001 111.947 118.372 111.756 118.62 111.438C119.06 110.872 118.739 110.389 119.118 109.455C119.211 109.22 119.543 108.405 120.357 107.965C121.053 107.59 122.17 107.457 122.588 107.965C123.168 108.668 121.972 110.068 122.505 110.612C122.887 111.002 123.954 110.753 124.57 110.198C124.959 109.848 125.136 109.325 125.478 108.297C125.863 107.136 125.824 106.778 126.22 106.479C126.703 106.111 127.485 106.09 127.708 106.396C127.972 106.76 127.348 107.449 127.543 107.637C127.748 107.832 128.649 107.276 129.442 106.645C130.573 105.747 131.269 105.192 131.755 104.247C132.851 102.108 131.946 99.7633 131.6 98.8688C131.377 98.2881 130.797 96.8346 129.37 95.6841C128.926 95.327 128.303 95.0204 127.056 94.4036C125.438 93.5993 124.797 93.4659 124.357 93.4118C123.611 93.318 123.24 93.2711 122.786 93.3829C122.552 93.4406 122.231 93.5633 121.82 93.52C121.402 93.4767 121.154 93.3072 121.103 93.2711C120.97 93.1737 120.999 93.1521 120.855 93.0511C120.714 92.9501 120.581 92.8924 120.112 92.7481C119.662 92.6075 119.633 92.6147 119.59 92.5534C119.453 92.3694 119.637 92.1747 119.683 91.6841C119.701 91.4894 119.658 91.1431 119.543 90.4542C119.474 90.0358 119.428 89.8267 119.356 89.567C119.298 89.3578 119.226 89.2063 119.1 88.9033C118.948 88.5427 118.869 88.3587 118.768 88.2433C118.61 88.0557 118.44 87.9656 118.188 87.8285C117.972 87.7095 117.799 87.6482 117.547 87.558C117.547 87.558 117.251 87.4029 116.956 87.3741C113.867 87.0675 111.586 88.2 111.586 88.2C110.066 88.9791 109.14 89.924 108.693 90.4326C108.08 91.1323 107.489 91.8068 107.204 92.9141C106.862 94.2486 107.197 95.345 107.37 95.8896C107.5 96.2936 108.084 98.1367 109.024 98.2052C109.305 98.2268 109.608 98.0862 109.767 98.2665C109.846 98.3567 109.849 98.4757 109.806 98.9698C109.763 99.4603 109.745 99.7056 109.723 99.7777C109.594 100.275 109.212 100.474 108.783 100.853Z" fill="black" stroke="black" stroke-miterlimit="10"/>
<path d="M59.941 147.874C59.6239 148.404 59.8401 148.924 63.2454 155.647C66.0309 161.151 67.2201 163.437 68.2038 165.407C69.393 167.791 69.2344 167.61 73.9875 178.142C77.5982 186.142 77.9153 186.748 78.6144 188.728C80.045 192.786 80.117 194.228 81.5873 200.306C82.5026 204.075 82.3296 202.928 87.2052 219.988C89.461 227.883 90.4123 231.335 90.8411 232.889C92.6285 239.389 93.2807 240.334 93.6519 243.309C93.9834 245.989 94.2608 247.688 94.8086 251.082C95.3167 254.234 95.5869 255.59 96.7076 256.376C97.9256 257.228 99.1076 256.676 101.832 256.376C108.351 255.659 111.796 257.707 112.905 255.962C113.255 255.413 113.14 254.548 112.905 252.82C112.668 251.042 112.242 250.566 111.914 248.687C111.687 247.378 111.796 247.06 111.666 245.379C111.518 243.471 111.241 242.104 110.841 240.168C109.381 233.134 108.826 230.729 108.361 228.258C107.554 223.97 107.972 224.554 107.039 218.498C106.059 212.154 105.72 212.305 104.394 204.439C103.335 198.142 102.801 194.989 102.657 192.861C102.509 190.65 102.524 189.247 101.915 187.072C101.176 184.432 100.228 183.069 98.6103 180.126C97.086 177.352 97.1184 176.927 94.9743 172.353C91.587 165.118 89.5474 160.772 87.5367 157.962C79.7567 147.102 61.8616 144.642 59.941 147.874Z" fill="#F6F5F7" stroke="#0A0A0A" stroke-miterlimit="10"/>
<path d="M62.3768 123.063C63.8722 121.44 65.6272 120.744 66.2614 120.499C69.2235 119.359 70.7045 118.789 73.3675 117.851C77.3386 116.455 78.398 115.857 81.879 114.793C82.8051 114.508 84.2321 114.093 86.0915 113.718C86.7798 113.581 87.85 113.368 89.1473 113.22C91.8319 112.921 92.2391 113.267 95.594 113.137C97.1651 113.076 98.7363 113.072 100.304 112.971C101.424 112.899 102.848 112.78 103.608 113.631C103.882 113.938 103.85 114.093 104.188 114.457C104.794 115.117 105.464 114.995 106.419 115.366C107.392 115.745 107.313 116.113 108.732 117.105C109.547 117.674 109.824 117.725 111.129 118.428C113.049 119.463 114.437 120.419 115.258 120.993C116.448 121.819 117.341 122.443 118.397 123.474C119.37 124.419 119.871 124.888 120.213 125.624C120.898 127.081 120.473 128.167 120.296 130.255C120.134 132.159 120.354 134.035 120.793 137.782C121.15 140.834 121.51 141.84 120.793 142.579C120.145 143.25 119.395 142.889 117.157 143.405C116.469 143.564 114.963 143.961 113.356 144.812C112.714 145.151 110.653 146.305 108.48 147.376C108.221 147.502 107.842 147.683 107.489 147.542C106.768 147.254 106.714 145.869 106.664 144.069C106.606 142.078 106.967 139.726 106.996 139.521C107.187 138.085 107.374 137.202 106.913 136.873C106.552 136.617 105.99 136.834 105.673 136.956C104.433 137.432 103.763 138.493 103.525 138.857C102.459 140.491 100.83 141.678 99.5579 143.156C96.048 147.236 96.4048 146.882 96.0877 147.21C93.6157 149.757 92.7076 149.883 90.4698 152.505C88.7473 154.525 88.4951 155.38 88.405 155.978C88.2284 157.154 88.5743 158.013 87.9906 158.626C87.4645 159.178 86.5924 159.098 85.76 159.041C81.5295 158.741 83.079 159.286 79.8106 158.875C77.6233 158.6 76.1026 158.409 74.1098 157.8C71.6234 157.039 69.9298 156.087 67.9947 154.987C66.4632 154.117 64.0704 152.739 61.3858 150.355C58.9859 148.224 60.3228 148.815 56.676 144.567C56.4598 144.314 55.9841 143.762 56.0959 143.16C56.1967 142.623 56.7012 142.384 58.0381 141.382C58.467 141.061 58.8778 140.715 59.3066 140.39C60.6867 139.337 61.357 138.399 62.3768 137.288C65.1947 134.212 66.474 134.377 66.4704 133.277C66.4668 131.889 64.4884 131.781 62.3768 128.603C61.0507 126.608 61.0975 125.544 61.2201 124.964C61.2633 124.755 61.4255 124.091 62.3768 123.063Z" fill="#BD85E4" stroke="black" stroke-miterlimit="10"/>
<path d="M277.236 144.999C277.572 144.916 278.062 145.292 279.035 146.038C279.936 146.731 280.39 147.084 280.44 147.535C280.494 147.979 280.235 148.393 279.366 149.273C277.993 150.666 276.793 151.506 276.793 151.506C275.244 152.512 274.267 153.288 273.64 153.84C273.417 154.038 272.952 154.456 272.217 154.813C272.217 154.813 271.489 155.167 270.689 155.311C267.799 155.827 264.639 152.905 264.091 152.404C263.86 152.191 262.844 151.254 263.006 151.012C263.114 150.85 263.702 151.102 264.552 151.383C266.159 151.917 265.99 151.65 268.361 152.299C270.145 152.79 270.52 153.017 271.554 153.039C272.577 153.061 273.143 152.862 273.33 152.79C274.505 152.343 275.132 151.459 275.312 151.178C275.662 150.64 275.719 150.262 276.022 148.801C276.703 145.533 276.88 145.086 277.236 144.999Z" fill="white" stroke="black" stroke-miterlimit="10"/>
<path d="M73.7351 207.923C73.8324 207.905 74.2576 206.001 75.1116 202.188C75.6161 199.931 75.8575 198.791 76.1026 197.391C76.2792 196.385 76.4774 195.155 76.5422 194.744C76.8918 192.562 76.8882 192.378 77.0936 191.325C77.3026 190.25 77.3926 189.994 77.5908 188.843C77.8107 187.567 77.8575 186.95 77.6881 186.236C77.6089 185.897 77.508 185.648 77.1476 184.93C76.4089 183.444 75.8251 182.459 75.4792 181.832C74.9098 180.8 74.6828 180.183 74.1062 178.816C73.3639 177.06 73.418 177.312 70.9676 171.902C65.901 160.714 63.8795 155.675 63.2633 155.877C62.9173 155.989 63.1768 157.674 63.2669 158.243C64.856 168.274 71.2126 208.378 73.7351 207.923Z" fill="#050505" stroke="black" stroke-miterlimit="10"/>
<path d="M53.4833 259.947C53.0509 260.308 53.2887 260.77 53.0689 262.677C52.8059 264.953 52.3266 265.502 52.7374 266.068C53.1662 266.652 54.0599 266.584 55.8689 266.548C57.5229 266.512 59.1805 266.638 60.8381 266.566C61.9444 266.515 61.3858 266.576 70.2073 266.757C73.5045 266.822 75.2269 266.843 75.4432 266.162C75.6269 265.577 74.636 264.686 74.5459 264.607C73.9657 264.088 73.3711 263.94 72.7297 263.738C71.2018 263.262 69.9874 262.825 69.5983 262.681C67.4001 261.866 67.0217 261.329 65.6308 260.863C65.3101 260.755 64.8236 260.614 64.3191 260.207C63.9804 259.933 63.9371 259.785 63.7065 259.684C63.1047 259.417 62.3696 259.947 61.912 260.203C60.7444 260.852 59.5517 260.658 57.3968 260.499C55.022 260.315 54.168 259.377 53.4833 259.947Z" fill="#050505"/>
<path d="M99.5074 260.694C99.0714 261.224 99.302 261.859 99.3417 262.843C99.4317 264.993 98.484 265.599 98.9273 266.317C99.3597 267.016 100.542 266.894 103.118 266.782C103.118 266.782 105.821 266.663 109.338 266.649C112.988 266.631 114.812 266.623 115.842 266.782C115.842 266.782 117.565 267.049 119.478 266.616C119.543 266.602 120.174 266.454 120.855 266.01C121.251 265.754 121.482 265.603 121.485 265.408C121.492 264.993 120.502 264.719 119.255 264.25C118.123 263.824 118.638 263.857 115.619 262.349C113.276 261.181 113.518 261.437 112.725 260.943C112.505 260.806 111.777 260.344 110.743 259.951C110.022 259.677 109.677 259.633 109.338 259.702C108.931 259.785 108.772 259.976 108.098 260.445C107.388 260.943 107.032 261.192 106.61 261.354C106.365 261.451 106.138 261.502 104.131 261.437C102.405 261.379 102.214 261.329 101.983 261.188C101.345 260.802 101.309 260.293 100.743 260.196C100.293 260.117 99.7885 260.351 99.5074 260.694Z" fill="#050505"/>
<path d="M62.73 137.01L89.5726 115.424" stroke="black" stroke-width="2" stroke-miterlimit="10"/>
<path d="M328.606 70.8181C331.614 63.5505 328.166 55.2185 320.905 52.2081C313.644 49.1976 305.319 52.6488 302.312 59.9164C299.304 67.1841 302.752 75.5161 310.013 78.5265C317.274 81.537 325.599 78.0858 328.606 70.8181Z" fill="#FEFDFF" stroke="black" stroke-miterlimit="10"/>
<path d="M316.468 64.72V60.4171C317.65 60.7164 318.497 61.5244 318.497 62.4693C318.497 62.8697 318.951 63.1943 319.513 63.1943C320.075 63.1943 320.529 62.8697 320.529 62.4693C320.529 60.7164 318.781 59.2521 316.468 58.913V58.116C316.468 57.7156 316.014 57.391 315.452 57.391C314.889 57.391 314.435 57.7156 314.435 58.116V58.913C312.122 59.2485 310.374 60.7164 310.374 62.4693C310.374 64.2222 312.122 65.6866 314.435 66.0256V70.3285C313.253 70.0291 312.407 69.2212 312.407 68.2762C312.407 67.8759 311.953 67.5513 311.39 67.5513C310.828 67.5513 310.374 67.8759 310.374 68.2762C310.374 70.0291 312.122 71.4935 314.435 71.8325V72.6296C314.435 73.03 314.889 73.3546 315.452 73.3546C316.014 73.3546 316.468 73.03 316.468 72.6296V71.8325C318.781 71.4971 320.529 70.0291 320.529 68.2762C320.529 66.5233 318.781 65.0554 316.468 64.72ZM312.407 62.4693C312.407 61.5244 313.253 60.7164 314.435 60.4171V64.5216C313.257 64.2222 312.407 63.4143 312.407 62.4693ZM316.468 70.3249V66.2204C317.65 66.5197 318.497 67.3276 318.497 68.2726C318.497 69.2212 317.65 70.0255 316.468 70.3249Z" fill="#983BE0"/>
<path d="M287.031 73.1345C288.856 73.1345 290.335 71.6537 290.335 69.8271C290.335 68.0004 288.856 66.5197 287.031 66.5197C285.206 66.5197 283.726 68.0004 283.726 69.8271C283.726 71.6537 285.206 73.1345 287.031 73.1345Z" fill="#FEFDFF" stroke="#070707" stroke-miterlimit="10"/>
<path d="M77.998 252.402C79.823 252.402 81.3025 250.921 81.3025 249.094C81.3025 247.268 79.823 245.787 77.998 245.787C76.173 245.787 74.6936 247.268 74.6936 249.094C74.6936 250.921 76.173 252.402 77.998 252.402Z" fill="#FEFDFF" stroke="#070707" stroke-miterlimit="10"/>
<path d="M109.821 6.61482C111.646 6.61482 113.125 5.13404 113.125 3.30741C113.125 1.48078 111.646 0 109.821 0C107.996 0 106.516 1.48078 106.516 3.30741C106.516 5.13404 107.996 6.61482 109.821 6.61482Z" fill="#FEFDFF" stroke="#070707" stroke-miterlimit="10"/>
<path d="M84.6753 53.0556V45.4417H80.2394C80.0809 44.98 79.8935 44.5256 79.6773 44.0892L82.8123 40.9513L77.4359 35.5628L74.3008 38.7006C73.8612 38.4842 73.4108 38.2967 72.9495 38.138V33.7017H65.3425V38.1416C64.8812 38.3003 64.4272 38.4878 63.9912 38.7042L60.8561 35.5664L55.4761 40.9513L58.6111 44.0892C58.3949 44.5292 58.2075 44.98 58.049 45.4417H53.613V53.0556H58.049C58.2075 53.5173 58.3949 53.9717 58.6111 54.4081L55.4761 57.546L60.8561 62.9309L63.9912 59.793C64.4308 60.0094 64.8812 60.197 65.3425 60.3557V64.7956H72.9495V60.3557C73.4108 60.197 73.8648 60.0094 74.3008 59.793L77.4359 62.9309L82.8159 57.546L79.6809 54.4081C79.8971 53.9681 80.0845 53.5173 80.243 53.0556H84.6753ZM80.1277 57.5496L77.4395 60.2403L74.6396 57.4378L74.0089 57.7985C73.299 58.2061 72.5387 58.5198 71.7495 58.7363L71.0505 58.9274V62.8913H67.2415V58.9274L66.5425 58.7363C65.7533 58.5198 64.9929 58.2061 64.283 57.7985L63.6524 57.4378L60.8525 60.2403L58.1643 57.5496L60.9642 54.7472L60.6039 54.116C60.2003 53.4054 59.8832 52.6444 59.6669 51.8545L59.476 51.1548H55.5157V47.3461H59.476L59.6669 46.6464C59.8832 45.8565 60.1967 45.0954 60.6039 44.3849L60.9642 43.7537L58.1643 40.9513L60.8525 38.2606L63.6524 41.0631L64.283 40.7024C64.9929 40.2984 65.7533 39.981 66.5425 39.7646L67.2415 39.5735V35.606H71.0468V39.5699L71.7459 39.761C72.5351 39.9774 73.2954 40.2912 74.0053 40.6988L74.6359 41.0595L77.4359 38.257L80.1241 40.9477L77.3242 43.7501L77.6845 44.3813C78.0881 45.0918 78.4052 45.8529 78.6214 46.6428L78.8124 47.3425H82.7727V51.1512H78.8124L78.6214 51.8509C78.4052 52.6408 78.0917 53.4018 77.6845 54.1124L77.3242 54.7436L80.1277 57.5496Z" fill="black"/>
<path d="M69.1443 43.22C65.8218 43.22 63.1228 45.925 63.1228 49.2469C63.1228 52.5687 65.8254 55.2738 69.1443 55.2738C72.4667 55.2738 75.1658 52.5687 75.1658 49.2469C75.1658 45.925 72.4631 43.22 69.1443 43.22ZM69.1443 53.373C66.8705 53.373 65.0219 51.5228 65.0219 49.2469C65.0219 46.971 66.8705 45.1207 69.1443 45.1207C71.4181 45.1207 73.2667 46.971 73.2667 49.2469C73.2667 51.5228 71.4145 53.373 69.1443 53.373Z" fill="black"/>
<path d="M61.3642 74.2706V69.4483H58.7048C58.6111 69.1562 58.4958 68.8676 58.3697 68.5899L60.2507 66.6026L57.0255 63.1942L55.1445 65.1815C54.8815 65.0445 54.6112 64.9254 54.3337 64.8244V62.0148H49.7717V64.8244C49.4942 64.9254 49.2239 65.0445 48.9609 65.1815L47.0798 63.1942L43.8547 66.6026L45.7357 68.5899C45.606 68.8676 45.4943 69.1562 45.4006 69.4483H42.7412V74.2706H45.4006C45.4943 74.5627 45.6096 74.8513 45.7357 75.129L43.8547 77.1163L47.0798 80.5247L48.9609 78.5374C49.2239 78.6744 49.4942 78.7935 49.7717 78.8945V81.7041H54.3337V78.8945C54.6112 78.7935 54.8815 78.6744 55.1445 78.5374L57.0255 80.5247L60.2507 77.1163L58.3697 75.129C58.4994 74.8513 58.6111 74.5627 58.7048 74.2706H61.3642ZM58.6363 77.1163L57.0255 78.8223L55.3463 77.0478L54.9679 77.275C54.5427 77.5311 54.0851 77.7331 53.613 77.8701L53.195 77.9928V80.5031H50.914V77.9928L50.496 77.8701C50.0239 77.7331 49.5663 77.5347 49.1411 77.275L48.7627 77.0478L47.0834 78.8223L45.4727 77.1163L47.1519 75.3418L46.9357 74.9414C46.6943 74.4906 46.5033 74.0109 46.3736 73.5095L46.2582 73.0659H43.8835V70.6566H46.2582L46.3736 70.213C46.5033 69.7116 46.6907 69.2319 46.9357 68.7811L47.1519 68.3807L45.4727 66.6062L47.0834 64.9002L48.7627 66.6747L49.1411 66.4475C49.5663 66.1914 50.0239 65.9894 50.496 65.8524L50.914 65.7297V63.2194H53.195V65.7297L53.613 65.8524C54.0851 65.9894 54.5427 66.1878 54.9679 66.4475L55.3463 66.6747L57.0255 64.9002L58.6363 66.6062L56.9571 68.3807L57.1733 68.7811C57.4147 69.2319 57.6057 69.7116 57.7354 70.213L57.8507 70.6566H60.2255V73.0659H57.8507L57.7354 73.5095C57.6057 74.0109 57.4183 74.4906 57.1733 74.9414L56.9571 75.3418L58.6363 77.1163Z" fill="#A236F1"/>
<path d="M52.0526 68.0416C50.0635 68.0416 48.4419 69.7548 48.4419 71.8576C48.4419 73.9639 50.0599 75.6736 52.0526 75.6736C54.0454 75.6736 55.6633 73.9603 55.6633 71.8576C55.6633 69.7548 54.0454 68.0416 52.0526 68.0416ZM52.0526 74.4689C50.6905 74.4689 49.5806 73.2967 49.5806 71.8576C49.5806 70.4185 50.6905 69.2463 52.0526 69.2463C53.4147 69.2463 54.5246 70.4185 54.5246 71.8576C54.5246 73.2967 53.4147 74.4689 52.0526 74.4689Z" fill="#A236F1"/>
<path d="M273.759 76.8314L273.817 82.375" stroke="black" stroke-width="2" stroke-miterlimit="10"/>
<path d="M270.819 79.6014H276.869" stroke="black" stroke-width="2" stroke-miterlimit="10"/>
<path d="M131.744 14.3406L131.798 19.8842" stroke="black" stroke-width="2" stroke-miterlimit="10"/>
<path d="M128.804 17.1141H134.851" stroke="black" stroke-width="2" stroke-miterlimit="10"/>
<path d="M17.2681 198.924L17.3257 204.464" stroke="black" stroke-width="2" stroke-miterlimit="10"/>
<path d="M14.3276 201.694H20.3743" stroke="black" stroke-width="2" stroke-miterlimit="10"/>
<path d="M302.418 9.28748L302.472 14.8311" stroke="black" stroke-width="2" stroke-miterlimit="10"/>
<path d="M299.477 12.0575H305.524" stroke="black" stroke-width="2" stroke-miterlimit="10"/>
<path d="M264.566 23.5775C265.406 23.6388 266.101 23.6424 266.606 23.6316C267.82 23.6063 268.119 23.5017 268.314 23.4116C268.736 23.2168 269.024 22.8922 269.582 22.2538C269.961 21.8174 270.411 21.298 270.905 20.4901C271.669 19.2349 271.478 19.0365 272.008 18.4486C272.721 17.6588 273.633 17.4063 274.047 17.2909C275.417 16.9086 276.584 17.2332 277.078 17.4027" stroke="black" stroke-width="2" stroke-miterlimit="10"/>
<path d="M17.3508 40.165C18.1904 40.2263 18.8859 40.2299 19.3904 40.2191C20.6048 40.1938 20.9039 40.0893 21.0985 39.9991C21.5201 39.8043 21.8084 39.4797 22.3669 38.8413C22.7453 38.4049 23.1957 37.8855 23.6894 37.0776C24.4534 35.8224 24.2624 35.6241 24.7921 35.0362C25.5056 34.2463 26.4173 33.9938 26.8317 33.8784C28.201 33.4961 29.3686 33.8207 29.8622 33.9902" stroke="black" stroke-width="2" stroke-miterlimit="10"/>
<path d="M340.846 166.301C341.685 166.362 342.381 166.366 342.885 166.355C344.1 166.33 344.399 166.225 344.593 166.135C345.015 165.94 345.303 165.616 345.862 164.977C346.24 164.541 346.691 164.021 347.184 163.214C347.948 161.958 347.757 161.76 348.287 161.172C349 160.382 349.912 160.13 350.327 160.014C351.696 159.632 352.863 159.957 353.357 160.126" stroke="black" stroke-width="2" stroke-miterlimit="10"/>
<path d="M219.249 266.851C219.022 266.865 218.766 266.883 216.996 266.944C215.386 267.002 215.144 267.002 214.95 266.771C214.86 266.667 214.831 266.53 214.633 265.029C214.586 264.694 214.55 264.333 214.524 263.907C214.47 263.053 214.46 262.165 214.579 260.351C214.784 257.213 214.881 255.644 215.278 254.652C215.717 253.545 216.564 252.001 216.989 251.23C217.27 250.721 217.515 250.166 218.013 249.058C218.384 248.229 218.575 247.753 218.496 247.14C218.46 246.829 218.323 246.534 218.052 245.953C217.67 245.138 217.364 244.622 217.115 244.171C216.528 243.107 216.575 242.963 216.009 241.848C215.267 240.37 215.094 240.453 214.543 239.349C213.89 238.051 213.663 237.008 213.278 235.262C213 234.004 212.867 233.358 212.907 232.579C212.957 231.731 213.011 230.772 213.67 229.827C214.658 228.41 216.398 227.876 218.413 227.252C219.422 226.942 220.128 226.729 221.108 226.761C222.323 226.801 223.184 227.187 224.232 227.652C224.917 227.959 226.157 228.525 227.385 229.632C228.679 230.801 229.259 231.941 229.832 233.062C230.315 234.022 230.571 234.783 231.072 236.319C231.367 237.217 231.602 238.079 232.059 239.764C232.477 241.3 233.086 243.583 233.086 243.583C233.62 245.585 233.756 246.104 234.128 246.948C234.567 247.94 235.014 248.64 235.356 249.174C236.625 251.154 237.302 252.218 238.654 253.116C240.257 254.187 240.909 253.758 242.708 255.02C243.904 255.861 244.574 256.719 245.035 257.318C246.246 258.898 247.634 260.712 246.938 261.967C246.358 263.013 244.841 262.753 239.936 263.965C238.156 264.405 237.71 264.6 236.513 264.961C236.29 265.029 235.248 265.35 234.066 265.639C234.066 265.639 230.964 266.389 228.744 266.393C228.733 266.393 228.423 266.393 228.211 266.393C228.153 266.393 227.717 266.393 227.71 266.393C227.515 266.393 225.793 266.403 222.236 266.613C221.649 266.645 221.241 266.674 220.787 266.706C219.969 266.789 219.822 266.814 219.249 266.851Z" fill="white" stroke="black" stroke-miterlimit="10"/>
<path d="M218.222 227.652C218.434 228.114 218.787 228.788 219.371 229.546C220.02 230.386 220.463 230.696 221.065 231.382C221.818 232.229 222.16 232.922 222.758 234.13C223.371 235.371 223.76 236.449 224.265 238.097C225.407 241.794 225.148 241.874 225.98 244.243C226.794 246.566 227.068 246.566 227.548 248.398C227.93 249.845 227.825 250.101 228.391 252.326C228.726 253.646 228.881 254.025 229.047 255.053C229.252 256.326 229.158 256.669 229.313 257.736C229.54 259.309 229.966 260.16 230.229 260.993C230.629 262.266 230.848 264.171 229.984 266.872" stroke="black" stroke-miterlimit="10"/>
<path d="M223.962 236.756L227.998 230.245" stroke="black" stroke-miterlimit="10"/>
<path d="M225.151 240.997L230.308 233.661" stroke="black" stroke-miterlimit="10"/>
<path d="M218.009 249.069L229.158 255.922" stroke="black" stroke-miterlimit="10"/>
<path d="M216.694 251.767L229.544 259.154" stroke="black" stroke-miterlimit="10"/>
<path d="M250.257 205.088C248.859 204.973 247.89 204.904 246.661 205.272C245.144 205.727 244.207 206.571 243.064 207.591C242.322 208.259 240.978 209.485 239.861 211.487C238.683 213.6 238.398 215.432 238.11 217.239C237.868 218.78 237.854 219.966 237.818 222.343C237.8 223.732 237.836 225.048 237.915 227.631C237.983 229.982 238.11 233.477 238.11 233.477C238.218 236.539 238.254 237.336 238.11 238.675C237.94 240.251 237.656 241.408 237.432 242.292C236.607 245.563 236.16 247.316 234.812 249.062C233.205 251.136 232.218 250.743 230.441 253.145C229.202 254.829 228.622 256.514 228.398 257.228C226.755 262.501 225.93 265.134 226.993 266.104C227.461 266.533 228.384 266.638 230.225 266.843C231.912 267.031 232.355 266.865 236.495 266.851C236.495 266.851 236.495 266.851 239.338 266.854C242.509 266.858 242.509 266.858 242.509 266.858C243.864 266.865 244.221 266.879 245.032 266.861C246.066 266.836 246.808 266.778 247.09 266.76C249.457 266.598 250.711 266.879 254.275 266.876C257.241 266.872 257.504 266.674 260.156 266.771C262.563 266.858 263.003 266.887 263.003 266.887C263.021 266.887 264.877 266.991 267.071 266.89C267.565 266.869 268.185 266.829 268.754 266.457C269.175 266.18 269.413 265.826 269.586 265.491C269.803 265.072 270.347 264.023 270.069 260.853C269.936 259.312 269.846 258.295 269.485 256.586C269.222 255.334 268.887 254.054 268.026 251.482C266.541 247.031 265.806 244.802 264.916 243.504C263.929 242.054 262.257 240.114 261.421 239.143C260.866 238.501 260.336 237.787 259.284 236.359C258.491 235.284 258.066 234.667 257.925 233.762C257.857 233.308 257.911 232.832 258.023 231.908C258.181 230.606 258.369 229.762 258.505 229.03C258.833 227.302 258.718 227.115 258.988 225.319C259.349 222.945 259.597 223.003 259.864 221.236C260.181 219.147 260.062 217.575 259.864 214.924C259.72 213.02 259.648 212.046 259.28 210.935C258.884 209.73 258.444 208.37 257.237 207.223C255.453 205.51 253.05 205.319 250.257 205.088Z" fill="white" stroke="black" stroke-miterlimit="10"/>
<path d="M250.657 205.582C250.574 206.315 250.387 207.407 249.943 208.691C249.453 210.112 249.017 210.715 248.524 211.894C247.911 213.369 247.738 214.477 247.457 216.417C247.169 218.404 247.1 220.089 247.1 222.635C247.104 228.338 247.461 228.363 247.338 232.056C247.219 235.67 246.873 235.76 246.981 238.555C247.071 240.763 247.298 241.095 247.457 244.489C247.551 246.501 247.5 247.096 247.695 248.633C247.933 250.537 248.185 251.002 248.408 252.589C248.502 253.246 248.552 253.827 248.578 254.353C248.657 256.056 248.549 257.347 248.527 257.585C248.43 258.851 248.87 261.365 251.169 266.804" stroke="black" stroke-miterlimit="10"/>
<path d="M246.967 220.597L239.331 212.562" stroke="black" stroke-miterlimit="10"/>
<path d="M247.126 227.097L237.749 218.246" stroke="black" stroke-miterlimit="10"/>
<path d="M259.291 236.355L247.897 249.924" stroke="black" stroke-miterlimit="10"/>
<path d="M262.004 239.811L248.671 254.707" stroke="black" stroke-miterlimit="10"/>
<path d="M217.451 267.229C216.391 267.146 214.755 266.883 213.054 265.989C211.13 264.975 210.071 263.651 208.759 261.978C207.991 261 207.552 260.301 205.383 256.535C203.336 252.975 202.305 251.175 201.905 250.234C201.285 248.773 200.518 246.584 200.064 243.742" stroke="black" stroke-miterlimit="10"/>
<path d="M211.49 264.301C211.858 264.153 211.591 263.413 212.002 261.678C212.287 260.47 212.496 260.506 213.079 258.692C213.112 258.595 213.519 257.303 213.797 255.547C213.98 254.396 213.966 253.927 213.746 253.451C213.386 252.676 212.694 252.351 212.568 252.297C211.274 251.72 210.024 252.629 209.908 252.716C209.238 253.221 208.979 253.895 208.781 254.393C208.496 255.132 208.427 255.799 208.424 256.806C208.413 258.825 208.406 259.835 208.73 260.842C209.357 262.789 210.874 264.542 211.49 264.301Z" fill="#33FF99" stroke="black" stroke-miterlimit="10"/>
<path d="M200.572 249.91C203.724 249.91 206.28 247.523 206.28 244.579C206.28 241.635 203.724 239.248 200.572 239.248C197.419 239.248 194.864 241.635 194.864 244.579C194.864 247.523 197.419 249.91 200.572 249.91Z" fill="#BC99FA"/>
<path d="M204.532 240.741C204.388 240.965 204.103 240.864 201.224 240.806C199.62 240.774 198.813 240.759 198.568 240.774C197.278 240.853 196.799 241.026 196.59 240.763C196.244 240.337 197.004 239.255 197.545 238.703C197.757 238.487 198.211 238.036 198.975 237.747C200.164 237.3 201.242 237.574 201.534 237.654C203.48 238.18 204.925 240.124 204.532 240.741Z" fill="black"/>
<path d="M207.537 266.713C206.777 265.887 205.577 264.639 203.991 263.211C202.136 261.541 201.292 261.278 199.494 259.457C198.446 258.396 196.856 256.824 194.788 254.937C192.287 252.654 191.296 251.28 190.096 249.433C189.228 248.095 188.089 246.039 187.264 243.259" stroke="black" stroke-miterlimit="10"/>
<path d="M187.898 249.354C191.051 249.354 193.606 246.967 193.606 244.023C193.606 241.079 191.051 238.692 187.898 238.692C184.746 238.692 182.19 241.079 182.19 244.023C182.19 246.967 184.746 249.354 187.898 249.354Z" fill="#BC99FA"/>
<path d="M191.213 239.688C191.109 239.93 190.806 239.868 187.952 240.204C186.36 240.391 185.563 240.485 185.318 240.532C184.053 240.784 183.61 241.022 183.358 240.792C182.951 240.416 183.534 239.244 183.981 238.624C184.158 238.382 184.533 237.874 185.25 237.484C186.356 236.882 187.459 237.004 187.765 237.041C189.776 237.297 191.513 239.024 191.213 239.688Z" fill="black"/>
<path d="M2.2666 267.2H364.178" stroke="black" stroke-width="3" stroke-miterlimit="10"/>
<path d="M280.145 259.312C280.296 259.374 280.646 259.547 281.179 259.644C281.813 259.756 281.997 259.63 282.418 259.767C282.995 259.954 283.006 260.311 283.492 260.593C284.062 260.925 284.375 260.632 285.806 260.593C287.489 260.546 287.683 260.932 288.451 260.593C288.973 260.362 289.139 260.073 289.856 259.889C290.224 259.796 290.681 259.687 291.052 259.929C291.416 260.167 291.503 260.618 291.55 260.838C291.676 261.476 291.388 261.668 291.51 262.245C291.607 262.71 291.809 262.649 292.047 263.237C292.278 263.806 292.116 263.925 292.296 264.975C292.433 265.783 292.595 266.09 292.418 266.255C292.242 266.425 291.889 266.295 291.593 266.216C291.049 266.064 291.074 266.18 288.62 266.216C287.64 266.23 287.889 266.209 286.184 266.216C284.364 266.223 284.044 266.248 282.714 266.255C281.071 266.266 281.006 266.23 278.624 266.216C275.817 266.194 276.12 266.245 274.285 266.216C269.031 266.133 270.357 266.025 269.453 266.093C268.174 266.191 267.222 266.374 266.913 265.884C266.621 265.422 267.075 264.654 267.201 264.438C267.839 263.352 268.931 262.916 271.085 262.079C272.693 261.458 274.329 260.921 275.918 260.261C277.258 259.698 279.082 258.88 280.145 259.312Z" fill="#444147" stroke="black" stroke-miterlimit="10"/>
</g>
<defs>
<clipPath id="clip0_101_1317">
<rect width="369" height="277" fill="white"/>
</clipPath>
</defs>
</svg>
