<svg width="362" height="261" viewBox="0 0 362 261" fill="none" xmlns="http://www.w3.org/2000/svg">
<g clip-path="url(#clip0_101_1133)">
<path d="M301.997 238.045C303.962 237.368 304.955 235.21 304.215 233.224C303.475 231.238 301.282 230.176 299.317 230.853C297.353 231.529 296.36 233.688 297.1 235.674C297.84 237.66 300.032 238.721 301.997 238.045Z" fill="#BC99FA"/>
<path d="M297.087 233.068C297.243 233.174 297.384 233.027 299.081 232.195C300.029 231.729 300.502 231.498 300.658 231.44C301.453 231.135 301.793 231.118 301.835 230.886C301.906 230.516 301.11 230.023 300.612 229.816C300.418 229.734 300.004 229.568 299.456 229.592C298.604 229.632 298.049 230.105 297.901 230.237C296.904 231.118 296.653 232.779 297.087 233.068Z" fill="black"/>
<path d="M209.052 235.722C209.451 236.647 210.034 238.088 210.618 239.896C211.3 242.013 211.187 242.771 212.021 244.908C212.505 246.152 213.209 248.025 213.99 250.393C214.938 253.258 215.708 254.591 216.801 256.273C217.592 257.493 218.883 259.216 220.908 261" stroke="black" stroke-miterlimit="10"/>
<path d="M284.485 260.901C284.308 260.912 284.106 260.925 282.728 260.969C281.469 261.01 281.282 261.01 281.13 260.847C281.059 260.772 281.038 260.674 280.882 259.607C280.847 259.369 280.819 259.111 280.797 258.808C280.755 258.2 280.748 257.568 280.84 256.273C280.999 254.037 281.077 252.919 281.384 252.212C281.727 251.423 282.388 250.322 282.721 249.772C282.94 249.408 283.131 249.014 283.519 248.225C283.809 247.634 283.958 247.294 283.898 246.859C283.869 246.638 283.763 246.428 283.551 246.013C283.254 245.432 283.014 245.065 282.82 244.742C282.36 243.984 282.399 243.882 281.957 243.087C281.377 242.033 281.243 242.091 280.812 241.306C280.302 240.382 280.126 239.637 279.825 238.394C279.61 237.496 279.504 237.038 279.535 236.48C279.574 235.875 279.617 235.192 280.133 234.519C280.903 233.51 282.261 233.129 283.834 232.684C284.622 232.463 285.174 232.31 285.938 232.334C286.885 232.361 287.557 232.637 288.377 232.97C288.911 233.187 289.879 233.592 290.837 234.38C291.848 235.213 292.301 236.025 292.746 236.824C293.124 237.507 293.322 238.05 293.715 239.145C293.945 239.784 294.128 240.399 294.486 241.598C294.811 242.693 295.288 244.32 295.288 244.32C295.705 245.748 295.811 246.118 296.101 246.72C296.444 247.427 296.794 247.926 297.059 248.307C298.049 249.717 298.579 250.475 299.633 251.117C300.884 251.882 301.393 251.576 302.797 252.473C303.73 253.071 304.253 253.683 304.614 254.111C305.558 255.236 306.643 256.531 306.099 257.425C305.646 258.169 304.462 257.986 300.633 258.849C299.244 259.161 298.894 259.301 297.961 259.559C297.787 259.607 296.974 259.838 296.052 260.042C296.052 260.042 293.63 260.575 291.898 260.579C291.891 260.579 291.647 260.579 291.481 260.579C291.435 260.579 291.095 260.579 291.088 260.579C290.936 260.579 289.593 260.585 286.814 260.735C286.355 260.759 286.036 260.779 285.683 260.803C285.047 260.857 284.93 260.874 284.485 260.901Z" fill="white" stroke="black" stroke-miterlimit="10"/>
<path d="M283.682 232.966C283.848 233.296 284.124 233.775 284.58 234.315C285.086 234.914 285.432 235.135 285.902 235.624C286.489 236.229 286.758 236.722 287.224 237.581C287.702 238.465 288.006 239.233 288.402 240.409C289.292 243.043 289.091 243.1 289.741 244.789C290.378 246.445 290.59 246.445 290.965 247.75C291.261 248.779 291.18 248.963 291.622 250.55C291.884 251.491 292.004 251.76 292.135 252.494C292.294 253.401 292.223 253.646 292.343 254.407C292.52 255.529 292.852 256.133 293.057 256.728C293.368 257.636 293.542 258.992 292.866 260.918" stroke="black" stroke-miterlimit="10"/>
<path d="M288.165 239.454L291.314 234.815" stroke="black" stroke-miterlimit="10"/>
<path d="M289.091 242.475L293.117 237.248" stroke="black" stroke-miterlimit="10"/>
<path d="M283.516 248.229L292.219 253.112" stroke="black" stroke-miterlimit="10"/>
<path d="M282.491 250.152L292.52 255.416" stroke="black" stroke-miterlimit="10"/>
<path d="M128.938 236.83C129.1 236.742 130.041 236.297 130.886 235.325C131.027 235.162 131.472 234.628 131.872 233.765C132.416 232.579 132.321 231.964 132.611 230.645C132.961 229.058 133.548 227.916 133.869 227.291C134.545 225.976 135.237 225.106 136.026 224.171C137.472 222.455 138.193 221.599 139.352 220.99C139.748 220.783 141.078 220.13 142.926 220.09C143.559 220.076 144.666 220.062 145.885 220.569C148.692 221.738 149.611 224.644 149.767 225.126C150.152 226.339 150.12 227.304 150.074 228.606C150.025 230.05 149.972 231.621 149.152 233.286C148.247 235.117 147.282 235.294 146.688 237.126C146.356 238.146 146.345 239.053 146.38 239.644C146.331 240.637 146.355 242.203 146.872 244.025C147.271 245.425 147.681 245.982 148.413 247.865C148.551 248.215 149.304 250.173 149.831 252.422C150.644 255.906 151.174 258.172 150.014 259.26C149.555 259.692 148.201 259.732 145.518 259.8C143.807 259.841 143.184 259.804 140.957 259.8C139.738 259.8 138.377 259.821 135.658 259.862C135.34 259.865 133.381 259.896 130.974 259.923C129.358 259.94 128.545 259.946 128.446 259.923C123.61 258.679 125.919 238.441 128.938 236.83Z" fill="white" stroke="black" stroke-miterlimit="10"/>
<path d="M48.7745 249.408C48.7285 249.527 48.7674 249.493 49.0219 252.048C49.0219 252.048 49.0962 252.776 49.3295 253.788C49.4921 254.485 49.5699 254.604 49.637 254.689C49.9694 255.087 50.5138 255.09 51.8536 255.11C52.9636 255.124 54.0737 255.056 55.1802 255.11C56.064 255.155 56.7109 255.233 57.2129 254.811C57.4321 254.628 57.5417 254.417 57.6442 254.21C58.0118 253.483 57.9906 252.779 57.9517 252.232C57.8457 250.621 57.7891 249.816 57.5204 249.353C56.1135 246.934 49.4992 247.484 48.7745 249.408Z" fill="white" stroke="black" stroke-miterlimit="10"/>
<path d="M34.0472 249.53C34.1886 249.884 34.0083 249.925 33.9871 252.409C33.98 253.265 33.9977 253.527 33.8032 253.85C33.3543 254.587 32.3326 254.737 31.3392 254.869C30.0701 255.039 30.0136 254.771 27.3339 254.628C26.0895 254.563 25.6158 254.594 25.2376 254.207C25.0361 253.999 24.8452 253.656 24.8664 252.286C24.8911 250.71 24.9053 249.921 25.2376 249.347C26.6163 246.958 33.2376 247.491 34.0472 249.53Z" fill="white" stroke="black" stroke-miterlimit="10"/>
<path d="M53.0839 155.686C54.0454 156.481 53.5611 157.647 54.0065 161.446C54.1974 163.071 54.2611 162.646 55.4842 168.284C56.8806 174.72 56.7887 175.223 57.7008 178.54C58.581 181.731 58.7648 181.623 59.1785 183.58C60.0128 187.519 59.8219 190.601 59.7335 192.399C59.5214 196.64 59.5921 200.385 59.7335 207.876C59.882 215.77 60.4759 215.243 60.6562 223.892C60.84 232.674 60.2001 231.848 60.6562 236.671C61.3314 243.807 62.9151 247.532 61.0274 248.908C59.8325 249.778 58.7755 248.592 54.1868 248.368C49.1704 248.123 47.6044 249.405 46.0524 248.188C44.755 247.168 44.7586 245.415 44.7586 241.17C44.7621 235.923 44.656 237.66 44.7586 230.193C44.7798 228.711 44.3414 223.787 43.4647 213.996C42.6799 205.225 42.6269 204.797 42.7258 203.379C43.1395 197.507 44.6278 196.688 44.9424 190.781C44.999 189.738 44.9495 189.833 44.2035 180.165C43.2597 167.913 44.1187 177.864 43.4647 168.287C43.0122 161.66 42.846 160.471 43.8359 158.928C45.9747 155.608 51.235 154.153 53.0839 155.686Z" fill="white" stroke="black" stroke-miterlimit="10"/>
<path d="M21.1226 161.208C21.0059 161.698 21.2498 163.295 21.7377 166.486C21.9816 168.066 22.3457 170.262 22.9715 173.446C23.7527 177.422 23.9295 177.786 24.3254 180.284C24.5587 181.765 24.8062 183.325 24.9405 185.324C25.1244 187.981 25.0077 189.85 24.9405 191.441C24.7249 196.511 25.0749 196.501 24.9405 201.639C24.7673 208.314 24.1734 208.491 23.9542 215.916C23.8588 219.141 23.9613 219.389 23.8305 223.474C23.7527 225.914 23.6149 228.222 23.3391 232.834C23.0598 237.51 23.9401 242.339 22.724 246.869C22.6568 247.121 22.5119 247.634 22.724 248.188C23.8765 251.226 34.2062 251.794 36.5252 248.069C36.748 247.712 36.8469 247.396 37.0166 244.11C37.2005 240.558 37.2146 238.458 37.2641 237.15C37.3631 234.519 37.6388 234.496 38.6181 228.151C39.2509 224.049 39.0635 224.535 39.8518 219.152C40.2053 216.728 40.6897 213.429 41.4533 209.194C42.0083 206.115 42.5315 203.532 42.931 201.636C43.1501 200.365 43.4117 198.737 43.6698 196.837C43.7582 196.195 43.9986 194.384 44.2849 191.56C44.5006 189.439 44.7728 186.764 44.9 184.243C45.1227 179.903 44.7268 179.821 44.7763 174.765C44.8223 169.82 45.2147 168.406 45.1475 163.006C45.1015 159.434 45.0662 157.633 44.5324 156.889C40.6967 151.543 22.5826 155.169 21.1226 161.208Z" fill="white" stroke="black" stroke-miterlimit="10"/>
<path d="M38.3387 82.317C38.7947 82.4393 39.2083 82.7928 39.8164 84.0264C40.2512 84.91 40.4244 85.5013 40.739 86.4563C41.3082 88.1725 41.3718 88.1113 41.941 89.8751C42.1778 90.6092 42.4253 91.4146 42.5879 92.4851C42.8 93.8581 42.6516 94.2319 42.496 94.463C42.2415 94.8436 41.7077 95.0203 40.6471 95.3636C39.5512 95.717 39.0033 95.8937 38.3351 95.9039C37.2923 95.9175 36.9211 95.5947 35.9312 95.8156C35.6413 95.8801 34.9626 96.0331 34.9131 96.3559C34.8707 96.6346 35.3161 96.8555 36.2989 97.525C37.2746 98.1877 37.7624 98.5207 37.9639 98.7858C38.5508 99.5606 38.7523 100.883 38.1478 101.756C37.7023 102.402 36.9882 102.548 35.56 102.837C34.648 103.02 33.2127 103.313 31.5865 102.837C31.4557 102.799 30.8512 102.541 29.6457 102.028C28.7442 101.644 28.5498 101.549 28.3518 101.307C27.8887 100.74 27.7721 99.8121 28.168 99.2378C28.419 98.8708 28.6488 98.9897 28.9069 98.6091C29.1614 98.2353 29.1437 97.7561 29.0907 96.8079C29.0412 95.9005 28.9422 95.7714 29.0907 95.5471C29.4159 95.0611 30.1124 95.3364 30.4765 94.8266C30.7416 94.4596 30.6674 93.909 30.4765 93.5658C30.3033 93.2531 30.123 93.2837 29.5538 92.8453C28.8149 92.2778 28.4367 91.717 28.3518 91.5845C28.0514 91.1189 27.9312 90.7417 27.8887 90.5956C27.7615 90.1504 27.6872 89.8887 27.7968 89.6066C28.0195 89.0323 28.8538 88.7706 29.4619 88.8861C29.6316 88.9201 29.872 88.9643 30.0169 89.1546C30.2467 89.4571 29.9886 89.8071 30.2007 90.0552C30.3775 90.2625 30.8088 90.3101 31.0315 90.1436C31.2931 89.9533 31.2365 89.5013 31.1234 88.7026C31.0103 87.9074 30.9007 87.8734 30.8477 87.2617C30.8017 86.7349 30.7664 86.2388 31.0315 85.7324C31.0774 85.644 31.2436 85.3518 31.6784 85.0119C32.2087 84.6007 32.6506 84.5022 33.7111 84.2031C35.1782 83.7851 35.9171 83.571 36.207 83.3025C36.5958 82.9423 36.7054 82.6126 37.2251 82.4019C37.3559 82.3578 37.8296 82.181 38.3387 82.317Z" fill="white" stroke="black" stroke-miterlimit="10"/>
<path d="M314.07 252.572C314.169 252.732 314.109 252.779 314.102 253.952C314.095 255.202 314.159 255.437 313.947 255.631C313.699 255.855 313.423 255.709 312.405 255.719C311.603 255.729 311.649 255.821 310.68 255.868C310.023 255.902 310.111 255.851 308.556 255.838C307.608 255.828 306.555 255.838 306.555 255.838C306.555 255.838 306.166 255.841 306 255.749C305.727 255.593 305.802 255.026 305.876 254.431C306.116 252.535 306.113 252.528 306.152 252.477C306.657 251.797 307.665 252.229 310.62 252.208C312.66 252.201 313.713 251.984 314.07 252.572Z" fill="#FCFCFC" stroke="black" stroke-miterlimit="10"/>
<path d="M325.174 233.031C325.634 233.072 325.765 233.469 327.359 235.746C328.292 237.078 328.43 237.204 328.466 237.585C328.589 239.002 326.917 240.181 326.196 240.691C324.884 241.615 322.247 242.903 321.035 241.958C320.462 241.513 320.769 241.01 319.889 239.518C319.143 238.258 318.659 238.162 318.723 237.68C318.846 236.732 320.727 236.922 322.689 235.352C324.227 234.118 324.375 232.963 325.174 233.031Z" fill="#F2F3F4" stroke="black" stroke-miterlimit="10"/>
<path d="M278.454 114.035V119.734" stroke="black" stroke-miterlimit="10"/>
<path d="M278.432 135.356V175.699C278.432 180.878 274.081 185.116 268.76 185.116H84.4053C79.0849 185.116 74.7332 180.878 74.7332 175.699V35.8127C74.7332 30.6335 79.0849 26.3956 84.4053 26.3956H268.757C274.077 26.3956 278.429 30.6335 278.429 35.8127V106.327" fill="#FAFAFC"/>
<path d="M278.432 135.356V175.699C278.432 180.878 274.081 185.116 268.76 185.116H84.4053C79.0849 185.116 74.7332 180.878 74.7332 175.699V35.8127C74.7332 30.6335 79.0849 26.3956 84.4053 26.3956H268.757C274.077 26.3956 278.429 30.6335 278.429 35.8127V106.327" stroke="black" stroke-miterlimit="10"/>
<path d="M74.7544 41.8688L278.454 41.512" stroke="black" stroke-miterlimit="10"/>
<path d="M278.454 41.5119C210.554 41.6308 142.654 41.7532 74.7545 41.8721C74.3762 40.6147 73.7434 37.8484 74.7545 34.6742C76.6316 28.7915 82.5106 26.6539 83.2565 26.3956H269.948C270.676 26.6437 276.633 28.7915 278.45 34.6742C279.373 37.6479 278.821 40.2477 278.454 41.5119Z" fill="black" stroke="black" stroke-miterlimit="10"/>
<path d="M89.8991 35.5714C90.7152 35.5714 91.3768 34.9263 91.3768 34.1305C91.3768 33.3347 90.7152 32.6896 89.8991 32.6896C89.083 32.6896 88.4214 33.3347 88.4214 34.1305C88.4214 34.9263 89.083 35.5714 89.8991 35.5714Z" fill="white"/>
<path d="M96.2729 35.5714C97.089 35.5714 97.7506 34.9263 97.7506 34.1305C97.7506 33.3347 97.089 32.6896 96.2729 32.6896C95.4568 32.6896 94.7952 33.3347 94.7952 34.1305C94.7952 34.9263 95.4568 35.5714 96.2729 35.5714Z" fill="white"/>
<path d="M102.714 35.5714C103.53 35.5714 104.192 34.9263 104.192 34.1305C104.192 33.3347 103.53 32.6896 102.714 32.6896C101.898 32.6896 101.236 33.3347 101.236 34.1305C101.236 34.9263 101.898 35.5714 102.714 35.5714Z" fill="white"/>
<path d="M125.774 55.3673H86.2153V85.2396H125.774V55.3673Z" fill="#D8D6D6"/>
<path d="M125.774 96.757H86.2153V125.192H125.774V96.757Z" fill="#D8D6D6"/>
<path d="M125.774 138.507H86.2153V166.941H125.774V138.507Z" fill="#D8D6D6"/>
<path d="M223.372 55.3673H183.814V85.2396H223.372V55.3673Z" fill="#D8D6D6"/>
<path d="M223.372 96.757H183.814V126.989H223.372V96.757Z" fill="#D8D6D6"/>
<path d="M223.372 138.507H183.814V166.941H223.372V138.507Z" fill="#D8D6D6"/>
<path d="M131.13 59.2823H172.353" stroke="black" stroke-miterlimit="10"/>
<path d="M131.133 67.2449L171.982 67.0648" stroke="black" stroke-miterlimit="10"/>
<path d="M131.133 74.1743L171.519 74.3544" stroke="black" stroke-miterlimit="10"/>
<path d="M131.133 82.2728H172.353" stroke="black" stroke-miterlimit="10"/>
<path d="M131.133 100.448L172.353 100.356" stroke="black" stroke-miterlimit="10"/>
<path d="M131.78 108.094L172.353 108.454" stroke="black" stroke-miterlimit="10"/>
<path d="M131.133 115.652L172.353 115.832" stroke="black" stroke-miterlimit="10"/>
<path d="M131.133 122.942L172.353 123.122" stroke="black" stroke-miterlimit="10"/>
<path d="M130.946 140.937L172.074 141.209" stroke="black" stroke-miterlimit="10"/>
<path d="M131.409 148.586L172.166 148.767" stroke="black" stroke-miterlimit="10"/>
<path d="M131.038 156.413L172.537 156.233" stroke="black" stroke-miterlimit="10"/>
<path d="M131.225 164.423L172.629 164.331" stroke="black" stroke-miterlimit="10"/>
<path d="M228.824 59.2823H269.998" stroke="black" stroke-miterlimit="10"/>
<path d="M228.824 67.2449L269.998 67.3332" stroke="black" stroke-miterlimit="10"/>
<path d="M228.824 74.9832L269.998 75.0273" stroke="black" stroke-miterlimit="10"/>
<path d="M228.824 82.1368H269.998" stroke="black" stroke-miterlimit="10"/>
<path d="M228.824 100.22L254.751 100.278" stroke="black" stroke-miterlimit="10"/>
<path d="M228.824 108.05L252.113 108.152" stroke="black" stroke-miterlimit="10"/>
<path d="M228.824 115.968L257.77 115.873" stroke="black" stroke-miterlimit="10"/>
<path d="M228.87 123.751L261.326 123.679" stroke="black" stroke-miterlimit="10"/>
<path d="M228.824 140.937L269.626 141.028" stroke="black" stroke-miterlimit="10"/>
<path d="M228.824 148.811L269.952 148.767" stroke="black" stroke-miterlimit="10"/>
<path d="M228.87 156.729L269.902 156.685" stroke="black" stroke-miterlimit="10"/>
<path d="M228.824 164.603H264.822" stroke="black" stroke-miterlimit="10"/>
<path d="M267.777 164.603H268.75" stroke="black" stroke-miterlimit="10"/>
<path d="M264.822 164.603H270.181" stroke="black" stroke-miterlimit="10"/>
<path d="M253.022 91.3602H273.787" stroke="black" stroke-width="2" stroke-miterlimit="10"/>
<path d="M277.789 114.694L273.787 91.3602" stroke="black" stroke-width="2" stroke-miterlimit="10"/>
<path d="M255.878 106.116L253.022 91.3602" stroke="black" stroke-width="2" stroke-miterlimit="10"/>
<path d="M259.12 122.85L256.9 111.38" stroke="black" stroke-width="2" stroke-miterlimit="10"/>
<path d="M261.623 122.724L259.12 122.85" stroke="black" stroke-width="2" stroke-miterlimit="10"/>
<path d="M276.559 121.953L270.291 122.432" stroke="black" stroke-width="2" stroke-miterlimit="10"/>
<path d="M264.218 95.0781H257.257V99.7578H264.218V95.0781Z" fill="#E5C6C6"/>
<path d="M273.462 95.0781H265.699V99.7578H273.462V95.0781Z" fill="#E5C6C6"/>
<path d="M273.784 101.617H266.745V106.116H273.784V101.617Z" fill="#E5C6C6"/>
<path d="M274.82 107.734H267.456V112.291H274.82V107.734Z" fill="#E5C6C6"/>
<path d="M275.788 114.035H269.025V118.772H275.788V114.035Z" fill="#E5C6C6"/>
<path d="M258.01 104.417V101.617H265.02V106.116H260.926" fill="#E5C6C6"/>
<path d="M264.348 111.934H265.632C265.671 111.934 265.699 111.907 265.699 111.873V107.798C265.699 107.765 265.667 107.737 265.632 107.737H263.065C263.026 107.737 262.998 107.765 262.998 107.798V109.834" fill="#E5C6C6"/>
<path d="M262.231 118.782L259.845 111.822" stroke="black" stroke-miterlimit="10"/>
<path d="M257.257 111.934H260.216" stroke="black" stroke-miterlimit="10"/>
<path d="M251.742 108.499L257.89 111.934" stroke="black" stroke-miterlimit="10"/>
<path d="M251.742 108.152V108.862" stroke="black" stroke-miterlimit="10"/>
<path d="M251.742 101.977V108.152" stroke="black" stroke-miterlimit="10"/>
<path d="M252.481 101.977L255.44 105.756" stroke="black" stroke-miterlimit="10"/>
<path d="M257.257 105.756H255.44" stroke="black" stroke-miterlimit="10"/>
<path d="M256.073 102.742L257.257 106.116" stroke="black" stroke-miterlimit="10"/>
<path d="M261.538 106.096L256.348 102.742" stroke="black" stroke-miterlimit="10"/>
<path d="M251.742 102.201L252.481 101.977" stroke="black" stroke-miterlimit="10"/>
<path d="M266.169 114.738L261.538 106.096" stroke="black" stroke-miterlimit="10"/>
<path d="M281.268 93.5217C281.151 93.6746 281.077 93.8411 281.084 95.6797C281.087 96.9235 281.126 98.0722 281.268 99.9991C281.381 101.542 281.441 101.919 281.639 102.429C281.854 102.983 282.148 103.748 282.933 104.318C283.721 104.893 284.827 105.148 285.796 104.947C286.468 104.811 286.645 104.543 286.906 104.679C287.419 104.94 287.058 106.15 287.09 108.009C287.101 108.512 287.136 108.954 287.178 109.328C287.217 109.657 287.334 110.66 287.398 110.657C287.532 110.65 286.574 105.916 287.327 100.179C287.769 96.7977 288.469 95.6457 287.574 94.4188C286.188 92.5259 282.279 92.2031 281.268 93.5217Z" fill="#F2F2F4" stroke="#020202" stroke-miterlimit="10"/>
<path d="M276.407 105.885C276.789 105.464 278.1 106.12 280.412 107.146C285.793 109.532 287.723 109.994 287.631 110.721C287.536 111.479 285.411 110.99 283.368 112.726C281.724 114.126 281.621 115.703 280.472 115.785C279.355 115.866 278.422 114.449 278.316 114.286C277.241 112.655 278.266 111.567 277.513 108.947C276.973 107.058 276.053 106.273 276.407 105.885Z" fill="white" stroke="#020202" stroke-miterlimit="10"/>
<path d="M320.833 241.857C321.473 241.629 321.766 242.196 322.99 242.156C323.909 242.125 324.598 241.775 324.898 241.615C325.803 241.143 325.874 240.725 327.362 239.457C328.084 238.842 328.448 238.533 328.78 238.499C330.042 238.356 331.721 240.072 331.552 241.558C331.463 242.329 330.834 242.842 329.579 243.838C328.625 244.596 327.886 245.014 325.266 246.478C322.866 247.817 322.71 247.899 322.247 248.218C321.158 248.97 321.063 249.19 319.599 250.196C319.044 250.577 319.571 250.193 317.072 251.695C316.577 251.991 316.103 252.28 315.407 252.354C315.053 252.392 314.399 252.463 313.989 252.055C313.706 251.773 313.582 251.311 313.681 250.917C313.894 250.064 314.965 250.186 316.209 249.116C316.57 248.806 317.026 248.13 317.934 246.778C318.588 245.806 318.913 245.32 319.228 244.738C320.246 242.856 320.144 242.105 320.833 241.857Z" fill="#333333" stroke="black" stroke-miterlimit="10"/>
<path d="M320.497 160.794C321.427 161.501 320.649 163.261 319.758 168.352C319.49 169.891 319.292 171.376 318.896 174.35C318.609 176.505 318.457 177.935 318.157 180.709C317.047 190.958 317.089 190.363 317.047 190.907C316.838 193.643 316.884 194.571 316.799 203.145C316.799 203.145 316.757 207.356 316.676 213.102C316.421 231.124 316.008 229.765 316.305 234.336C316.305 234.336 316.612 239.032 316.552 245.612C316.524 248.925 316.28 247.665 316.305 249.69C316.322 250.985 316.421 251.681 315.933 252.208C315.343 252.847 314.318 252.565 313.098 252.687C310.351 252.963 309.287 252.528 306.321 252.446C303.08 252.361 301.793 253.282 301.022 252.446C300.439 251.811 300.686 250.835 300.898 249.568C301.312 247.117 301.004 244.599 301.27 242.128C301.414 240.783 301.446 237.51 301.641 230.971C301.895 222.336 301.701 218.455 301.764 214.537C301.973 201.49 304.985 191.145 306.816 184.664C308.068 180.243 309.867 174.71 312.483 168.467C312.865 166.738 313.25 165.246 313.593 164.029C313.844 163.125 314.056 162.435 314.703 161.871C314.94 161.664 315.385 161.341 316.799 161.032C318.878 160.576 319.914 160.348 320.497 160.794Z" fill="#DBA726" stroke="black" stroke-miterlimit="10"/>
<path d="M292.849 162.782C291.845 170.408 290.841 178.031 289.837 185.657C289.734 185.973 289.611 186.411 289.529 186.945C289.423 187.648 289.444 188.172 289.469 188.834C289.494 189.507 289.512 189.932 289.653 190.482C289.653 190.482 289.784 190.996 290.024 191.502C291.233 194.078 315.672 241.017 315.753 241.354C315.753 241.357 315.757 241.364 315.764 241.374C315.884 241.5 316.874 240.773 317.029 240.664C319.065 239.209 325.439 237.694 326.518 234.784C327.15 233.078 325.715 231.539 323.682 228.307C321.459 224.769 323.05 226.407 317.768 215.709C317.768 215.709 309.959 199.896 306.802 190.754C306.579 190.109 306.091 188.651 306.311 186.795C306.501 185.15 307.428 184.855 308.775 181.636C309.174 180.681 309.107 180.522 309.697 178.907C310.235 177.439 310.581 176.692 310.931 175.818C311.797 173.653 311.903 172.698 312.472 170.901C314.106 165.728 316.269 164.005 315.491 162.982C314.749 162.007 312.168 162.765 310.995 163.071C307.219 164.056 301.425 164.682 292.849 162.782Z" fill="#FFCC33" stroke="black" stroke-miterlimit="10"/>
<path d="M286.372 110.949C286.372 110.949 287.553 110.449 288.921 110.188C301.701 107.771 319.062 130.459 319.465 132.111C319.723 133.168 320.02 134.541 320.02 134.541C320.373 136.169 320.829 138.282 321.13 140.57C321.296 141.83 321.211 141.623 321.501 145.249C321.667 147.343 321.678 147.21 322.056 151.546C322.247 153.732 322.169 155.947 322.519 158.116C322.728 159.414 323.255 160.78 322.519 161.535C321.975 162.095 320.96 162.119 320.875 162.122C320.066 162.133 319.762 161.752 318.73 161.715C318.337 161.701 318.072 161.742 317.542 161.837C316.432 162.041 315.668 162.462 313.554 162.972C313.423 163.003 313.36 163.02 313.328 163.026C311.702 163.407 310.086 163.645 308.191 163.784C302.422 164.206 297.932 163.784 297.932 163.784C291.403 163.169 290.841 161.963 290.724 161.626C290.508 161.008 290.82 160.583 291.279 159.196C291.717 157.868 291.912 156.389 292.297 153.436C292.764 149.857 292.997 148.07 292.668 145.966C292.417 144.362 292.223 144.685 291.558 141.558C291.099 139.387 291.067 138.646 290.356 137.691C289.512 136.553 288.932 136.76 288.044 135.533C287.217 134.384 287.009 133.205 286.842 132.203C286.411 129.599 287.207 128.454 286.719 128.162C285.952 127.703 283.445 130.248 278.457 135.356C276.318 137.545 275.912 138.058 274.947 138.687C274.554 138.942 273.193 139.784 271.687 141.256C272.61 141.545 269.746 140.814 268.972 140.247C268.053 139.577 267.887 138.581 267.555 137.368C267.039 135.479 266.073 133.728 265.338 131.91C263.97 128.536 263.288 126.847 262.379 125.311C262.379 125.311 261.732 124.213 260.53 120.152C260.467 119.941 260.322 119.418 260.59 119.071C260.926 118.643 261.693 118.762 262.238 118.779C264.419 118.854 266.816 117.443 266.978 116.233C267.085 115.441 266.24 114.697 266.176 114.735C266.077 114.792 267.586 116.668 268.972 120.087C269.799 122.13 270.881 124.074 271.62 126.147C271.701 126.371 271.836 127.006 272.235 127.105C272.674 127.214 273.13 126.626 274.208 125.304C276.343 122.684 276.325 122.803 276.919 121.946C277.34 121.338 277.884 120.512 278.461 119.486C279.634 117.379 280.875 115.792 281.851 114.687C283.215 113.137 284.386 111.836 286.372 110.949Z" fill="white" stroke="#020202" stroke-miterlimit="10"/>
<path d="M285.393 108.781C285.407 108.366 285.453 107.904 285.556 107.414C285.726 106.589 285.931 106.269 286.203 105.525C286.433 104.893 287.429 102.143 286.666 99.316C286.471 98.5921 286.174 97.4944 285.28 96.5258C283.085 94.1469 280.041 95.5369 278.535 93.9158C276.545 91.7782 278.093 85.3484 282.233 82.9389C285.043 81.3008 288.19 82.0179 293.047 83.119C294.122 83.3637 295.232 83.6899 296.373 84.4682C297.232 85.0527 297.971 85.8004 299.516 88.339C301.4 91.4384 302.344 92.9881 303.027 95.2684C303.656 97.3687 303.401 97.7731 304.32 100.757C305.098 103.279 305.636 104.138 305.985 104.624C306.753 105.702 307.58 106.351 309.591 107.683C312.685 109.732 314.233 110.758 316.245 111.73C317.507 112.339 317.114 112.07 323.637 114.701C325.885 115.608 327.242 116.169 328.904 117.311C331.368 119.007 332.022 120.278 332.23 120.73C332.966 122.317 332.867 123.788 332.786 124.42C332.718 124.933 332.45 126.803 330.937 128.288C330.244 128.967 329.303 129.372 327.426 130.177C326.263 130.677 325.804 130.802 323.82 131.526C320.07 132.899 320.402 132.927 319.476 133.147C317.263 133.667 315.435 133.48 313.929 133.328C311.578 133.086 309.782 132.502 308.845 132.158C308.28 131.951 306.06 131.105 303.578 129.28C302.365 128.39 300.35 126.881 298.678 124.332C297.24 122.136 296.274 119.564 296.274 119.564C295.433 117.321 295.5 116.492 294.609 115.965C293.312 115.2 292.255 116.424 289.989 115.785C288.377 115.333 287.401 114.289 287.125 113.984C285.991 112.743 285.711 111.401 285.556 110.653C285.485 110.313 285.368 109.644 285.393 108.781Z" fill="#070707" stroke="black" stroke-miterlimit="10"/>
<path d="M314.19 255.841C314.551 256.086 314.516 256.551 314.59 257.489C314.742 259.342 315.06 259.777 314.682 260.188C314.434 260.456 314.074 260.517 313.543 260.609C312.925 260.715 312.525 260.623 311.974 260.579C311.21 260.517 310.899 260.602 309.909 260.667C309.153 260.718 308.927 260.698 305.752 260.636C303.914 260.602 302.995 260.585 302.118 260.575C299.622 260.551 298.374 260.538 298.176 260.545C296.412 260.596 295.486 260.718 295.405 260.456C295.33 260.218 295.999 259.828 296.515 259.525C297.367 259.026 297.872 258.91 299.318 258.356C300.428 257.931 300.994 257.71 301.414 257.425C302.422 256.738 302.74 256.436 302.74 256.436C302.973 256.212 303.108 256.052 303.387 255.926C303.815 255.736 304.204 255.8 304.557 255.838C305.027 255.885 305.688 255.909 306.53 255.807C308.806 255.668 310.578 255.62 311.521 255.627C312.575 255.634 312.267 255.709 313.278 255.715C313.802 255.726 313.992 255.705 314.19 255.841Z" fill="#333333" stroke="black" stroke-miterlimit="10"/>
<path d="M28.3874 89.2362C28.9919 88.8148 29.9923 88.5293 30.4837 88.9303C30.8797 89.2566 30.8054 89.9227 30.8549 89.9193C30.9362 89.9125 30.4837 88.0298 31.3463 86.4461C31.5372 86.0927 31.8059 85.6135 32.3644 85.277C33.4144 84.6381 34.1179 85.396 35.4153 84.9168C36.4228 84.5464 36.1541 84.0332 37.5399 83.3875C38.2505 83.0544 38.6323 83.0443 39.205 82.5787C39.4029 82.4155 39.8519 82.0383 40.1276 81.4096C40.2726 81.08 40.2584 80.3765 40.2196 78.9797C40.1948 78.0995 40.1807 77.6543 39.9438 77.4504C39.6822 77.2261 39.4418 77.3417 38.7419 77.182C37.8899 76.9848 37.9323 76.7436 37.3561 76.6416C37.0061 76.5804 36.8117 76.6382 34.9522 77.182C34.1744 77.4096 33.782 77.5218 33.5664 77.4504C32.9088 77.2431 33.0008 76.5532 32.2725 76.1896C31.6645 75.8871 30.908 76.0197 30.4236 76.278C30.1726 76.4139 29.9923 76.5838 29.3136 77.6271C28.2919 79.1972 28.3556 79.3434 28.0197 79.5167C27.2349 79.9245 26.7188 79.2312 25.6158 79.605C24.8381 79.8701 24.3856 80.4546 24.1381 80.7741C23.5018 81.5931 23.3675 82.4427 23.3074 82.8437C23.0352 84.6687 23.926 85.43 23.3074 86.5345C23.0246 87.0374 22.8195 86.9117 22.4766 87.5234C21.9393 88.4784 22.0524 89.4673 22.1054 89.9533C22.2433 91.1427 22.7771 91.9686 22.9362 92.203C23.6291 93.2124 24.5093 93.678 25.7997 94.3611C26.6057 94.7893 27.2066 94.9932 27.7405 95.1699C28.3238 95.3636 28.8929 95.5131 29.5893 95.5301C30.1231 95.5437 30.4201 95.5437 30.6075 95.35C30.9751 94.9592 30.7418 93.9464 30.1444 93.3721C29.501 92.7468 28.8964 93.0832 28.1116 92.3832C27.9384 92.2268 27.447 91.7884 27.3728 91.1223C27.2561 90.0518 28.2884 89.3042 28.3874 89.2362Z" fill="#663300" stroke="black" stroke-miterlimit="10"/>
<path d="M28.0408 100.706C28.5782 101.073 28.7691 102.15 28.762 102.154C28.7549 102.157 28.5322 101.671 28.359 101.301C28.6913 101.511 29.1261 101.766 29.6528 102.021C29.8013 102.092 30.1584 102.259 30.6498 102.446C31.1977 102.653 31.9189 102.925 32.6931 103.047C33.8067 103.224 34.6834 103.03 35.5707 102.833C36.9812 102.521 37.6883 102.364 38.1584 101.753C38.5685 101.222 38.4837 100.777 38.9892 100.448C39.4558 100.145 39.972 100.227 40.4669 100.267C42.3476 100.427 42.3759 99.8766 44.0728 99.999C44.6596 100.04 46.1161 100.162 47.5089 101.049C48.2301 101.508 48.725 102.147 49.7113 103.418C49.7856 103.513 51.2562 105.423 52.391 107.557C52.5359 107.829 52.8011 108.342 53.2217 109.086C53.6707 109.882 53.805 110.065 54.0525 110.527C54.2399 110.874 54.5333 111.445 54.9752 112.597C54.9752 112.597 55.5302 114.031 56.5625 117.606C56.5625 117.606 56.6544 118.67 56.2867 119.136C56.0074 119.492 55.4206 119.547 52.3132 119.224C50.8638 119.074 50.3936 119 50.0613 119.319C49.6583 119.707 49.7608 120.376 49.9128 121.382C49.9694 121.766 49.5416 121.905 50.4678 125.249C51.5956 129.317 52.4546 134.497 52.5006 134.789C52.6455 135.666 52.8435 137.861 53.2394 142.259C53.8828 149.385 53.6 148.019 53.7944 149.188C54.3636 152.61 55.1413 154.384 54.0702 155.577C53.7237 155.964 53.0379 156.196 51.6663 156.658C49.7007 157.32 49.1386 157.161 47.4135 157.738C46.0878 158.18 45.1439 158.704 44.4545 159.088C42.5809 160.134 42.4218 160.624 40.7568 161.517C40.2795 161.772 39.1235 162.388 37.614 162.778C36.101 163.169 35.1005 163.115 32.2547 163.047C28.9918 162.969 27.3621 162.931 26.6162 162.958C22.2007 163.108 21.1543 163.89 20.1468 163.047C19.3302 162.367 19.3832 161.327 19.408 157.378C19.4221 155.159 19.3832 152.94 19.408 150.721C19.4539 146.843 19.2984 147.944 19.2241 140.824C19.1994 138.316 19.1994 136.396 18.761 133.715C18.6055 132.753 18.4676 132.114 18.206 130.925C17.453 127.503 17.0571 125.773 16.0637 124.746C15.5476 124.213 15.1057 123.982 14.4941 123.125C14.2679 122.809 13.8083 122.119 13.4017 120.937C13.0023 119.778 12.8856 118.83 12.7548 117.069C12.5462 114.31 12.4437 112.93 12.571 112.481C13.0871 110.633 14.6532 109.756 16.7142 108.373C23.6325 103.727 26.6869 99.7849 28.0408 100.706Z" fill="#3C3B6B" stroke="black" stroke-miterlimit="10"/>
<path d="M15.9082 123.377C17.6156 123.489 22.0311 119.085 24.2264 119.958C24.7107 120.152 25.1031 121.046 25.8914 122.836C26.2202 123.584 26.8353 125.008 27.1853 126.976C27.4257 128.315 27.3444 128.92 27.5565 128.954C27.9418 129.022 28.3696 127.027 29.9145 123.601C30.6321 122.014 30.8159 121.827 31.6255 119.958C32.3078 118.381 32.3643 118.089 32.9193 116.899C33.5132 115.625 34.0329 114.735 34.7682 113.481C35.6202 112.023 36.2919 110.986 37.356 109.341C37.5964 108.971 38.4413 107.594 40.1275 104.842C40.3361 104.505 40.9724 103.442 41.2376 101.963C41.4391 100.828 41.2552 100.373 41.0997 100.118C40.8876 99.7747 40.4492 99.5402 39.576 99.0848C38.9821 98.7755 38.413 98.4765 37.5893 98.1842C37.3171 98.0891 36.7762 97.9055 36.0197 97.5997C35.3339 97.321 35.1076 97.1987 35.0475 96.971C34.9627 96.6447 35.2561 96.2607 35.5566 96.0704C35.949 95.8189 36.3944 95.8733 36.6206 95.8903C37.2287 95.9378 38.0736 95.7271 39.7634 95.3057C40.3149 95.1664 40.9335 94.9149 42.1673 94.4051C42.3865 94.3168 42.5739 94.2352 42.7223 94.0449C43.2491 93.372 42.4996 92.3525 42.7824 92.1248C43.1324 91.8461 44.8788 92.9064 45.9853 94.5853C46.7878 95.8019 47.0069 96.9608 47.0953 97.4637C47.3039 98.643 47.1908 99.5538 47.0352 100.764C46.8408 102.259 46.512 103.377 46.3565 103.883C45.5257 106.616 44.7056 108.213 43.8925 110.181C43.3763 111.428 43.4682 111.36 41.7961 116.42C41.0396 118.711 40.1381 121.443 39.1165 124.369C36.5075 131.832 36.3803 131.22 35.3268 134.853C34.8495 136.495 34.1637 138.075 33.6617 139.713C33.6617 139.713 33.1385 141.416 31.5371 143.897C31.4381 144.05 31.2472 144.338 30.8902 144.573C30.6109 144.756 30.3528 144.828 29.3206 144.977C28.3661 145.117 27.8817 145.185 27.6095 145.157C27.1146 145.106 26.7364 144.964 26.1778 144.753C25.5733 144.525 25.1385 144.294 25.0678 144.257C23.8587 143.601 23.5901 141.487 22.8512 139.489C22.7522 139.224 22.777 139.312 20.5852 135.394C18.0293 130.819 18.4959 131.598 18.1353 130.986C18.1353 130.986 17.1243 129.27 15.2718 124.597C15.187 124.379 14.982 123.842 15.2259 123.564C15.4132 123.329 15.8127 123.37 15.9082 123.377Z" fill="white" stroke="black" stroke-miterlimit="10"/>
<path d="M48.2371 119.516C48.8381 118.765 49.8951 119.537 53.1651 118.915C53.4621 118.857 54.1444 118.796 55.5054 118.673C56.4316 118.588 56.7993 118.571 57.1068 118.792C57.6194 119.163 57.57 119.927 57.5982 120.594C57.6548 121.8 57.927 121.538 58.832 124.672C59.6628 127.55 59.2739 127.22 59.942 129.229C60.4405 130.734 60.8506 131.496 61.0521 133.069C61.2465 134.581 61.0379 135.2 60.9284 135.468C60.5819 136.321 59.9067 136.93 58.7118 137.626C56.5836 138.87 54.6464 139.332 53.7838 139.547C52.2283 139.931 50.489 140.485 47.0069 141.586C43.2101 142.789 41.3118 143.39 38.8725 144.586C36.1292 145.932 35.5141 146.646 33.3259 147.105C30.3952 147.723 28.5463 147.067 28.0267 146.863C26.8813 146.415 25.7642 145.98 25.3152 144.943C25.0288 144.281 24.4314 142.031 24.3395 141.949C24.3395 141.949 24.3359 141.946 24.3324 141.946C24.2582 141.953 24.3218 143.027 24.3324 143.027C24.3395 143.027 24.1627 142.371 24.3324 141.946C24.8874 140.553 29.0589 141.942 33.697 140.627C33.895 140.573 35.553 139.75 38.8725 138.109C46.3953 134.388 45.2499 134.819 46.0206 134.51C49.0113 133.304 50.3476 133.188 50.9486 131.87C51.4577 130.758 51.1642 129.392 50.9486 128.39C50.7011 127.234 50.3441 126.622 49.8386 125.511C48.3785 122.293 47.523 120.407 48.2371 119.516Z" fill="white" stroke="black" stroke-miterlimit="10"/>
<path d="M49.1599 254.026C49.524 254.003 49.5947 254.339 50.33 254.686C50.9204 254.964 51.4294 255.012 52.5465 255.046C53.4657 255.073 54.5863 255.083 55.8731 255.046C56.1312 254.964 56.5094 254.822 56.9195 254.567C57.4604 254.23 57.5417 254.016 57.8422 253.908C58.4715 253.68 59.1891 254.213 59.8148 254.628C60.7976 255.274 61.9182 255.688 62.9576 256.249C65.6443 257.693 66.9841 258.417 67.5179 258.468C67.9386 258.509 68.6244 258.526 69.0593 259.009C69.388 259.372 69.5542 259.991 69.3067 260.327C69.1087 260.592 68.734 260.575 67.3977 260.568C66.8215 260.565 66.2488 260.592 65.6726 260.568C64.0605 260.504 63.8696 260.626 61.8511 260.63C60.4865 260.633 60.6527 260.575 58.1533 260.511C57.2129 260.487 57.4675 260.5 54.2116 260.45C49.7502 260.382 49.8598 260.361 49.6512 260.388C48.5624 260.534 47.9756 260.745 47.5549 260.388C47.0635 259.967 47.2049 259.111 47.4312 257.87C47.6044 256.919 48.117 254.098 49.1599 254.026Z" fill="#333333" stroke="black" stroke-miterlimit="10"/>
<path d="M33.6936 253.197C34.1213 253.309 34.7789 253.503 35.5425 253.826C36.4545 254.217 36.7409 254.461 37.759 254.995C39.1731 255.739 39.1589 255.545 40.6225 256.3C42.429 257.228 42.132 257.35 43.1183 257.693C43.9385 257.979 44.5995 258.054 44.9672 258.638C44.9884 258.672 45.3384 259.25 45.1051 259.583C44.8505 259.946 44.0976 259.729 42.7931 259.627C41.9482 259.562 41.0997 259.63 40.2513 259.627C39.7528 259.624 38.1443 259.62 36.6914 259.627C35.8288 259.63 33.9835 259.644 31.6538 259.715C28.9635 259.8 27.6202 259.841 27.5424 259.851C27.0192 259.906 26.2379 259.889 24.6789 259.851C23.9931 259.834 23.2755 259.807 23.0598 259.403C22.9821 259.257 23.0139 259.134 23.0598 258.682C23.1694 257.625 23.074 257.67 23.1517 257.333C23.3568 256.473 23.9224 256.534 24.6754 255.219C24.9547 254.73 24.9547 254.587 25.1845 254.455C25.6759 254.166 26.1778 254.533 27.1712 254.723C27.5177 254.791 27.4328 254.74 29.667 254.723C31.4099 254.709 31.6149 254.737 32.025 254.587C32.8734 254.281 33.4002 253.642 33.6936 253.197Z" fill="#333333" stroke="black" stroke-miterlimit="10"/>
<path d="M82.62 250.801C84.4123 250.801 85.8653 249.386 85.8653 247.641C85.8653 245.895 84.4123 244.48 82.62 244.48C80.8277 244.48 79.3748 245.895 79.3748 247.641C79.3748 249.386 80.8277 250.801 82.62 250.801Z" fill="white" stroke="black" stroke-miterlimit="10"/>
<path d="M187.724 225.789C189.579 225.789 191.082 224.325 191.082 222.52C191.082 220.714 189.579 219.25 187.724 219.25C185.869 219.25 184.365 220.714 184.365 222.52C184.365 224.325 185.869 225.789 187.724 225.789Z" fill="white" stroke="black" stroke-miterlimit="10"/>
<path d="M98.9984 5.81813C100.648 5.81813 101.986 4.51569 101.986 2.90906C101.986 1.30243 100.648 0 98.9984 0C97.3487 0 96.0112 1.30243 96.0112 2.90906C96.0112 4.51569 97.3487 5.81813 98.9984 5.81813Z" fill="white" stroke="black" stroke-miterlimit="10"/>
<path d="M25.7005 8.89031C27.3971 8.89031 28.7725 7.55136 28.7725 5.89968C28.7725 4.24801 27.3971 2.90906 25.7005 2.90906C24.0038 2.90906 22.6284 4.24801 22.6284 5.89968C22.6284 7.55136 24.0038 8.89031 25.7005 8.89031Z" fill="white" stroke="black" stroke-miterlimit="10"/>
<path d="M331.463 51.3504C333.125 51.3504 334.472 50.0388 334.472 48.4209C334.472 46.803 333.125 45.4915 331.463 45.4915C329.802 45.4915 328.455 46.803 328.455 48.4209C328.455 50.0388 329.802 51.3504 331.463 51.3504Z" fill="white" stroke="black" stroke-miterlimit="10"/>
<path d="M144.531 220.61C144.701 221.571 144.846 222.968 144.655 224.63C144.517 225.819 144.256 226.723 143.853 228.11C143.195 230.377 142.951 230.465 142.559 232.13C142.262 233.391 142.403 233.347 142.004 235.488C141.767 236.762 141.551 237.67 141.201 239.148C140.547 241.911 140.501 241.731 140.155 243.349C139.614 245.874 139.787 246.03 139.292 247.607C138.674 249.581 138.009 250.594 137.751 250.964C136.991 252.062 136.828 251.831 136.21 252.766C135.333 254.088 135.439 254.883 134.608 257.265C134.279 258.203 133.961 258.947 133.746 259.423" stroke="black" stroke-miterlimit="10"/>
<path d="M116.066 201.585C117.399 201.476 118.322 201.408 119.485 201.765C120.931 202.21 121.818 203.023 122.903 204.015C123.61 204.661 124.89 205.854 125.954 207.794C127.075 209.843 127.347 211.621 127.619 213.374C127.849 214.866 127.863 216.018 127.895 218.322C127.912 219.668 127.877 220.949 127.803 223.451C127.736 225.728 127.619 229.119 127.619 229.119C127.517 232.089 127.485 232.861 127.619 234.159C127.778 235.685 128.054 236.81 128.266 237.67C129.054 240.844 129.475 242.546 130.762 244.239C132.293 246.251 133.229 245.867 134.919 248.198C136.047 249.755 136.531 251.168 136.86 252.157C137.726 254.754 138.719 257.737 137.415 259.267C136.33 260.541 134.605 259.688 128.266 259.807C124.869 259.872 125.152 260.12 120.595 260.256C117.94 260.337 116.013 260.307 112.648 260.256C107.815 260.181 105.397 260.147 103.774 260.076C100.812 259.946 100.349 259.814 99.154 260.076C98.4682 260.225 98.0687 260.388 97.6763 260.164C97.3298 259.967 96.895 259.42 97.2132 255.664C97.3404 254.169 97.4253 253.184 97.7682 251.525C98.0192 250.312 98.3409 249.071 99.154 246.577C100.565 242.258 101.268 240.1 102.113 238.839C103.053 237.432 104.644 235.549 105.439 234.611C105.966 233.989 106.468 233.296 107.472 231.913C108.229 230.873 108.632 230.271 108.766 229.394C108.833 228.953 108.78 228.494 108.674 227.593C108.522 226.329 108.345 225.513 108.211 224.803C107.9 223.128 108.01 222.944 107.748 221.204C107.401 218.904 107.168 218.961 106.917 217.245C106.617 215.22 106.73 213.69 106.917 211.128C107.052 209.283 107.126 208.338 107.472 207.26C107.847 206.091 108.268 204.773 109.413 203.662C111.124 201.993 113.411 201.803 116.066 201.585Z" fill="white" stroke="black" stroke-miterlimit="10"/>
<path d="M115.684 202.061C115.766 202.775 115.942 203.831 116.36 205.075C116.823 206.455 117.24 207.033 117.71 208.182C118.297 209.612 118.456 210.686 118.725 212.565C119 214.496 119.064 216.124 119.064 218.594C119.06 224.124 118.721 224.151 118.838 227.729C118.954 231.236 119.28 231.325 119.177 234.033C119.092 236.174 118.873 236.497 118.728 239.79C118.64 241.744 118.686 242.322 118.502 243.811C118.276 245.656 118.039 246.108 117.827 247.648C117.516 249.918 117.71 251.243 117.713 252.49C117.721 254.397 117.279 257.129 115.235 260.623" stroke="black" stroke-miterlimit="10"/>
<path d="M119.198 216.623L126.463 208.834" stroke="black" stroke-miterlimit="10"/>
<path d="M119.046 222.927L127.969 214.343" stroke="black" stroke-miterlimit="10"/>
<path d="M107.472 231.906L118.314 245.068" stroke="black" stroke-miterlimit="10"/>
<path d="M104.888 235.257L117.572 249.707" stroke="black" stroke-miterlimit="10"/>
<path d="M135.757 224.494L141.647 237.231" stroke="black" stroke-miterlimit="10"/>
<path d="M132.908 229.541L139.847 244.344" stroke="black" stroke-miterlimit="10"/>
<path d="M137.475 259.158L148.816 249.52" stroke="black" stroke-miterlimit="10"/>
<path d="M142.654 259.814L150.495 254.822" stroke="black" stroke-miterlimit="10"/>
<path d="M148.583 259.712C149.541 259.634 151.018 259.386 152.556 258.543C154.295 257.588 155.253 256.341 156.438 254.764C157.131 253.843 157.53 253.184 159.488 249.636C161.337 246.281 162.271 244.586 162.631 243.699C163.19 242.322 163.886 240.259 164.296 237.581" stroke="black" stroke-miterlimit="10"/>
<path d="M153.97 256.953C153.638 256.813 153.878 256.117 153.507 254.482C153.249 253.343 153.062 253.377 152.535 251.668C152.507 251.576 152.139 250.36 151.888 248.705C151.722 247.62 151.736 247.179 151.934 246.73C152.259 245.999 152.885 245.693 152.998 245.643C154.168 245.099 155.296 245.955 155.402 246.037C156.006 246.513 156.243 247.148 156.42 247.617C156.678 248.314 156.738 248.942 156.742 249.891C156.752 251.794 156.759 252.745 156.466 253.693C155.897 255.529 154.525 257.18 153.97 256.953Z" fill="#33FF99" stroke="black" stroke-miterlimit="10"/>
<path d="M163.837 243.393C166.685 243.393 168.995 241.144 168.995 238.37C168.995 235.596 166.685 233.347 163.837 233.347C160.988 233.347 158.679 235.596 158.679 238.37C158.679 241.144 160.988 243.393 163.837 243.393Z" fill="#BC99FA"/>
<path d="M160.259 234.754C160.39 234.965 160.648 234.869 163.25 234.815C164.699 234.784 165.428 234.771 165.65 234.784C166.817 234.859 167.248 235.022 167.439 234.774C167.75 234.373 167.064 233.354 166.577 232.834C166.386 232.63 165.976 232.205 165.283 231.933C164.208 231.512 163.236 231.77 162.971 231.845C161.21 232.341 159.902 234.173 160.259 234.754Z" fill="black"/>
<path d="M157.442 260.341C158.127 259.563 159.213 258.387 160.645 257.041C162.32 255.467 163.084 255.219 164.71 253.503C165.657 252.504 167.093 251.022 168.963 249.245C171.222 247.094 172.12 245.799 173.201 244.059C173.986 242.798 175.015 240.861 175.761 238.241" stroke="black" stroke-miterlimit="10"/>
<path d="M175.192 243.984C178.04 243.984 180.35 241.735 180.35 238.961C180.35 236.187 178.04 233.938 175.192 233.938C172.343 233.938 170.034 236.187 170.034 238.961C170.034 241.735 172.343 243.984 175.192 243.984Z" fill="#BC99FA"/>
<path d="M172.194 234.876C172.289 235.104 172.562 235.046 175.142 235.362C176.581 235.539 177.302 235.627 177.521 235.671C178.663 235.909 179.066 236.134 179.293 235.916C179.66 235.563 179.133 234.458 178.73 233.874C178.571 233.646 178.232 233.167 177.585 232.8C176.585 232.232 175.588 232.348 175.312 232.382C173.495 232.623 171.925 234.251 172.194 234.876Z" fill="black"/>
<path d="M281.126 260.602L362 260.5" stroke="black" stroke-width="2" stroke-miterlimit="10"/>
<path d="M45.1829 260.898L281.126 260.602" stroke="black" stroke-width="2" stroke-miterlimit="10"/>
<path d="M232.712 212.79C233.713 212.701 234.406 212.647 235.282 212.932C236.368 213.286 237.036 213.938 237.852 214.73C238.383 215.247 239.344 216.198 240.143 217.748C240.985 219.386 241.19 220.807 241.395 222.207C241.568 223.4 241.578 224.321 241.603 226.163C241.617 227.24 241.589 228.259 241.532 230.261C241.483 232.083 241.395 234.791 241.395 234.791C241.317 237.163 241.292 237.782 241.395 238.818C241.515 240.038 241.72 240.936 241.879 241.622C242.469 244.157 242.787 245.517 243.753 246.869C244.901 248.477 245.608 248.171 246.878 250.033C247.765 251.338 248.179 252.643 248.338 253.197C249.511 257.282 250.102 259.325 249.342 260.076C249.006 260.409 248.348 260.49 247.03 260.65C245.824 260.796 245.506 260.667 242.547 260.657C242.547 260.657 242.547 260.657 240.514 260.66C238.248 260.664 238.248 260.664 238.248 260.664C237.28 260.67 237.025 260.681 236.445 260.667C235.707 260.647 235.176 260.602 234.975 260.589C233.281 260.463 232.387 260.68 229.838 260.677C227.717 260.674 227.53 260.521 225.635 260.596C223.913 260.664 223.599 260.684 223.599 260.684C223.584 260.684 222.259 260.765 220.689 260.687C220.336 260.67 219.894 260.64 219.487 260.351C219.187 260.137 219.017 259.861 218.893 259.603C218.738 259.28 218.349 258.465 218.547 256.008C218.642 254.815 218.706 254.026 218.964 252.701C219.151 251.732 219.392 250.74 220.007 248.745C221.067 245.296 221.594 243.569 222.231 242.563C222.938 241.439 224.132 239.936 224.73 239.185C225.126 238.689 225.504 238.135 226.257 237.027C226.823 236.195 227.127 235.716 227.229 235.015C227.279 234.662 227.24 234.295 227.159 233.578C227.045 232.569 226.911 231.916 226.812 231.349C226.579 230.01 226.66 229.863 226.466 228.473C226.208 226.635 226.031 226.679 225.84 225.31C225.614 223.692 225.699 222.472 225.84 220.419C225.942 218.944 225.995 218.19 226.257 217.327C226.54 216.392 226.855 215.339 227.717 214.452C228.997 213.116 230.715 212.966 232.712 212.79Z" fill="white" stroke="black" stroke-miterlimit="10"/>
<path d="M232.426 213.17C232.486 213.738 232.62 214.584 232.935 215.58C233.285 216.681 233.596 217.146 233.95 218.061C234.388 219.203 234.512 220.062 234.713 221.564C234.918 223.104 234.968 224.409 234.968 226.383C234.964 230.801 234.71 230.822 234.798 233.683C234.883 236.484 235.13 236.555 235.053 238.72C234.989 240.429 234.826 240.687 234.713 243.318C234.646 244.878 234.681 245.34 234.543 246.529C234.374 248.004 234.193 248.365 234.034 249.595C233.967 250.105 233.932 250.553 233.914 250.961C233.858 252.28 233.935 253.282 233.95 253.466C234.02 254.448 233.706 256.395 232.062 260.609" stroke="black" stroke-miterlimit="10"/>
<path d="M235.063 224.807L240.522 218.581" stroke="black" stroke-miterlimit="10"/>
<path d="M234.95 229.843L241.653 222.985" stroke="black" stroke-miterlimit="10"/>
<path d="M226.253 237.017L234.398 247.532" stroke="black" stroke-miterlimit="10"/>
<path d="M224.313 239.695L233.844 251.24" stroke="black" stroke-miterlimit="10"/>
<path d="M216.937 237.256C217.244 234.628 215.391 232.271 212.799 231.991C210.207 231.712 207.856 233.616 207.55 236.244C207.243 238.872 209.096 241.229 211.688 241.509C214.28 241.788 216.63 239.885 216.937 237.256Z" fill="#BC99FA"/>
<path d="M209.515 232.888C209.603 233.102 209.85 233.048 212.215 233.333C213.534 233.493 214.192 233.575 214.397 233.615C215.443 233.836 215.811 234.047 216.019 233.84C216.359 233.5 215.881 232.45 215.514 231.896C215.369 231.682 215.061 231.226 214.471 230.88C213.559 230.343 212.64 230.458 212.392 230.496C210.72 230.73 209.274 232.29 209.515 232.888Z" fill="black"/>
<path d="M216.242 254.166C216.528 254.135 216.447 253.629 217.002 252.619C217.391 251.916 217.532 251.974 218.218 250.937C218.253 250.883 218.741 250.145 219.204 249.099C219.508 248.412 219.569 248.12 219.484 247.787C219.342 247.247 218.893 246.931 218.816 246.876C217.978 246.305 216.945 246.665 216.85 246.699C216.295 246.903 216.005 247.281 215.793 247.559C215.475 247.974 215.33 248.375 215.174 249C214.863 250.254 214.704 250.879 214.789 251.559C214.941 252.874 215.765 254.217 216.242 254.166Z" fill="#33FF99" stroke="black" stroke-miterlimit="10"/>
<path d="M42.6975 27.2928V32.693" stroke="black" stroke-miterlimit="10"/>
<path d="M39.9119 29.9946H44.9954" stroke="black" stroke-miterlimit="10"/>
<path d="M14.0627 196.124L14.0946 201.735" stroke="black" stroke-miterlimit="10"/>
<path d="M11.2595 198.615L16.8981 198.584" stroke="black" stroke-miterlimit="10"/>
<path d="M201.865 208.481V213.911" stroke="black" stroke-miterlimit="10"/>
<path d="M199.185 211.196H204.7" stroke="black" stroke-miterlimit="10"/>
<path d="M337.42 30.7592C337.611 30.4296 337.887 29.9334 338.205 29.3183C338.714 28.3361 338.753 28.156 338.99 27.8774C339.587 27.1773 340.464 26.9904 341.206 26.8442C343.069 26.4738 343.458 27.1875 344.533 26.7083C345.459 26.2971 345.957 25.4169 346.473 24.5027C346.873 23.7958 347.092 23.1535 347.212 22.7015" stroke="black" stroke-miterlimit="10"/>
<path d="M0 222.142C0.395938 222.261 1.13479 222.424 2.05039 222.292C3.26295 222.115 4.04422 221.524 4.1927 221.408C4.7265 220.99 5.0482 220.443 5.67039 219.369C6.57539 217.806 6.51883 217.473 7.1198 217C7.72078 216.528 8.37125 216.399 9.10656 216.249C10.1424 216.042 11.0155 216.1 11.5706 216.175" stroke="black" stroke-miterlimit="10"/>
</g>
<defs>
<clipPath id="clip0_101_1133">
<rect width="362" height="261" fill="white"/>
</clipPath>
</defs>
</svg>
