<svg width="15" height="17" viewBox="0 0 15 17" fill="none" xmlns="http://www.w3.org/2000/svg">
<path fill-rule="evenodd" clip-rule="evenodd" d="M0.858527 5.84206C0.858527 5.84206 1.02481 9.85258 1.14996 12.8783C1.24081 15.0701 3.03481 16.8001 5.21796 16.8001C6.65796 16.8001 8.3431 16.8001 9.7831 16.8001C11.9662 16.8001 13.7602 15.0701 13.8511 12.8783C13.9762 9.85258 14.1425 5.84206 14.1425 5.84206C14.158 5.48624 13.882 5.1847 13.5271 5.17005C13.1731 5.15455 12.8731 5.43196 12.8585 5.78865C12.8585 5.78865 12.6922 9.79917 12.5662 12.8241C12.5045 14.324 11.2762 15.5078 9.7831 15.5078C8.3431 15.5078 6.65796 15.5078 5.21796 15.5078C3.72481 15.5078 2.49653 14.324 2.43481 12.8241C2.30881 9.79917 2.14253 5.78865 2.14253 5.78865C2.12796 5.43196 1.82796 5.15455 1.47396 5.17005C1.1191 5.1847 0.843098 5.48624 0.858527 5.84206Z" fill="#1F1F1F"/>
<path fill-rule="evenodd" clip-rule="evenodd" d="M3.60771 2.58465L3.92829 1.61972C4.24886 0.652194 5.14971 0 6.16457 0C6.97371 0 8.02629 0 8.83543 0C9.85029 0 10.7511 0.652194 11.0717 1.61972L11.3923 2.58465H14.3571C14.712 2.58465 15 2.87413 15 3.23082C15 3.5875 14.712 3.87698 14.3571 3.87698H0.642857C0.288 3.87698 0 3.5875 0 3.23082C0 2.87413 0.288 2.58465 0.642857 2.58465H3.60771ZM10.0363 2.58465L9.852 2.02895C9.70629 1.5887 9.29743 1.29233 8.83543 1.29233C8.02629 1.29233 6.97371 1.29233 6.16457 1.29233C5.70257 1.29233 5.29371 1.5887 5.148 2.02895L4.96371 2.58465H10.0363Z" fill="#1F1F1F"/>
</svg>
