<svg width="19" height="17" viewBox="0 0 19 17" fill="none" xmlns="http://www.w3.org/2000/svg">
<path d="M5.8508 7.89259L5.85013 7.89291C5.84945 7.89354 5.84945 7.89418 5.84945 7.89418C5.80344 7.93818 5.76884 7.99137 5.74062 8.04803C5.7329 8.06228 5.72752 8.07526 5.72148 8.09014C5.71543 8.1047 5.70703 8.118 5.70233 8.13351L4.35604 12.8271C4.30297 13.0133 4.3594 13.2118 4.5035 13.3482C4.61233 13.4505 4.75811 13.5059 4.90692 13.5059C4.95663 13.5059 5.00735 13.4999 5.05572 13.4869L9.84432 12.2671C9.87589 12.2722 9.90612 12.2845 9.93803 12.2845C10.0845 12.2845 10.2306 12.232 10.3421 12.1269L18.0967 4.81764C18.5099 4.42793 18.7383 3.90969 18.7383 3.35853C18.7383 2.80736 18.5099 2.28912 18.0967 1.8994L16.7014 0.584329C15.8747 -0.195409 14.4307 -0.194143 13.6054 0.584329L5.8508 7.89259ZM14.4136 1.34507C14.8079 0.972457 15.4985 0.972773 15.8942 1.34539L17.2895 2.66015C17.4877 2.84661 17.5966 3.0945 17.5966 3.35853C17.5966 3.62255 17.4877 3.87012 17.2895 4.0569L16.8697 4.45263L13.993 1.74175L14.4136 1.34507ZM13.1855 2.50281L16.0622 5.21369L9.93871 10.9853L7.06138 8.27407L13.1855 2.50281ZM6.72515 9.47866L8.78657 11.4218L5.71812 12.2041L6.54745 9.31182L6.72515 9.47866Z" fill="#1F1F1F"/>
<path d="M13.9185 5.28443L13.1108 4.52344L9.52796 7.9012L10.3356 8.6622L13.9185 5.28443Z" fill="#1F1F1F"/>
<path d="M0.570695 16.9997H15.9348C17.1427 16.9997 18.1242 16.0737 18.1242 14.9356V7.64851H16.9825V14.9359C16.9825 15.4807 16.5129 15.9233 15.9348 15.9233H1.14206V1.64425H10.8872V0.567871H0.570695C0.255285 0.567871 0 0.808789 0 1.10606V16.4612C0 16.7584 0.254949 16.9997 0.570695 16.9997Z" fill="#1F1F1F"/>
</svg>
